SplineFontDB: 3.0
FontName: PunkNova
FullName: Punk Nova
FamilyName: Punk Nova
Weight: Medium
Copyright: 
UComments: "2010-5-13: Created." 
Version: 001.000
ItalicAngle: 0
UnderlinePosition: -100
UnderlineWidth: 50
Ascent: 800
Descent: 200
LayerCount: 2
Layer: 0 0 "Back"  1
Layer: 1 0 "Fore"  0
NeedsXUIDChange: 1
XUID: [1021 761 216725230 10332168]
OS2Version: 0
OS2_WeightWidthSlopeOnly: 0
OS2_UseTypoMetrics: 1
CreationTime: 1273736168
ModificationTime: 1273736193
OS2TypoAscent: 0
OS2TypoAOffset: 1
OS2TypoDescent: 0
OS2TypoDOffset: 1
OS2TypoLinegap: 0
OS2WinAscent: 0
OS2WinAOffset: 1
OS2WinDescent: 0
OS2WinDOffset: 1
HheadAscent: 0
HheadAOffset: 1
HheadDescent: 0
HheadDOffset: 1
OS2Vendor: 'PfEd'
Lookup: 3 0 0 "Randomize lookup"  {"Randomize subtable"  } ['rand' ('DFLT' <'dflt' > 'grek' <'dflt' > 'latn' <'dflt' > ) ]
Lookup: 258 0 0 "Kern lookup"  {"Kern subtable"  } ['kern' ('DFLT' <'dflt' > 'grek' <'dflt' > 'latn' <'dflt' > ) ]
DEI: 91125
Encoding: UnicodeBmp
UnicodeInterp: none
NameList: Adobe Glyph List
DisplaySize: -24
AntiAlias: 1
FitToEm: 1
BeginChars: 67541 2150

StartChar: exclam
Encoding: 33 33 0
Width: 219
VWidth: 0
Flags: W
VStem: 28 163
LayerCount: 2
Fore
SplineSet
158 235 m 1
 139 189 l 1
 93 170 l 1
 47 189 l 1
 28 235 l 1
 47 281 l 1
 66 289 l 1
 93 692 l 1
 80 697 l 1
 61 743 l 1
 80 789 l 1
 126 808 l 1
 172 789 l 1
 191 743 l 1
 172 697 l 1
 153 689 l 1
 126 286 l 1
 139 281 l 1
 158 235 l 1
177 -4 m 1
 158 -50 l 1
 112 -69 l 1
 66 -50 l 1
 47 -4 l 1
 66 42 l 1
 112 61 l 1
 158 42 l 1
 177 -4 l 1
EndSplineSet
AlternateSubs2: "Randomize subtable" exclam.1 exclam.2 exclam.3 exclam.4 exclam.5 exclam.6 exclam.7
EndChar

StartChar: quotedbl
Encoding: 34 34 1
Width: 370
VWidth: 0
Flags: W
HStem: 446 21G<58 150> 759 9G<49 141 229 321>
VStem: 230 60<412 555.833> 242 60<516.167 660>
LayerCount: 2
Fore
SplineSet
322 358 m 1xe0
 303 312 l 1
 257 293 l 1
 211 312 l 1
 192 358 l 1
 211 404 l 1
 230 412 l 1xe0
 242 662 l 1
 229 668 l 1
 210 714 l 1
 229 760 l 1
 275 779 l 1
 321 760 l 1
 340 714 l 1
 321 668 l 1
 302 660 l 1xd0
 290 410 l 1
 303 404 l 1
 322 358 l 1xe0
169 511 m 1
 150 466 l 1
 104 446 l 1
 58 466 l 1
 39 511 l 1
 58 557 l 1
 72 563 l 1
 67 649 l 1
 49 657 l 1
 30 703 l 1
 49 749 l 1
 95 768 l 1
 141 749 l 1
 160 703 l 1
 141 657 l 1
 127 651 l 1
 132 565 l 1
 150 557 l 1
 169 511 l 1
EndSplineSet
AlternateSubs2: "Randomize subtable" quotedbl.1 quotedbl.2 quotedbl.3 quotedbl.4 quotedbl.5 quotedbl.6 quotedbl.7
EndChar

StartChar: numbersign
Encoding: 35 35 2
Width: 531
VWidth: 0
Flags: W
HStem: 202 50<148 159 228 285 353 378> 407 21G<392 484> 444 50<152 196 264 322>
LayerCount: 2
Fore
SplineSet
498 228 m 1
 479 182 l 1
 433 163 l 1
 387 182 l 1
 378 203 l 1
 346 202 l 1
 313 -12 l 2
 311 -25 297 -32 288 -33 c 2
 213 -44 l 1
 201 -73 l 1
 155 -92 l 1
 109 -73 l 1
 90 -27 l 1
 109 19 l 1
 133 29 l 1
 159 201 l 1
 148 201 l 1
 139 180 l 1
 93 161 l 1
 47 180 l 1
 28 226 l 1
 47 272 l 1
 93 291 l 1
 139 272 l 1
 148 251 l 1
 167 251 l 1
 196 444 l 1
 152 444 l 1
 143 422 l 1
 97 403 l 1
 51 422 l 1
 32 468 l 1
 51 514 l 1
 97 533 l 1
 143 514 l 1
 151 494 l 1
 203 494 l 1
 234 697 l 2
 236 708 248 720 267 718 c 2
 335 712 l 1
 342 728 l 1
 388 747 l 1
 434 728 l 1
 453 682 l 1
 434 637 l 1
 410 627 l 1
 394 519 l 1
 438 537 l 1
 484 518 l 1
 503 472 l 1
 484 426 l 1
 438 407 l 1
 392 426 l 1
 384 446 l 1
 383 446 l 1
 353 253 l 1
 378 253 l 1
 387 274 l 1
 433 293 l 1
 479 274 l 1
 498 228 l 1
285 202 m 1
 220 202 l 1
 193 22 l 1
 201 19 l 1
 206 6 l 1
 256 13 l 1
 285 202 l 1
293 252 m 1
 322 446 l 1
 257 445 l 1
 228 252 l 1
 293 252 l 1
330 496 m 1
 351 633 l 1
 342 637 l 1
 331 663 l 1
 290 666 l 1
 264 495 l 1
 330 496 l 1
EndSplineSet
AlternateSubs2: "Randomize subtable" numbersign.1 numbersign.2 numbersign.3 numbersign.4 numbersign.5 numbersign.6 numbersign.7
EndChar

StartChar: dollar
Encoding: 36 36 3
Width: 425
VWidth: 0
Flags: W
VStem: 205 60<204.714 300 408 422 518 641>
LayerCount: 2
Fore
SplineSet
305 752 m 1
 286 706 l 1
 270 699 l 1
 357 668 390 573 359 499 c 1
 371 470 l 1
 352 424 l 1
 306 405 l 1
 265 422 l 1
 264 368 l 1
 309 336 351 297 375 246 c 0
 386 221 393 198 395 176 c 0
 405 77 342 -25 230 -33 c 1
 127 -39 62 36 57 115 c 1
 47 119 l 1
 28 165 l 1
 47 211 l 1
 93 230 l 1
 139 211 l 1
 158 165 l 1
 139 119 l 1
 118 110 l 1
 124 65 157 28 198 19 c 1
 204 344 l 1
 198 348 l 2
 148 381 82 420 58 492 c 0
 28 584 80 683 177 705 c 0
 182 706 187 707 193 708 c 1
 175 752 l 1
 194 798 l 1
 240 817 l 1
 286 798 l 1
 305 752 l 1
263 300 m 1
 259 25 l 1
 308 45 342 101 335 171 c 0
 333 189 328 208 319 228 c 0
 306 255 287 279 263 300 c 1
205 408 m 1
 209 659 l 1
 204 659 198 658 193 657 c 0
 138 644 92 577 116 505 c 0
 130 464 165 436 205 408 c 1
268 641 m 1
 266 518 l 1
 306 535 l 1
 309 534 l 1
 317 574 300 617 268 641 c 1
EndSplineSet
AlternateSubs2: "Randomize subtable" dollar.1 dollar.2 dollar.3 dollar.4 dollar.5 dollar.6 dollar.7
EndChar

StartChar: percent
Encoding: 37 37 4
Width: 558
VWidth: 0
Flags: W
HStem: 404 20G<362 454> 754 20G<398.5 405.5>
VStem: 30 60<379.162 591.344>
LayerCount: 2
Fore
SplineSet
209 -59 m 1
 190 -105 l 1
 144 -124 l 1
 98 -105 l 1
 79 -59 l 1
 98 -13 l 1
 132 1 l 1
 242 340 l 1
 228 325 209 315 186 309 c 0
 180 307 172 306 162 305 c 0
 73 300 36 375 30 449 c 0
 27 491 33 539 49 589 c 0
 65 639 80 690 95 743 c 1
 92 744 l 1
 73 790 l 1
 92 836 l 1
 138 855 l 1
 184 836 l 1
 203 790 l 1
 193 767 l 1
 197 764 l 1
 250 721 326 719 381 764 c 0
 383 766 385 768 388 769 c 0
 392 772 396 774 401 774 c 0
 402 774 403 774 404 774 c 0
 407 774 409 774 412 773 c 0
 418 772 424 769 427 765 c 0
 435 758 438 747 431 737 c 1
 190 -13 l 1
 209 -59 l 1
401 274 m 1
 382 229 365 183 352 139 c 0
 338 93 337 50 344 15 c 0
 357 -45 388 -65 417 -61 c 0
 420 -61 423 -60 424 -60 c 0
 470 -48 484 42 445 145 c 0
 428 189 414 232 401 274 c 1
473 359 m 1
 454 313 l 1
 451 312 l 1
 466 262 482 211 502 160 c 0
 540 61 555 -91 428 -110 c 0
 347 -122 299 -61 285 6 c 0
 276 48 278 99 294 151 c 0
 311 208 332 265 358 322 c 1
 343 359 l 1
 362 405 l 1
 408 424 l 1
 454 405 l 1
 473 359 l 1
145 701 m 1
 133 657 119 615 106 575 c 0
 91 531 87 488 90 452 c 0
 95 381 125 353 158 355 c 0
 163 355 166 356 169 357 c 0
 213 368 238 456 201 557 c 0
 183 606 164 655 145 701 c 1
355 691 m 1
 308 676 256 678 210 696 c 1
 227 655 242 614 258 571 c 0
 271 536 279 496 279 458 c 1
 355 691 l 1
EndSplineSet
AlternateSubs2: "Randomize subtable" percent.1 percent.2 percent.3 percent.4 percent.5 percent.6 percent.7
EndChar

StartChar: ampersand
Encoding: 38 38 5
Width: 432
VWidth: 0
Flags: W
HStem: 458 20G<269 361> 674 49<91 233.222> 682 50<115 283> 754 20G<293 384>
VStem: 30 61<430 674> 40 60<179.333 338 430 591.7> 49 57<100 265>
LayerCount: 2
Fore
SplineSet
360 -8 m 1xb2
 341 -54 l 1
 295 -73 l 1
 250 -54 l 1
 230 -8 l 1
 250 38 l 1
 251 38 l 1
 212 170 l 1
 107 -18 l 2
 105 -21 97 -33 80 -33 c 0
 69 -33 49 -26 49 -8 c 2xb2
 40 343 l 2xb4
 40 344 39 345 39 346 c 2
 30 697 l 2
 30 707 40 722 59 723 c 2xd8
 283 732 l 1
 293 755 l 1
 339 774 l 1
 384 755 l 1
 404 709 l 1
 384 663 l 1
 339 644 l 1
 329 648 l 1
 100 338 l 1xb4
 106 100 l 1
 263 380 l 1
 250 413 l 1
 269 459 l 1
 315 478 l 1
 361 459 l 1
 380 413 l 1
 361 367 l 1
 315 348 l 1
 313 349 l 1
 253 242 l 1
 309 51 l 1
 341 38 l 1
 360 -8 l 1xb2
97 430 m 1
 283 682 l 1xb8
 91 674 l 1xd8
 97 430 l 1
EndSplineSet
AlternateSubs2: "Randomize subtable" ampersand.1 ampersand.2 ampersand.3 ampersand.4 ampersand.5 ampersand.6 ampersand.7
EndChar

StartChar: quotesingle
Encoding: 39 39 6
Width: 229
VWidth: 0
Flags: W
HStem: 765 20G<49 141>
VStem: 110 60<514 654.935>
LayerCount: 2
Fore
SplineSet
199 459 m 1
 180 413 l 1
 134 394 l 1
 88 413 l 1
 69 459 l 1
 88 505 l 1
 110 514 l 1
 113 566 105 613 90 657 c 1
 49 675 l 1
 30 720 l 1
 49 766 l 1
 95 785 l 1
 141 766 l 1
 160 720 l 1
 144 682 l 1
 157 647 165 610 168 574 c 0
 170 552 171 530 170 509 c 1
 180 505 l 1
 199 459 l 1
EndSplineSet
AlternateSubs2: "Randomize subtable" quotesingle.1 quotesingle.2 quotesingle.3 quotesingle.4 quotesingle.5 quotesingle.6 quotesingle.7
EndChar

StartChar: parenleft
Encoding: 40 40 7
Width: 301
VWidth: 0
Flags: W
HStem: 748 20G<162 254>
VStem: 29 60<203.544 484.46>
LayerCount: 2
Fore
SplineSet
263 -7 m 1
 244 -53 l 1
 198 -72 l 1
 152 -53 l 1
 133 -7 l 1
 142 16 l 1
 65 115 24 238 29 365 c 0
 34 480 77 591 152 682 c 1
 143 703 l 1
 162 749 l 1
 208 768 l 1
 254 749 l 1
 273 703 l 1
 254 657 l 1
 208 638 l 1
 193 644 l 1
 130 563 93 465 89 363 c 0
 85 250 120 141 185 53 c 1
 198 58 l 1
 244 39 l 1
 263 -7 l 1
EndSplineSet
AlternateSubs2: "Randomize subtable" parenleft.1 parenleft.2 parenleft.3 parenleft.4 parenleft.5 parenleft.6 parenleft.7
EndChar

StartChar: parenright
Encoding: 41 41 8
Width: 263
VWidth: 0
Flags: W
HStem: 764 20G<48 140>
LayerCount: 2
Fore
SplineSet
161 -6 m 1
 142 -52 l 1
 96 -71 l 1
 50 -52 l 1
 31 -6 l 1
 50 40 l 1
 96 59 l 1
 100 57 l 1
 195 241 198 470 99 656 c 1
 94 654 l 1
 48 673 l 1
 29 719 l 1
 48 765 l 1
 94 784 l 1
 140 765 l 1
 159 719 l 1
 146 688 l 1
 260 482 260 228 148 25 c 1
 161 -6 l 1
EndSplineSet
AlternateSubs2: "Randomize subtable" parenright.1 parenright.2 parenright.3 parenright.4 parenright.5 parenright.6 parenright.7
EndChar

StartChar: asterisk
Encoding: 42 42 9
Width: 417
VWidth: 0
Flags: W
HStem: 574 49<295.89 375.846>
VStem: 54 60<194.026 250.289>
LayerCount: 2
Fore
SplineSet
180 557 m 1
 188 563 l 1
 181 563 l 1
 180 557 l 1
221 615 m 1
 204 682 l 1
 191 613 l 1
 221 615 l 1
174 475 m 1
 294 315 l 1
 240 534 l 1
 220 521 202 507 184 488 c 0
 181 485 178 480 174 475 c 1
119 559 m 1
 112 558 l 1
 118 550 l 1
 119 559 l 1
266 822 m 1
 247 776 l 1
 243 774 l 1
 281 619 l 1
 344 623 l 2
 351 623 373 620 376 602 c 0
 378 593 371 577 350 574 c 0
 332 572 314 568 295 561 c 1
 386 190 l 2
 387 185 388 172 373 164 c 0
 364 159 342 156 331 171 c 2
 152 411 l 1
 114 214 l 2
 111 196 90 192 79 193 c 0
 62 195 55 208 54 213 c 0
 33 306 53 400 103 475 c 1
 35 567 l 2
 33 570 30 573 30 578 c 0
 29 587 37 604 58 605 c 2
 129 609 l 1
 161 774 l 1
 155 776 l 1
 136 822 l 1
 155 868 l 1
 201 887 l 1
 247 868 l 1
 266 822 l 1
EndSplineSet
AlternateSubs2: "Randomize subtable" asterisk.1 asterisk.2 asterisk.3 asterisk.4 asterisk.5 asterisk.6 asterisk.7
EndChar

StartChar: plus
Encoding: 43 43 10
Width: 427
VWidth: 0
Flags: W
HStem: 419 6G<48 140 287 379>
VStem: 161 59<141 336 393 633>
LayerCount: 2
Fore
SplineSet
252 686 m 1
 233 640 l 1
 218 634 l 1
 220 393 l 1
 276 399 l 1
 287 426 l 1
 333 445 l 1
 379 426 l 1
 398 380 l 1
 379 334 l 1
 333 315 l 1
 287 334 l 1
 281 349 l 1
 220 342 l 1
 222 141 l 1
 238 134 l 1
 258 88 l 1
 238 42 l 1
 193 23 l 1
 147 42 l 1
 128 88 l 1
 147 134 l 1
 162 140 l 1
 161 336 l 1
 151 335 l 1
 140 308 l 1
 94 289 l 1
 48 308 l 1
 29 354 l 1
 48 399 l 1
 94 419 l 1
 140 399 l 1
 146 384 l 1
 160 386 l 1
 158 633 l 1
 141 640 l 1
 122 686 l 1
 141 732 l 1
 187 751 l 1
 233 732 l 1
 252 686 l 1
EndSplineSet
AlternateSubs2: "Randomize subtable" plus.1 plus.2 plus.3 plus.4 plus.5 plus.6 plus.7
EndChar

StartChar: comma
Encoding: 44 44 11
Width: 223
VWidth: 0
Flags: W
HStem: -265 320
VStem: 36 151
LayerCount: 2
Fore
SplineSet
166 -200 m 1
 147 -246 l 1
 101 -265 l 1
 55 -246 l 1
 36 -200 l 1
 55 -154 l 1
 94 -138 l 1
 111 -95 l 1
 105 -68 l 1
 76 -56 l 1
 57 -10 l 1
 76 35 l 1
 122 55 l 1
 168 35 l 1
 187 -10 l 1
 168 -56 l 1
 164 -58 l 1
 172 -91 l 2
 173 -96 172 -101 171 -104 c 2
 149 -159 l 1
 166 -200 l 1
EndSplineSet
AlternateSubs2: "Randomize subtable" comma.1 comma.2 comma.3 comma.4 comma.5 comma.6 comma.7
EndChar

StartChar: hyphen
Encoding: 45 45 12
Width: 330
VWidth: 0
Flags: W
HStem: 201 218
VStem: 34 262
LayerCount: 2
Fore
SplineSet
296 354 m 1
 277 308 l 1
 231 289 l 1
 200 302 l 1
 160 275 l 1
 164 266 l 1
 145 220 l 1
 99 201 l 1
 53 220 l 1
 34 266 l 1
 53 312 l 1
 99 331 l 1
 130 318 l 1
 170 345 l 1
 166 354 l 1
 185 400 l 1
 231 419 l 1
 277 400 l 1
 296 354 l 1
EndSplineSet
AlternateSubs2: "Randomize subtable" hyphen.1 hyphen.2 hyphen.3 hyphen.4 hyphen.5 hyphen.6 hyphen.7
EndChar

StartChar: period
Encoding: 46 46 13
Width: 203
VWidth: 0
Flags: W
HStem: -70 130
VStem: 37 130
LayerCount: 2
Fore
SplineSet
167 -5 m 1
 148 -51 l 1
 102 -70 l 1
 56 -51 l 1
 37 -5 l 1
 56 41 l 1
 102 60 l 1
 148 41 l 1
 167 -5 l 1
EndSplineSet
AlternateSubs2: "Randomize subtable" period.1 period.2 period.3 period.4 period.5 period.6 period.7
EndChar

StartChar: slash
Encoding: 47 47 14
Width: 362
VWidth: 0
Flags: W
HStem: 748 20G<223 315>
VStem: 28 306
LayerCount: 2
Fore
SplineSet
334 703 m 1
 315 657 l 1
 286 645 l 1
 135 -38 l 1
 139 -40 l 1
 158 -86 l 1
 139 -132 l 1
 93 -151 l 1
 47 -132 l 1
 28 -86 l 1
 47 -40 l 1
 76 -28 l 1
 227 655 l 1
 223 657 l 1
 204 703 l 1
 223 749 l 1
 269 768 l 1
 315 749 l 1
 334 703 l 1
EndSplineSet
AlternateSubs2: "Randomize subtable" slash.1 slash.2 slash.3 slash.4 slash.5 slash.6 slash.7
EndChar

StartChar: zero
Encoding: 48 48 15
Width: 388
VWidth: 0
Flags: W
HStem: 755 20G<138 230>
LayerCount: 2
Fore
SplineSet
189 523 m 1
 176 471 158 421 138 374 c 0
 97 277 83 179 92 106 c 0
 105 6 152 -30 224 -16 c 1
 309 8 322 167 253 333 c 0
 227 396 205 460 189 523 c 1
249 710 m 1
 230 664 l 1
 221 660 l 1
 240 549 268 451 310 349 c 0
 375 190 396 -20 243 -63 c 0
 234 -66 224 -68 211 -69 c 0
 101 -79 44 4 32 101 c 0
 21 184 38 288 82 391 c 0
 113 464 137 542 148 622 c 0
 150 634 151 646 152 658 c 1
 138 664 l 1
 119 710 l 1
 138 756 l 1
 184 775 l 1
 230 756 l 1
 249 710 l 1
EndSplineSet
AlternateSubs2: "Randomize subtable" zero.1 zero.2 zero.3 zero.4 zero.5 zero.6 zero.7
EndChar

StartChar: one
Encoding: 49 49 16
Width: 255
VWidth: 0
Flags: W
VStem: 143 63<485 504 703.377 725.841>
LayerCount: 2
Fore
SplineSet
227 -15 m 1
 208 -61 l 1
 162 -80 l 1
 116 -61 l 1
 97 -15 l 1
 116 31 l 1
 133 38 l 1
 141 407 l 1
 139 402 l 1
 93 383 l 1
 47 402 l 1
 28 448 l 1
 47 494 l 1
 82 508 l 1
 148 710 l 2
 154 727 173 729 184 727 c 0
 202 723 206 710 206 703 c 2
 193 37 l 1
 208 31 l 1
 227 -15 l 1
139 493 m 1
 143 485 l 1
 143 504 l 1
 139 493 l 1
EndSplineSet
AlternateSubs2: "Randomize subtable" one.1 one.2 one.3 one.4 one.5 one.6 one.7
EndChar

StartChar: two
Encoding: 50 50 17
Width: 401
VWidth: 0
Flags: W
HStem: 719 49<138.052 257.804>
LayerCount: 2
Fore
SplineSet
317 23 m 1
 298 -23 l 1
 252 -42 l 1
 222 -29 l 1
 210 -37 l 2
 208 -38 197 -44 183 -41 c 0
 172 -38 157 -27 163 -10 c 0
 215 138 261 290 298 445 c 0
 331 582 299 705 220 718 c 0
 219 718 217 719 214 719 c 0
 148 725 100 680 91 617 c 0
 85 578 96 540 125 514 c 1
 162 529 l 1
 208 510 l 1
 227 464 l 1
 208 418 l 1
 162 399 l 1
 116 418 l 1
 97 464 l 1
 98 467 l 1
 43 506 25 569 32 623 c 0
 43 701 110 779 221 768 c 0
 226 767 230 767 232 767 c 0
 378 743 388 567 357 435 c 0
 328 316 296 199 258 86 c 1
 298 69 l 1
 317 23 l 1
EndSplineSet
AlternateSubs2: "Randomize subtable" two.1 two.2 two.3 two.4 two.5 two.6 two.7
EndChar

StartChar: three
Encoding: 51 51 18
Width: 342
VWidth: 0
Flags: W
HStem: 457 21G<108 199>
LayerCount: 2
Fore
SplineSet
159 133 m 1
 140 87 l 1
 128 82 l 1
 137 64 154 52 171 49 c 0
 177 48 185 49 194 51 c 0
 234 62 259 122 239 196 c 0
 223 255 189 310 141 350 c 0
 133 357 127 373 141 385 c 0
 189 426 226 481 244 546 c 0
 265 621 238 685 198 692 c 0
 159 699 129 677 119 637 c 0
 114 616 116 594 127 576 c 1
 154 588 l 1
 199 568 l 1
 219 522 l 1
 199 477 l 1
 154 457 l 1
 108 477 l 1
 89 522 l 1
 92 529 l 1
 58 562 51 609 60 647 c 0
 74 703 129 755 211 741 c 0
 313 723 325 612 303 535 c 0
 285 470 249 413 203 368 c 1
 251 322 282 266 298 207 c 0
 319 129 303 28 212 3 c 1
 138 -15 83 26 67 79 c 1
 48 87 l 1
 29 133 l 1
 48 179 l 1
 94 198 l 1
 140 179 l 1
 159 133 l 1
EndSplineSet
AlternateSubs2: "Randomize subtable" three.1 three.2 three.3 three.4 three.5 three.6 three.7
EndChar

StartChar: four
Encoding: 52 52 19
Width: 365
VWidth: 0
Flags: W
HStem: -110 21G<135 227>
VStem: 150 60<8 172 226 441 667.405 711.07>
LayerCount: 2
Fore
SplineSet
150 222 m 1
 149 441 l 1
 95 219 l 1
 150 222 l 1
246 -45 m 1
 227 -91 l 1
 181 -110 l 1
 135 -91 l 1
 116 -45 l 1
 135 1 l 1
 151 8 l 1
 150 172 l 1
 60 166 l 2
 39 165 29 180 28 189 c 0
 28 192 29 194 29 196 c 2
 148 692 l 2
 152 710 173 714 184 712 c 0
 203 709 208 693 208 687 c 2
 210 226 l 1
 216 226 l 1
 226 251 l 1
 272 270 l 1
 318 251 l 1
 337 205 l 1
 318 160 l 1
 272 140 l 1
 226 160 l 1
 219 177 l 1
 210 176 l 1
 211 8 l 1
 227 1 l 1
 246 -45 l 1
EndSplineSet
AlternateSubs2: "Randomize subtable" four.1 four.2 four.3 four.4 four.5 four.6 four.7
EndChar

StartChar: five
Encoding: 53 53 20
Width: 338
VWidth: 0
Flags: W
HStem: 747 20G<198 290>
VStem: 29 280
LayerCount: 2
Fore
SplineSet
159 155 m 1
 140 109 l 1
 108 96 l 1
 111 62 137 31 176 34 c 0
 219 38 254 90 242 176 c 0
 239 195 235 215 226 237 c 0
 190 329 132 411 57 478 c 0
 53 482 48 490 49 499 c 2
 82 719 l 2
 83 728 95 743 116 741 c 2
 192 732 l 1
 198 748 l 1
 244 767 l 1
 290 748 l 1
 309 702 l 1
 290 656 l 1
 244 637 l 1
 198 656 l 1
 187 683 l 1
 138 688 l 1
 110 504 l 1
 188 432 246 346 283 252 c 0
 323 150 311 -3 183 -16 c 0
 156 -19 134 -13 116 -4 c 0
 70 19 43 64 47 110 c 1
 29 155 l 1
 48 201 l 1
 94 220 l 1
 140 201 l 1
 159 155 l 1
EndSplineSet
AlternateSubs2: "Randomize subtable" five.1 five.2 five.3 five.4 five.5 five.6 five.7
EndChar

StartChar: six
Encoding: 54 54 21
Width: 361
VWidth: 0
Flags: W
HStem: 746 20G<184 276>
LayerCount: 2
Fore
SplineSet
169 254 m 1
 162 216 l 1
 159 199 l 1
 159 198 l 1
 158 195 l 1
 146 128 158 80 187 69 c 0
 196 65 204 65 210 66 c 0
 243 72 287 133 266 216 c 0
 256 255 237 290 214 318 c 1
 169 254 l 1
295 701 m 1
 276 655 l 1
 247 643 l 1
 227 555 209 469 192 382 c 1
 200 387 219 392 233 379 c 0
 277 338 310 286 325 226 c 0
 349 134 310 32 222 17 c 0
 204 14 183 15 162 23 c 0
 111 42 96 88 94 133 c 1
 48 152 l 1
 29 198 l 1
 48 244 l 1
 94 263 l 1
 103 259 l 1
 111 271 l 1
 121 326 l 2
 141 435 164 544 188 653 c 1
 184 655 l 1
 165 701 l 1
 184 747 l 1
 230 766 l 1
 276 747 l 1
 295 701 l 1
EndSplineSet
AlternateSubs2: "Randomize subtable" six.1 six.2 six.3 six.4 six.5 six.6 six.7
EndChar

StartChar: seven
Encoding: 55 55 22
Width: 336
VWidth: 0
Flags: W
HStem: 722 20G<48 140>
VStem: 111 60<66 263.149>
LayerCount: 2
Fore
SplineSet
205 13 m 1
 186 -33 l 1
 140 -52 l 1
 94 -33 l 1
 75 13 l 1
 94 59 l 1
 111 66 l 1
 118 256 159 443 237 620 c 1
 144 640 l 1
 140 631 l 1
 94 612 l 1
 48 631 l 1
 29 677 l 1
 48 723 l 1
 94 742 l 1
 140 723 l 1
 154 690 l 1
 284 661 l 2
 305 656 309 640 306 631 c 0
 306 630 305 629 305 628 c 0
 223 450 178 258 171 65 c 1
 186 59 l 1
 205 13 l 1
EndSplineSet
AlternateSubs2: "Randomize subtable" seven.1 seven.2 seven.3 seven.4 seven.5 seven.6 seven.7
EndChar

StartChar: eight
Encoding: 56 56 23
Width: 358
VWidth: 0
Flags: W
HStem: 687 53<102.577 128>
LayerCount: 2
Fore
SplineSet
218 350 m 1
 197 305 179 256 162 206 c 0
 131 116 151 40 190 31 c 0
 191 31 193 30 196 30 c 0
 222 26 253 48 265 110 c 0
 270 134 271 162 266 193 c 0
 258 248 244 300 218 350 c 1
248 410 m 1
 253 404 l 1
 296 341 314 268 325 199 c 0
 331 164 330 131 324 102 c 0
 311 36 267 -30 186 -19 c 0
 180 -18 177 -18 174 -17 c 0
 69 8 76 135 105 220 c 0
 126 282 150 343 178 400 c 1
 180 406 l 1
 147 444 99 478 63 531 c 0
 1 620 35 700 98 730 c 0
 116 739 138 743 159 740 c 1
 192 754 l 1
 238 735 l 1
 257 689 l 1
 251 675 l 1
 283 640 301 595 298 546 c 0
 295 496 270 451 248 410 c 1
128 687 m 1
 127 687 l 2
 98 673 66 627 115 556 c 0
 140 520 175 492 208 458 c 1
 225 490 236 519 238 548 c 0
 240 580 231 610 214 633 c 1
 192 624 l 1
 146 643 l 1
 128 687 l 1
EndSplineSet
AlternateSubs2: "Randomize subtable" eight.1 eight.2 eight.3 eight.4 eight.5 eight.6 eight.7
EndChar

StartChar: nine
Encoding: 57 57 24
Width: 334
VWidth: 0
Flags: W
VStem: 239 60<380.998 639.937>
LayerCount: 2
Fore
SplineSet
219 -1 m 1
 200 -47 l 1
 154 -66 l 1
 108 -47 l 1
 89 -1 l 1
 108 45 l 1
 142 59 l 1
 164 132 183 205 200 278 c 1
 173 267 l 1
 127 286 l 1
 108 332 l 1
 115 350 l 1
 82 387 57 431 41 480 c 0
 11 577 40 697 141 718 c 0
 152 720 165 721 180 720 c 0
 295 710 312 583 300 487 c 0
 300 485 300 481 299 476 c 0
 277 331 243 187 200 45 c 1
 219 -1 l 1
220 375 m 1
 227 411 233 447 239 483 c 0
 240 488 241 491 241 493 c 0
 254 595 222 666 174 670 c 0
 167 671 161 670 156 669 c 0
 112 660 71 583 99 493 c 0
 111 454 130 420 155 390 c 1
 173 397 l 1
 219 378 l 1
 220 375 l 1
EndSplineSet
AlternateSubs2: "Randomize subtable" nine.1 nine.2 nine.3 nine.4 nine.5 nine.6 nine.7
EndChar

StartChar: colon
Encoding: 58 58 25
Width: 244
VWidth: 0
Flags: W
VStem: 34 176
LayerCount: 2
Fore
SplineSet
210 287 m 1
 191 241 l 1
 145 222 l 1
 99 241 l 1
 80 287 l 1
 99 333 l 1
 145 352 l 1
 191 333 l 1
 210 287 l 1
164 1 m 1
 145 -45 l 1
 99 -64 l 1
 53 -45 l 1
 34 1 l 1
 53 47 l 1
 99 66 l 1
 145 47 l 1
 164 1 l 1
EndSplineSet
AlternateSubs2: "Randomize subtable" colon.1 colon.2 colon.3 colon.4 colon.5 colon.6 colon.7
EndChar

StartChar: semicolon
Encoding: 59 59 26
Width: 255
VWidth: 0
Flags: W
VStem: 34 187
LayerCount: 2
Fore
SplineSet
210 256 m 1
 191 211 l 1
 145 191 l 1
 99 211 l 1
 80 256 l 1
 99 302 l 1
 145 321 l 1
 191 302 l 1
 210 256 l 1
164 -231 m 1
 145 -277 l 1
 99 -296 l 1
 53 -277 l 1
 34 -231 l 1
 53 -185 l 1
 94 -168 l 1
 131 -79 l 1
 130 -61 l 1
 110 -53 l 1
 91 -7 l 1
 110 39 l 1
 156 58 l 1
 202 39 l 1
 221 -7 l 1
 202 -53 l 1
 189 -58 l 1
 191 -81 l 2
 191 -85 190 -88 189 -90 c 2
 147 -190 l 1
 164 -231 l 1
EndSplineSet
AlternateSubs2: "Randomize subtable" semicolon.1 semicolon.2 semicolon.3 semicolon.4 semicolon.5 semicolon.6 semicolon.7
EndChar

StartChar: less
Encoding: 60 60 27
Width: 299
VWidth: 0
Flags: W
VStem: 31 239
LayerCount: 2
Fore
SplineSet
270 78 m 1
 251 32 l 1
 205 13 l 1
 159 32 l 1
 140 78 l 1
 155 114 l 1
 31 365 l 2
 29 369 27 377 32 385 c 2
 148 587 l 1
 135 619 l 1
 154 665 l 1
 200 684 l 1
 246 665 l 1
 265 619 l 1
 246 573 l 1
 200 554 l 1
 197 555 l 1
 92 373 l 1
 205 143 l 1
 251 124 l 1
 270 78 l 1
EndSplineSet
AlternateSubs2: "Randomize subtable" less.1 less.2 less.3 less.4 less.5 less.6 less.7
EndChar

StartChar: equal
Encoding: 61 61 28
Width: 403
VWidth: 0
Flags: W
HStem: 421 17G<53 145 233 325> 458 50<154 224>
LayerCount: 2
Fore
SplineSet
373 209 m 1
 354 163 l 1
 308 144 l 1
 262 163 l 1
 251 189 l 1
 148 198 l 1
 141 182 l 1
 95 163 l 1
 49 182 l 1
 30 228 l 1
 49 274 l 1
 95 293 l 1
 141 274 l 1
 152 248 l 1
 255 239 l 1
 262 255 l 1
 308 274 l 1
 354 255 l 1
 373 209 l 1
344 482 m 1
 325 436 l 1
 279 417 l 1
 233 436 l 1
 224 458 l 1
 153 460 l 1
 145 440 l 1
 99 421 l 1
 53 440 l 1
 34 486 l 1
 53 532 l 1
 99 551 l 1
 145 532 l 1
 154 510 l 1
 225 508 l 1
 233 528 l 1
 279 547 l 1
 325 528 l 1
 344 482 l 1
EndSplineSet
AlternateSubs2: "Randomize subtable" equal.1 equal.2 equal.3 equal.4 equal.5 equal.6 equal.7
EndChar

StartChar: greater
Encoding: 62 62 29
Width: 329
VWidth: 0
Flags: W
VStem: 29 268
LayerCount: 2
Fore
SplineSet
159 67 m 1
 140 21 l 1
 94 2 l 1
 48 21 l 1
 29 67 l 1
 48 113 l 1
 94 132 l 1
 99 130 l 1
 237 352 l 1
 118 557 l 1
 114 555 l 1
 68 574 l 1
 49 620 l 1
 68 666 l 1
 114 685 l 1
 160 666 l 1
 179 620 l 1
 166 588 l 1
 297 362 l 2
 302 353 300 344 297 340 c 2
 147 97 l 1
 159 67 l 1
EndSplineSet
AlternateSubs2: "Randomize subtable" greater.1 greater.2 greater.3 greater.4 greater.5 greater.6 greater.7
EndChar

StartChar: question
Encoding: 63 63 30
Width: 309
VWidth: 0
Flags: W
HStem: 489 21G<48 140>
VStem: 29 248
LayerCount: 2
Fore
SplineSet
277 -5 m 1
 258 -51 l 1
 212 -70 l 1
 166 -51 l 1
 147 -5 l 1
 166 40 l 1
 212 60 l 1
 258 40 l 1
 277 -5 l 1
193 245 m 1
 174 199 l 1
 128 180 l 1
 82 199 l 1
 63 245 l 1
 82 291 l 1
 104 300 l 1
 124 395 191 473 213 557 c 0
 224 602 217 644 192 659 c 0
 154 682 113 652 108 613 c 1
 140 600 l 1
 159 554 l 1
 140 508 l 1
 94 489 l 1
 48 508 l 1
 29 554 l 1
 47 598 l 1
 45 627 56 655 74 676 c 0
 107 715 171 733 227 700 c 0
 286 664 284 596 272 547 c 0
 247 449 185 375 165 295 c 1
 174 291 l 1
 193 245 l 1
EndSplineSet
AlternateSubs2: "Randomize subtable" question.1 question.2 question.3 question.4 question.5 question.6 question.7
EndChar

StartChar: at
Encoding: 64 64 31
Width: 535
VWidth: 0
Flags: W
VStem: 444 60<114.866 449.322>
LayerCount: 2
Fore
SplineSet
108 392 m 1
 115 487 l 2
 116 505 136 511 147 510 c 0
 164 509 172 499 174 494 c 2
 294 224 l 1
 336 207 l 1
 355 161 l 1
 339 123 l 1
 372 50 l 1
 413 65 440 141 444 227 c 0
 449 339 433 447 400 528 c 0
 354 642 284 691 200 667 c 0
 103 640 63 516 108 392 c 1
160 298 m 1
 179 272 204 248 227 230 c 1
 166 367 l 1
 160 298 l 1
171 -9 m 1
 152 -55 l 1
 106 -74 l 1
 60 -55 l 1
 41 -9 l 1
 60 37 l 1
 80 45 l 1
 99 285 l 1
 93 294 86 305 79 317 c 0
 -3 457 11 647 159 707 c 1
 181 714 l 1
 315 752 409 663 457 544 c 0
 493 455 509 343 504 225 c 0
 500 134 475 -3 352 -3 c 0
 343 -3 329 1 324 13 c 2
 287 97 l 1
 244 115 l 1
 225 161 l 1
 227 166 l 1
 201 182 177 200 154 221 c 1
 140 42 l 1
 152 37 l 1
 171 -9 l 1
EndSplineSet
AlternateSubs2: "Randomize subtable" at.1 at.2 at.3 at.4 at.5 at.6 at.7
EndChar

StartChar: A
Encoding: 65 65 32
Width: 411
VWidth: 0
Flags: W
HStem: 178 50<178 228>
LayerCount: 2
Fore
SplineSet
348 202 m 1
 329 156 l 1
 327 155 l 1
 335 112 l 1
 361 101 l 1
 380 55 l 1
 361 9 l 1
 315 -10 l 1
 269 9 l 1
 250 55 l 1
 269 101 l 1
 276 104 l 1
 269 143 l 1
 237 156 l 1
 228 178 l 1
 177 178 l 1
 169 158 l 1
 149 150 l 1
 130 -26 l 1
 140 -30 l 1
 159 -76 l 1
 140 -121 l 1
 94 -141 l 1
 48 -121 l 1
 29 -76 l 1
 48 -30 l 1
 70 -21 l 1
 89 153 l 1
 77 158 l 1
 58 204 l 1
 77 250 l 1
 101 260 l 1
 159 772 l 2
 161 790 180 796 191 795 c 0
 209 794 217 781 218 774 c 2
 309 256 l 1
 329 248 l 1
 348 202 l 1
229 228 m 1
 237 248 l 1
 249 253 l 1
 195 560 l 1
 161 253 l 1
 169 250 l 1
 178 228 l 1
 229 228 l 1
EndSplineSet
AlternateSubs2: "Randomize subtable" A.1 A.2 A.3 A.4 A.5 A.6 A.7 A.8 A.9 A.10 A.11 A.12 A.13 A.14 A.15
EndChar

StartChar: B
Encoding: 66 66 33
Width: 410
VWidth: 0
Flags: W
HStem: 21 50<152 224.485>
VStem: 68 58<106 415 469 590>
LayerCount: 2
Fore
SplineSet
219 451 m 1
 333 409 402 281 354 159 c 0
 321 77 238 21 146 21 c 1
 140 7 l 1
 94 -12 l 1
 48 7 l 1
 29 53 l 1
 48 99 l 1
 64 106 l 1
 68 591 l 1
 52 597 l 1
 33 643 l 1
 52 689 l 1
 98 708 l 1
 144 689 l 1
 163 643 l 1
 363 555 l 2
 365 554 371 552 376 544 c 0
 381 536 382 519 363 511 c 2
 219 451 l 1
126 415 m 2
 124 105 l 1
 140 99 l 1
 152 71 l 1
 214 73 272 111 297 175 c 0
 303 190 306 206 308 225 c 0
 317 327 239 410 147 415 c 1
 129 415 l 2
 128 415 127 415 126 415 c 2
127 469 m 1
 283 534 l 1
 141 596 l 1
 128 590 l 1
 127 469 l 1
EndSplineSet
AlternateSubs2: "Randomize subtable" B.1 B.2 B.3 B.4 B.5 B.6 B.7 B.8 B.9 B.10 B.11 B.12 B.13 B.14 B.15
EndChar

StartChar: C
Encoding: 67 67 34
Width: 406
VWidth: 0
Flags: W
LayerCount: 2
Fore
SplineSet
375 140 m 1
 356 94 l 1
 347 90 l 1
 343 41 309 -5 252 -21 c 1
 128 -52 62 60 41 163 c 0
 38 179 35 195 33 214 c 0
 20 371 44 559 205 628 c 0
 214 632 223 635 233 638 c 1
 245 667 l 1
 291 686 l 1
 337 667 l 1
 356 621 l 1
 337 575 l 1
 291 556 l 1
 245 575 l 1
 240 587 l 1
 237 586 235 585 232 584 c 0
 112 533 80 375 93 218 c 0
 94 201 97 185 100 171 c 0
 121 71 171 17 225 25 c 0
 229 26 231 25 233 26 c 0
 258 33 279 57 285 85 c 1
 264 94 l 1
 245 140 l 1
 264 186 l 1
 310 205 l 1
 356 186 l 1
 375 140 l 1
EndSplineSet
AlternateSubs2: "Randomize subtable" C.1 C.2 C.3 C.4 C.5 C.6 C.7 C.8 C.9 C.10 C.11 C.12 C.13 C.14 C.15
EndChar

StartChar: D
Encoding: 68 68 35
Width: 446
VWidth: 0
Flags: W
HStem: -44 21G<111 203> 723 20G<48 140>
LayerCount: 2
Fore
SplineSet
222 21 m 1
 203 -25 l 1
 157 -44 l 1
 111 -25 l 1
 92 21 l 1
 111 67 l 1
 122 72 l 1
 69 623 l 1
 48 632 l 1
 29 678 l 1
 48 724 l 1
 94 743 l 1
 140 724 l 1
 152 695 l 1
 293 662 398 543 412 398 c 0
 426 248 353 101 221 23 c 1
 222 21 l 1
129 627 m 1
 182 76 l 1
 195 70 l 1
 302 138 365 263 353 394 c 0
 341 518 253 614 145 644 c 1
 140 632 l 1
 129 627 l 1
EndSplineSet
AlternateSubs2: "Randomize subtable" D.1 D.2 D.3 D.4 D.5 D.6 D.7 D.8 D.9 D.10 D.11 D.12 D.13 D.14 D.15
EndChar

StartChar: E
Encoding: 69 69 36
Width: 369
VWidth: 0
Flags: W
HStem: 481 20G<193 285> 775 20G<54.5 65>
VStem: 30 63<172.667 392 518 723> 39 60<25 392 518 599.333>
LayerCount: 2
Fore
SplineSet
304 436 m 1xd0
 285 390 l 1
 239 371 l 1
 193 390 l 1
 181 419 l 1
 151 423 l 1
 145 409 l 1
 99 390 l 1
 95 392 l 1
 99 25 l 1
 220 17 l 1
 227 34 l 1
 273 53 l 1
 319 34 l 1
 338 -12 l 1
 319 -58 l 1
 273 -77 l 1
 227 -58 l 1
 217 -33 l 1
 66 -23 l 2
 47 -22 39 -7 39 2 c 2xd0
 30 770 l 2
 30 788 49 795 60 795 c 0
 70 795 76 792 77 791 c 2
 223 709 l 1
 258 724 l 1
 304 705 l 1
 323 659 l 1
 304 613 l 1
 258 594 l 1
 212 613 l 1
 193 659 l 1
 195 664 l 1
 91 723 l 1
 93 518 l 1xe0
 99 520 l 1
 145 501 l 1
 157 473 l 1
 187 469 l 1
 193 482 l 1
 239 501 l 1
 285 482 l 1
 304 436 l 1xd0
EndSplineSet
AlternateSubs2: "Randomize subtable" E.1 E.2 E.3 E.4 E.5 E.6 E.7 E.8 E.9 E.10 E.11 E.12 E.13 E.14 E.15
EndChar

StartChar: F
Encoding: 70 70 37
Width: 412
VWidth: 0
Flags: W
HStem: 436 20G<236 328>
VStem: 65 60<68 323> 73 59<217 323 465 629.889> 83 58<465 677>
LayerCount: 2
Fore
SplineSet
347 391 m 1x90
 328 345 l 1
 305 336 l 1
 290 306 259 283 213 287 c 0
 181 290 153 303 132 323 c 1xa0
 125 67 l 1
 140 61 l 1
 159 15 l 1
 140 -31 l 1
 94 -50 l 1
 48 -31 l 1
 29 15 l 1
 48 61 l 1
 65 68 l 1xc0
 73 366 l 1xa0
 57 406 l 1
 76 451 l 1
 83 725 l 2
 83 743 102 749 113 749 c 0
 123 749 129 744 130 744 c 2
 282 655 l 1
 316 669 l 1
 362 650 l 1
 381 604 l 1
 362 558 l 1
 316 539 l 1
 270 558 l 1
 251 604 l 1
 254 611 l 1
 141 677 l 1
 136 465 l 1
 167 452 l 1
 187 406 l 1
 169 364 l 1
 182 348 201 339 219 337 c 1
 227 337 l 2
 231 338 236 340 240 343 c 1
 236 345 l 1
 217 391 l 1
 236 437 l 1
 282 456 l 1
 328 437 l 1
 347 391 l 1x90
EndSplineSet
AlternateSubs2: "Randomize subtable" F.1 F.2 F.3 F.4 F.5 F.6 F.7 F.8 F.9 F.10 F.11 F.12 F.13 F.14 F.15
EndChar

StartChar: G
Encoding: 71 71 38
Width: 408
VWidth: 0
Flags: W
HStem: 487 21G<266 358> 680 50<160.931 264.083>
VStem: 31 60<149.233 563.279> 284 60<53 257>
LayerCount: 2
Fore
SplineSet
374 0 m 1
 355 -46 l 1
 309 -65 l 1
 263 -46 l 1
 256 -28 l 1
 237 -29 l 2
 81 -37 47 121 36 260 c 0
 34 292 32 326 31 361 c 0
 28 516 47 729 208 730 c 0
 296 730 351 669 352 601 c 1
 358 598 l 1
 377 552 l 1
 358 506 l 1
 312 487 l 1
 266 506 l 1
 247 552 l 1
 266 598 l 1
 292 609 l 1
 286 648 251 680 209 680 c 0
 128 679 88 536 91 362 c 0
 92 328 93 294 95 263 c 0
 107 111 147 16 233 21 c 0
 234 21 242 21 253 22 c 1
 263 46 l 1
 280 53 l 1
 284 257 l 1
 245 250 l 1
 232 219 l 1
 186 200 l 1
 140 219 l 1
 121 265 l 1
 140 311 l 1
 186 330 l 1
 232 311 l 1
 237 300 l 1
 308 313 l 2
 329 317 342 303 344 294 c 0
 344 292 344 290 344 288 c 2
 340 52 l 1
 355 46 l 1
 374 0 l 1
EndSplineSet
AlternateSubs2: "Randomize subtable" G.1 G.2 G.3 G.4 G.5 G.6 G.7 G.8 G.9 G.10 G.11 G.12 G.13 G.14 G.15
EndChar

StartChar: H
Encoding: 72 72 39
Width: 521
VWidth: 0
Flags: W
HStem: 431 20G<160 233> 749 20G<107 199>
VStem: 383 60<32 399 451 639.858>
LayerCount: 2
Fore
SplineSet
490 697 m 1
 471 651 l 1
 451 643 l 1
 446 576 443 507 441 438 c 1
 443 433 440 427 440 422 c 0
 437 294 440 163 443 32 c 1
 460 25 l 1
 479 -21 l 1
 460 -67 l 1
 414 -86 l 1
 368 -67 l 1
 349 -21 l 1
 368 25 l 1
 383 31 l 1
 380 154 378 278 380 399 c 1
 246 373 l 1
 233 340 l 1
 187 321 l 1
 151 336 l 1
 128 74 l 1
 140 69 l 1
 159 23 l 1
 140 -23 l 1
 94 -42 l 1
 48 -23 l 1
 29 23 l 1
 48 69 l 1
 69 77 l 1
 118 653 l 1
 107 658 l 1
 88 704 l 1
 107 750 l 1
 153 769 l 1
 199 750 l 1
 218 704 l 1
 199 658 l 1
 177 649 l 1
 160 440 l 1
 187 451 l 1
 233 432 l 1
 237 422 l 1
 381 451 l 1
 383 517 386 582 391 646 c 1
 379 651 l 1
 360 697 l 1
 379 743 l 1
 425 762 l 1
 471 743 l 1
 490 697 l 1
EndSplineSet
AlternateSubs2: "Randomize subtable" H.1 H.2 H.3 H.4 H.5 H.6 H.7 H.8 H.9 H.10 H.11 H.12 H.13 H.14 H.15
EndChar

StartChar: I
Encoding: 73 73 40
Width: 201
VWidth: 0
Flags: W
HStem: -110 21G<48 140> 745 20G<59 151>
VStem: 67 60<8 229.484> 75 60<11.5625 647>
LayerCount: 2
Fore
SplineSet
170 700 m 1xd0
 151 654 l 1
 136 648 l 1
 136 588 136 527 135 466 c 0
 134 390 136 313 135 233 c 0xd0
 134 158 131 83 127 6 c 1
 140 0 l 1
 159 -45 l 1
 140 -91 l 1
 94 -110 l 1
 48 -91 l 1
 29 -45 l 1
 48 0 l 1
 67 8 l 1xe0
 71 84 74 160 75 234 c 0
 76 313 74 390 75 467 c 0
 76 528 76 588 76 647 c 1
 59 654 l 1
 40 700 l 1
 59 746 l 1
 105 765 l 1
 151 746 l 1
 170 700 l 1xd0
EndSplineSet
AlternateSubs2: "Randomize subtable" I.1 I.2 I.3 I.4 I.5 I.6 I.7 I.8 I.9 I.10 I.11 I.12 I.13 I.14 I.15
EndChar

StartChar: J
Encoding: 74 74 41
Width: 328
VWidth: 0
Flags: W
VStem: 203 60<294.941 534> 219 61<-26 192.059>
LayerCount: 2
Fore
SplineSet
297 587 m 1x80
 278 541 l 1
 263 535 l 1x80
 280 -48 l 2
 280 -64 265 -73 253 -74 c 2
 151 -83 l 1
 140 -108 l 1
 94 -127 l 1
 48 -108 l 1
 29 -62 l 1
 48 -16 l 1
 94 3 l 1
 140 -16 l 1
 147 -32 l 1
 219 -26 l 1x40
 203 534 l 1
 186 541 l 1
 167 587 l 1
 186 633 l 1
 232 652 l 1
 278 633 l 1
 297 587 l 1x80
EndSplineSet
AlternateSubs2: "Randomize subtable" J.1 J.2 J.3 J.4 J.5 J.6 J.7 J.8 J.9 J.10 J.11 J.12 J.13 J.14 J.15
EndChar

StartChar: K
Encoding: 75 75 42
Width: 486
VWidth: 0
Flags: W
VStem: 65 60<284 715> 72 60<35 177 284 715>
LayerCount: 2
Fore
SplineSet
455 13 m 1x80
 436 -33 l 1
 390 -52 l 1
 344 -33 l 1
 325 13 l 1
 326 16 l 1
 298 36 276 62 262 94 c 0
 244 135 230 178 220 223 c 1
 204 185 l 1
 158 166 l 1
 131 177 l 1
 132 35 l 1
 148 28 l 1
 168 -18 l 1
 148 -64 l 1
 103 -83 l 1
 57 -64 l 1
 38 -18 l 1
 57 28 l 1
 72 34 l 1x40
 65 715 l 1
 48 722 l 1
 29 768 l 1
 48 814 l 1
 94 833 l 1
 140 814 l 1
 159 768 l 1
 140 722 l 1
 125 716 l 1
 130 284 l 1
 158 296 l 1
 159 295 l 1
 204 378 l 2
 205 380 207 382 208 384 c 2
 334 617 l 1
 320 650 l 1
 339 696 l 1
 385 715 l 1
 431 696 l 1
 450 650 l 1
 431 604 l 1
 385 585 l 1
 383 586 l 1
 263 365 l 1
 265 276 285 190 319 111 c 0
 328 92 340 75 354 63 c 1
 390 78 l 1
 436 59 l 1
 455 13 l 1x80
211 269 m 1
 209 265 l 1
 214 253 l 1
 213 258 212 264 211 269 c 1
EndSplineSet
AlternateSubs2: "Randomize subtable" K.1 K.2 K.3 K.4 K.5 K.6 K.7 K.8 K.9 K.10 K.11 K.12 K.13 K.14 K.15
EndChar

StartChar: L
Encoding: 76 76 43
Width: 408
VWidth: 0
Flags: W
VStem: 54 61<-42 482.444> 63 60<88.5556 639>
LayerCount: 2
Fore
SplineSet
377 -53 m 1x80
 358 -99 l 1
 312 -118 l 1
 266 -99 l 1
 259 -82 l 1
 87 -94 l 1
 84 -94 l 2
 73 -94 54 -87 54 -69 c 2x80
 63 640 l 1
 48 646 l 1
 29 692 l 1
 48 738 l 1
 94 757 l 1
 140 738 l 1
 159 692 l 1
 140 646 l 1
 123 639 l 1x40
 115 -42 l 1
 256 -32 l 1
 266 -7 l 1
 312 12 l 1
 358 -7 l 1
 377 -53 l 1x80
EndSplineSet
AlternateSubs2: "Randomize subtable" L.1 L.2 L.3 L.4 L.5 L.6 L.7 L.8 L.9 L.10 L.11 L.12 L.13 L.14 L.15
EndChar

StartChar: M
Encoding: 77 77 44
Width: 486
VWidth: 0
Flags: W
VStem: 38 59<771.853 827.993> 361 60<18 271.75> 373 64<416.75 453 626 640.672>
LayerCount: 2
Fore
SplineSet
455 -35 m 1xc0
 435 -81 l 1
 390 -100 l 1
 344 -81 l 1
 325 -35 l 1
 344 11 l 1
 361 18 l 1xc0
 373 453 l 1
 231 97 l 2
 229 92 222 82 207 80 c 0
 196 79 176 83 173 101 c 2
 110 426 l 1
 122 60 l 1
 140 53 l 1
 159 7 l 1
 140 -39 l 1
 94 -58 l 1
 48 -39 l 1
 29 7 l 1
 48 53 l 1
 62 59 l 1
 38 803 l 2
 37 821 56 829 67 829 c 0
 88 829 96 814 97 808 c 2
 213 209 l 1
 379 626 l 2
 386 643 407 645 417 642 c 0
 435 637 437 623 437 618 c 2xa0
 421 17 l 1
 435 11 l 1
 455 -35 l 1xc0
EndSplineSet
AlternateSubs2: "Randomize subtable" M.1 M.2 M.3 M.4 M.5 M.6 M.7 M.8 M.9 M.10 M.11 M.12 M.13 M.14 M.15
EndChar

StartChar: N
Encoding: 78 78 45
Width: 462
VWidth: 0
Flags: W
VStem: 70 58<49 469 627 642.945> 315 58<-11.7598 4 153 207.667> 334 60<405.562 601>
LayerCount: 2
Fore
SplineSet
431 654 m 1xa0
 412 608 l 1
 394 601 l 1xa0
 373 11 l 2
 373 6 370 -7 353 -12 c 0
 343 -15 322 -13 315 4 c 2xc0
 128 469 l 1
 124 48 l 1
 140 42 l 1
 159 -4 l 1
 140 -50 l 1
 94 -69 l 1
 48 -50 l 1
 29 -4 l 1
 48 42 l 1
 65 49 l 1
 70 619 l 2
 70 637 89 644 100 644 c 0
 118 644 126 633 128 627 c 2
 318 153 l 1
 334 602 l 1
 320 608 l 1
 301 654 l 1
 320 700 l 1
 366 719 l 1
 412 700 l 1
 431 654 l 1xa0
EndSplineSet
AlternateSubs2: "Randomize subtable" N.1 N.2 N.3 N.4 N.5 N.6 N.7 N.8 N.9 N.10 N.11 N.12 N.13 N.14 N.15
EndChar

StartChar: O
Encoding: 79 79 46
Width: 411
VWidth: 0
Flags: W
VStem: 32 60<155.556 504.881>
LayerCount: 2
Fore
SplineSet
115 602 m 1
 130 637 l 1
 176 656 l 1
 222 637 l 1
 241 591 l 1
 233 573 l 1
 279 524 318 466 346 403 c 0
 412 255 373 83 247 45 c 0
 225 38 200 35 173 40 c 0
 22 65 28 244 32 372 c 0
 34 449 42 562 115 602 c 1
133 544 m 1
 108 511 94 445 92 371 c 0
 88 226 99 103 184 89 c 0
 201 86 214 88 226 92 c 0
 298 114 352 245 290 385 c 0
 265 440 233 491 194 534 c 1
 176 526 l 1
 133 544 l 1
EndSplineSet
AlternateSubs2: "Randomize subtable" O.1 O.2 O.3 O.4 O.5 O.6 O.7 O.8 O.9 O.10 O.11 O.12 O.13 O.14 O.15
EndChar

StartChar: P
Encoding: 80 80 47
Width: 441
VWidth: 0
Flags: W
VStem: 65 60<-22 287 412 690.9> 75 59<412 782>
LayerCount: 2
Fore
SplineSet
188 350 m 1x40
 169 305 l 1
 129 287 l 1
 125 -23 l 1
 140 -29 l 1
 159 -75 l 1
 140 -121 l 1
 94 -140 l 1
 48 -121 l 1
 29 -75 l 1
 48 -29 l 1
 65 -22 l 1x80
 69 324 l 1
 58 350 l 1
 70 378 l 1
 75 825 l 2
 75 843 94 850 105 850 c 0
 115 850 119 847 120 847 c 2
 395 713 l 2
 414 704 413 686 405 678 c 1
 178 375 l 1
 188 350 l 1x40
130 412 m 1
 134 411 l 1
 338 683 l 1
 134 782 l 1x40
 130 412 l 1
EndSplineSet
AlternateSubs2: "Randomize subtable" P.1 P.2 P.3 P.4 P.5 P.6 P.7 P.8 P.9 P.10 P.11 P.12 P.13 P.14 P.15
EndChar

StartChar: Q
Encoding: 81 81 48
Width: 502
VWidth: 0
Flags: W
HStem: -15 49<257 313.995> 772 20G<174 266>
LayerCount: 2
Fore
SplineSet
435 -81 m 1
 416 -127 l 1
 370 -146 l 1
 362 -143 l 1
 298 -235 l 2
 297 -236 291 -245 278 -247 c 0
 267 -249 247 -245 243 -227 c 2
 195 -9 l 1
 44 26 12 209 39 361 c 0
 60 479 98 596 166 700 c 1
 155 727 l 1
 174 773 l 1
 220 792 l 1
 266 773 l 1
 285 727 l 1
 276 705 l 1
 326 644 369 579 407 507 c 0
 518 297 475 56 314 -3 c 0
 296 -10 277 -14 257 -15 c 1
 287 -151 l 1
 316 -108 l 1
 305 -81 l 1
 324 -35 l 1
 370 -16 l 1
 416 -35 l 1
 435 -81 l 1
248 179 m 1
 229 133 l 1
 225 131 l 1
 246 34 l 1
 262 34 277 37 290 42 c 0
 398 82 459 285 353 487 c 0
 319 552 278 613 234 668 c 1
 220 662 l 1
 212 665 l 1
 153 572 118 463 98 354 c 0
 74 216 106 92 182 50 c 1
 166 121 l 1
 137 133 l 1
 118 179 l 1
 137 225 l 1
 183 244 l 1
 229 225 l 1
 248 179 l 1
EndSplineSet
AlternateSubs2: "Randomize subtable" Q.1 Q.2 Q.3 Q.4 Q.5 Q.6 Q.7 Q.8 Q.9 Q.10 Q.11 Q.12 Q.13 Q.14 Q.15
EndChar

StartChar: R
Encoding: 82 82 49
Width: 469
VWidth: 0
Flags: W
HStem: 216 69<204 297.668>
VStem: 64 61<-27 222 285 694>
LayerCount: 2
Fore
SplineSet
125 285 m 1
 128 285 135 287 144 282 c 0
 239 232 354 308 345 419 c 1
 336 547 257 657 144 705 c 1
 142 701 l 1
 126 694 l 1
 125 285 l 1
438 -23 m 1
 418 -69 l 1
 373 -88 l 1
 327 -69 l 1
 307 -23 l 1
 316 -1 l 1
 125 222 l 1
 124 -27 l 1
 140 -34 l 1
 159 -80 l 1
 140 -126 l 1
 94 -145 l 1
 48 -126 l 1
 29 -80 l 1
 48 -34 l 1
 64 -27 l 1
 66 694 l 1
 50 701 l 1
 31 747 l 1
 50 793 l 1
 96 812 l 1
 142 793 l 1
 158 754 l 1
 300 699 395 568 405 421 c 1
 405 406 l 1
 404 297 311 215 204 216 c 1
 358 36 l 1
 373 42 l 1
 418 23 l 1
 438 -23 l 1
EndSplineSet
AlternateSubs2: "Randomize subtable" R.1 R.2 R.3 R.4 R.5 R.6 R.7 R.8 R.9 R.10 R.11 R.12 R.13 R.14 R.15
EndChar

StartChar: S
Encoding: 83 83 50
Width: 420
VWidth: 0
Flags: W
HStem: 637 48<167.334 240.417>
LayerCount: 2
Fore
SplineSet
389 683 m 1
 370 637 l 1
 324 618 l 1
 278 637 l 1
 274 648 l 1
 218 637 l 1
 214 637 l 2
 210 637 209 636 207 636 c 0
 160 628 123 577 136 522 c 0
 147 478 188 450 232 417 c 0
 304 363 372 292 380 199 c 0
 388 99 323 6 221 -20 c 0
 205 -24 191 -15 186 -9 c 2
 103 105 l 1
 94 101 l 1
 48 120 l 1
 29 166 l 1
 48 211 l 1
 94 231 l 1
 140 211 l 1
 159 166 l 1
 148 139 l 1
 224 35 l 1
 282 60 326 122 320 195 c 0
 314 269 259 329 191 380 c 0
 150 411 93 447 77 512 c 0
 59 587 106 670 195 685 c 0
 198 685 198 685 206 686 c 2
 265 697 l 1
 278 729 l 1
 324 748 l 1
 370 729 l 1
 389 683 l 1
EndSplineSet
AlternateSubs2: "Randomize subtable" S.1 S.2 S.3 S.4 S.5 S.6 S.7 S.8 S.9 S.10 S.11 S.12 S.13 S.14 S.15
EndChar

StartChar: T
Encoding: 84 84 51
Width: 420
VWidth: 0
Flags: W
VStem: 179 61<349.333 706> 188 60<239 627.667>
LayerCount: 2
Fore
SplineSet
284 186 m 1x40
 265 140 l 1
 219 121 l 1
 173 140 l 1
 154 186 l 1
 173 232 l 1
 188 238 l 1x40
 179 739 l 1
 131 765 l 1
 94 750 l 1
 48 769 l 1
 29 815 l 1
 48 861 l 1
 94 880 l 1
 140 861 l 1
 159 815 l 1
 157 810 l 1
 287 740 l 1
 324 755 l 1
 370 736 l 1
 389 690 l 1
 370 644 l 1
 324 625 l 1
 278 644 l 1
 259 690 l 1
 261 694 l 1
 240 706 l 1x80
 248 239 l 1
 265 232 l 1
 284 186 l 1x40
EndSplineSet
AlternateSubs2: "Randomize subtable" T.1 T.2 T.3 T.4 T.5 T.6 T.7 T.8 T.9 T.10 T.11 T.12 T.13 T.14 T.15
EndChar

StartChar: U
Encoding: 85 85 52
Width: 386
VWidth: 0
Flags: W
HStem: -25 50<164.125 240.399>
VStem: 61 60<79.2144 622> 261 61<440 696> 275 60<68.9919 440>
LayerCount: 2
Fore
SplineSet
355 749 m 1xe0
 336 703 l 1
 322 697 l 1xe0
 335 184 l 2
 337 101 316 -24 208 -25 c 0
 205 -25 201 -25 194 -24 c 0
 79 -11 60 115 61 208 c 2
 64 623 l 1
 48 629 l 1
 29 675 l 1
 48 721 l 1
 94 740 l 1
 140 721 l 1
 159 675 l 1
 140 629 l 1
 124 622 l 1
 121 208 l 2
 120 107 150 32 202 26 c 0
 205 26 207 25 208 25 c 0
 243 26 277 91 275 184 c 2xd0
 261 696 l 1
 244 703 l 1
 225 749 l 1
 244 795 l 1
 290 814 l 1
 336 795 l 1
 355 749 l 1xe0
EndSplineSet
AlternateSubs2: "Randomize subtable" U.1 U.2 U.3 U.4 U.5 U.6 U.7 U.8 U.9 U.10 U.11 U.12 U.13 U.14 U.15
EndChar

StartChar: V
Encoding: 86 86 53
Width: 477
VWidth: 0
Flags: W
HStem: 756 20G<48 140 335 427>
LayerCount: 2
Fore
SplineSet
446 704 m 1
 427 658 l 1
 399 646 l 1
 259 57 l 2
 258 53 252 40 235 37 c 0
 224 35 204 40 200 58 c 2
 75 654 l 1
 48 665 l 1
 29 711 l 1
 48 757 l 1
 94 776 l 1
 140 757 l 1
 159 711 l 1
 140 665 l 1
 135 663 l 1
 232 199 l 1
 340 656 l 1
 335 658 l 1
 316 704 l 1
 335 750 l 1
 381 769 l 1
 427 750 l 1
 446 704 l 1
EndSplineSet
AlternateSubs2: "Randomize subtable" V.1 V.2 V.3 V.4 V.5 V.6 V.7 V.8 V.9 V.10 V.11 V.12 V.13 V.14 V.15
EndChar

StartChar: W
Encoding: 87 87 54
Width: 541
VWidth: 0
Flags: W
VStem: 204 60<-85.1367 -27.7385> 264 60<487.324 577.86>
LayerCount: 2
Fore
SplineSet
510 657 m 1x40
 491 611 l 1
 469 602 l 1
 389 -86 l 2
 388 -93 380 -108 361 -109 c 0
 350 -110 331 -104 329 -86 c 2
 295 252 l 1
 264 -63 l 2
 263 -70 256 -84 238 -86 c 0
 227 -87 207 -83 204 -65 c 2x80
 74 627 l 1
 48 638 l 1
 29 684 l 1
 48 730 l 1
 94 749 l 1
 140 730 l 1
 159 684 l 1
 140 638 l 1
 134 635 l 1
 224 151 l 1
 264 556 l 2
 266 574 286 580 297 579 c 0
 316 578 323 564 324 556 c 2
 361 193 l 1
 409 607 l 1
 399 611 l 1
 380 657 l 1
 399 703 l 1
 445 722 l 1
 491 703 l 1
 510 657 l 1x40
EndSplineSet
AlternateSubs2: "Randomize subtable" W.1 W.2 W.3 W.4 W.5 W.6 W.7 W.8 W.9 W.10 W.11 W.12 W.13 W.14 W.15
EndChar

StartChar: X
Encoding: 88 88 55
Width: 462
VWidth: 0
Flags: W
HStem: 753 20G<59 151>
LayerCount: 2
Fore
SplineSet
377 684 m 1
 358 638 l 1
 324 624 l 1
 253 402 l 1
 375 83 l 1
 412 68 l 1
 431 22 l 1
 412 -24 l 1
 366 -43 l 1
 320 -24 l 1
 301 22 l 1
 318 64 l 1
 224 311 l 1
 140 46 l 1
 159 0 l 1
 140 -46 l 1
 94 -65 l 1
 48 -46 l 1
 29 0 l 1
 48 46 l 1
 82 60 l 1
 190 400 l 1
 97 646 l 1
 59 662 l 1
 40 708 l 1
 59 754 l 1
 105 773 l 1
 151 754 l 1
 170 708 l 1
 152 665 l 1
 219 491 l 1
 266 638 l 1
 247 684 l 1
 266 730 l 1
 312 749 l 1
 358 730 l 1
 377 684 l 1
EndSplineSet
AlternateSubs2: "Randomize subtable" X.1 X.2 X.3 X.4 X.5 X.6 X.7 X.8 X.9 X.10 X.11 X.12 X.13 X.14 X.15
EndChar

StartChar: Y
Encoding: 89 89 56
Width: 540
VWidth: 0
Flags: W
HStem: 765 20G<398 489>
VStem: 254 60<58 339>
LayerCount: 2
Fore
SplineSet
348 5 m 1
 329 -41 l 1
 283 -60 l 1
 237 -41 l 1
 218 5 l 1
 237 51 l 1
 254 58 l 1
 259 339 l 1
 101 577 l 1
 94 574 l 1
 48 593 l 1
 29 639 l 1
 48 685 l 1
 94 704 l 1
 140 685 l 1
 159 639 l 1
 147 610 l 1
 283 407 l 1
 395 680 l 1
 378 720 l 1
 398 766 l 1
 444 785 l 1
 489 766 l 1
 509 720 l 1
 489 674 l 1
 450 657 l 1
 319 339 l 1
 314 57 l 1
 329 51 l 1
 348 5 l 1
EndSplineSet
AlternateSubs2: "Randomize subtable" Y.1 Y.2 Y.3 Y.4 Y.5 Y.6 Y.7 Y.8 Y.9 Y.10 Y.11 Y.12 Y.13 Y.14 Y.15
EndChar

StartChar: Z
Encoding: 90 90 57
Width: 472
VWidth: 0
Flags: W
HStem: -44 21G<331 422>
LayerCount: 2
Fore
SplineSet
441 21 m 1
 422 -25 l 1
 376 -44 l 1
 331 -25 l 1
 327 -17 l 1
 227 -40 l 1
 211 -40 186 -36 189 -13 c 2
 284 748 l 1
 157 678 l 1
 159 673 l 1
 140 627 l 1
 94 608 l 1
 48 627 l 1
 29 673 l 1
 48 719 l 1
 94 738 l 1
 130 723 l 1
 304 819 l 2
 329 833 350 814 350 796 c 1
 254 19 l 1
 316 33 l 1
 331 67 l 1
 376 86 l 1
 422 67 l 1
 441 21 l 1
EndSplineSet
AlternateSubs2: "Randomize subtable" Z.1 Z.2 Z.3 Z.4 Z.5 Z.6 Z.7 Z.8 Z.9 Z.10 Z.11 Z.12 Z.13 Z.14 Z.15
EndChar

StartChar: bracketleft
Encoding: 91 91 58
Width: 232
VWidth: 0
Flags: W
HStem: 746 20G<92 184>
VStem: 32 60<46 576.25> 40 60<121.75 652>
LayerCount: 2
Fore
SplineSet
201 -1 m 1xc0
 182 -47 l 1
 136 -66 l 1
 90 -47 l 1
 83 -30 l 1
 65 -31 l 1
 62 -31 l 2
 51 -31 32 -24 32 -6 c 2xc0
 40 717 l 2xa0
 40 732 55 746 78 741 c 2
 89 739 l 1
 92 747 l 1xc0
 138 766 l 1
 184 747 l 1
 203 701 l 1
 184 655 l 1
 138 636 l 1
 100 652 l 1xa0
 92 46 l 1
 136 64 l 1
 182 45 l 1
 201 -1 l 1xc0
EndSplineSet
AlternateSubs2: "Randomize subtable" bracketleft.1 bracketleft.2 bracketleft.3 bracketleft.4 bracketleft.5 bracketleft.6 bracketleft.7
EndChar

StartChar: backslash
Encoding: 92 92 59
Width: 387
VWidth: 0
Flags: W
HStem: 774 20G<47 139>
VStem: 28 331
LayerCount: 2
Fore
SplineSet
359 -42 m 1
 340 -88 l 1
 294 -107 l 1
 248 -88 l 1
 229 -42 l 1
 248 4 l 1
 251 5 l 1
 78 670 l 1
 47 683 l 1
 28 729 l 1
 47 775 l 1
 93 794 l 1
 139 775 l 1
 158 729 l 1
 139 683 l 1
 136 682 l 1
 309 17 l 1
 340 4 l 1
 359 -42 l 1
EndSplineSet
AlternateSubs2: "Randomize subtable" backslash.1 backslash.2 backslash.3 backslash.4 backslash.5 backslash.6 backslash.7
EndChar

StartChar: bracketright
Encoding: 93 93 60
Width: 237
VWidth: 0
Flags: W
VStem: 135 59<328.846 618> 146 61<60 381.154>
LayerCount: 2
Fore
SplineSet
146 60 m 1x40
 135 618 l 1
 94 601 l 1
 48 620 l 1
 29 666 l 1
 48 712 l 1
 94 731 l 1
 139 712 l 1
 150 717 l 2
 169 725 186 713 191 705 c 0
 195 698 194 695 194 695 c 1x80
 207 15 l 2
 207 -1 192 -9 181 -10 c 2
 172 -11 l 1
 161 -38 l 1
 115 -57 l 1
 69 -38 l 1
 50 8 l 1
 69 54 l 1
 115 73 l 1
 146 60 l 1x40
EndSplineSet
AlternateSubs2: "Randomize subtable" bracketright.1 bracketright.2 bracketright.3 bracketright.4 bracketright.5 bracketright.6 bracketright.7
EndChar

StartChar: asciicircum
Encoding: 94 94 61
Width: 410
VWidth: 0
Flags: W
HStem: 462 20G<49 102>
LayerCount: 2
Fore
SplineSet
380 431 m 1
 361 385 l 1
 315 366 l 1
 269 385 l 1
 250 431 l 1
 269 477 l 1
 277 480 l 1
 255 610 l 1
 148 446 l 1
 160 417 l 1
 141 371 l 1
 95 352 l 1
 49 371 l 1
 30 417 l 1
 49 463 l 1
 95 482 l 1
 102 479 l 1
 245 700 l 2
 255 716 276 714 286 710 c 0
 298 705 300 696 301 692 c 2
 336 487 l 1
 361 477 l 1
 380 431 l 1
EndSplineSet
AlternateSubs2: "Randomize subtable" asciicircum.1 asciicircum.2 asciicircum.3 asciicircum.4 asciicircum.5 asciicircum.6 asciicircum.7
EndChar

StartChar: underscore
Encoding: 95 95 62
Width: 502
VWidth: 0
Flags: W
HStem: -162 50<160 341>
LayerCount: 2
Fore
SplineSet
462 -138 m 1
 442 -184 l 1
 397 -203 l 1
 351 -184 l 1
 341 -162 l 1
 159 -159 l 1
 151 -179 l 1
 105 -198 l 1
 59 -179 l 1
 40 -133 l 1
 59 -87 l 1
 105 -68 l 1
 151 -87 l 1
 160 -109 l 1
 342 -112 l 1
 351 -92 l 1
 397 -73 l 1
 442 -92 l 1
 462 -138 l 1
EndSplineSet
AlternateSubs2: "Randomize subtable" underscore.1 underscore.2 underscore.3 underscore.4 underscore.5 underscore.6 underscore.7
EndChar

StartChar: grave
Encoding: 96 96 63
Width: 225
VWidth: 0
Flags: W
HStem: 555 226
VStem: 32 160
LayerCount: 2
Fore
SplineSet
192 620 m 1
 173 574 l 1
 127 555 l 1
 81 574 l 1
 62 620 l 1
 78 659 l 1
 51 670 l 1
 32 716 l 1
 51 762 l 1
 97 781 l 1
 143 762 l 1
 162 716 l 1
 146 677 l 1
 173 666 l 1
 192 620 l 1
EndSplineSet
AlternateSubs2: "Randomize subtable" grave.1 grave.2 grave.3 grave.4 grave.5 grave.6 grave.7
EndChar

StartChar: a
Encoding: 97 97 64
Width: 455
VWidth: 0
Flags: W
HStem: 114 50<202 272>
LayerCount: 2
Fore
SplineSet
424 45 m 1
 405 -1 l 1
 359 -20 l 1
 313 -1 l 1
 294 45 l 1
 310 84 l 1
 281 96 l 1
 273 115 l 1
 202 114 l 1
 193 91 l 1
 147 72 l 1
 142 74 l 1
 137 55 l 1
 140 54 l 1
 159 8 l 1
 140 -38 l 1
 94 -57 l 1
 48 -38 l 1
 29 8 l 1
 48 54 l 1
 80 67 l 1
 92 113 l 1
 82 137 l 1
 101 183 l 1
 112 188 l 1
 188 468 l 2
 197 498 242 486 246 469 c 1
 336 203 l 1
 373 188 l 1
 392 142 l 1
 376 103 l 1
 405 90 l 1
 424 45 l 1
272 165 m 1
 280 185 l 1
 220 361 l 1
 174 191 l 1
 193 183 l 1
 201 164 l 1
 272 165 l 1
EndSplineSet
AlternateSubs2: "Randomize subtable" a.1 a.2 a.3 a.4 a.5 a.6 a.7 a.8 a.9 a.10 a.11 a.12 a.13 a.14 a.15 a.16 a.17 a.18 a.19 a.20 a.21 a.22 a.23 a.24 a.25 a.26 a.27 a.28 a.29 a.30 a.31
EndChar

StartChar: b
Encoding: 98 98 65
Width: 413
VWidth: 0
Flags: W
HStem: 229 64<126.272 194.2> 454 20G<48 140>
VStem: 64 61<30 229 283 356>
LayerCount: 2
Fore
SplineSet
223 239 m 1
 127 229 l 2
 126 229 126 229 125 229 c 2
 127 30 l 1
 143 23 l 1
 162 -23 l 1
 161 -26 l 1
 203 -37 247 -24 279 7 c 0
 300 27 316 56 320 93 c 0
 327 166 279 223 223 239 c 1
315 248 m 1
 360 210 386 152 380 89 c 0
 375 42 354 2 324 -26 c 0
 276 -71 204 -90 138 -71 c 1
 97 -88 l 1
 51 -69 l 1
 32 -23 l 1
 51 23 l 1
 67 29 l 1
 64 356 l 1
 48 363 l 1
 29 409 l 1
 48 455 l 1
 94 474 l 1
 140 455 l 1
 159 409 l 1
 156 402 l 1
 333 293 l 1
 349 285 352 251 319 248 c 2
 315 248 l 1
229 289 m 1
 237 290 l 1
 127 358 l 1
 124 357 l 1
 125 283 l 1
 152 292 188 294 201 293 c 0
 211 292 220 291 229 289 c 1
EndSplineSet
AlternateSubs2: "Randomize subtable" b.1 b.2 b.3 b.4 b.5 b.6 b.7 b.8 b.9 b.10 b.11 b.12 b.13 b.14 b.15 b.16 b.17 b.18 b.19 b.20 b.21 b.22 b.23 b.24 b.25 b.26 b.27 b.28 b.29 b.30 b.31
EndChar

StartChar: c
Encoding: 99 99 66
Width: 451
VWidth: 0
Flags: W
LayerCount: 2
Fore
SplineSet
420 84 m 1
 401 38 l 1
 355 19 l 1
 354 19 l 1
 337 -1 313 -16 284 -24 c 0
 173 -53 90 31 54 127 c 0
 44 154 36 185 32 219 c 0
 16 365 83 526 222 536 c 1
 352 544 418 433 392 340 c 1
 407 304 l 1
 388 258 l 1
 342 239 l 1
 296 258 l 1
 277 304 l 1
 296 349 l 1
 337 367 l 1
 344 422 308 473 259 484 c 0
 247 487 236 487 227 486 c 0
 149 480 76 366 92 224 c 0
 95 194 102 166 111 142 c 0
 146 50 207 9 266 24 c 0
 281 28 294 37 305 48 c 1
 290 84 l 1
 309 130 l 1
 355 149 l 1
 401 130 l 1
 420 84 l 1
EndSplineSet
AlternateSubs2: "Randomize subtable" c.1 c.2 c.3 c.4 c.5 c.6 c.7 c.8 c.9 c.10 c.11 c.12 c.13 c.14 c.15 c.16 c.17 c.18 c.19 c.20 c.21 c.22 c.23 c.24 c.25 c.26 c.27 c.28 c.29 c.30 c.31
EndChar

StartChar: d
Encoding: 100 100 67
Width: 468
VWidth: 0
Flags: W
HStem: -11 50<152 253.111>
VStem: 66 60<76 231.267> 81 60<255.733 411> 375 60<163.312 348.992>
LayerCount: 2
Fore
SplineSet
163 502 m 1xb0
 267 512 365 455 409 368 c 0
 427 334 437 293 435 248 c 0
 429 102 305 -16 151 -11 c 1
 145 -11 l 1
 140 -24 l 1
 94 -43 l 1
 48 -24 l 1
 29 22 l 1
 48 68 l 1
 66 76 l 1xd0
 81 413 l 1
 67 419 l 1
 48 465 l 1
 67 511 l 1
 113 530 l 1
 159 511 l 1
 163 502 l 1xb0
141 411 m 1xb0
 126 74 l 1xd0
 140 68 l 1
 152 39 l 2
 153 39 l 0
 265 35 370 124 375 250 c 0
 377 288 368 321 354 349 c 0
 318 419 247 458 173 452 c 1
 159 419 l 1
 141 411 l 1xb0
EndSplineSet
AlternateSubs2: "Randomize subtable" d.1 d.2 d.3 d.4 d.5 d.6 d.7 d.8 d.9 d.10 d.11 d.12 d.13 d.14 d.15 d.16 d.17 d.18 d.19 d.20 d.21 d.22 d.23 d.24 d.25 d.26 d.27 d.28 d.29 d.30 d.31
EndChar

StartChar: e
Encoding: 101 101 68
Width: 407
VWidth: 0
Flags: W
HStem: 450 20G<95.5 102.5 256 348>
VStem: 83 59<195.909 218 336 393.222> 94 59<4 129.636>
LayerCount: 2
Fore
SplineSet
344 243 m 1xa0
 325 197 l 1
 279 178 l 1
 233 197 l 1
 220 229 l 1
 144 243 l 1
 142 236 l 1xc0
 153 4 l 1
 254 14 l 1
 265 41 l 1
 311 60 l 1
 356 41 l 1
 376 -5 l 1
 356 -51 l 1
 311 -70 l 1
 265 -51 l 1
 259 -36 l 1
 128 -49 l 2
 107 -51 95 -36 94 -27 c 1
 94 -25 l 1xa0
 83 218 l 1xc0
 48 232 l 1
 29 278 l 1
 48 323 l 1
 77 336 l 1
 72 444 l 2
 71 462 90 470 101 470 c 0
 104 470 107 469 109 469 c 2
 252 441 l 1
 256 452 l 1
 302 471 l 1
 348 452 l 1
 367 406 l 1
 348 360 l 1
 302 341 l 1
 256 360 l 1
 243 392 l 1
 133 413 l 1
 137 324 l 1
 140 323 l 1
 153 292 l 1
 229 278 l 1
 233 289 l 1
 279 308 l 1
 325 289 l 1
 344 243 l 1xa0
EndSplineSet
AlternateSubs2: "Randomize subtable" e.1 e.2 e.3 e.4 e.5 e.6 e.7 e.8 e.9 e.10 e.11 e.12 e.13 e.14 e.15 e.16 e.17 e.18 e.19 e.20 e.21 e.22 e.23 e.24 e.25 e.26 e.27 e.28 e.29 e.30 e.31
EndChar

StartChar: f
Encoding: 102 102 69
Width: 386
VWidth: 0
Flags: W
HStem: 455 20G<99.5 106 244 336>
VStem: 54 74<136.234 183> 65 60<55 82 129.753 136 289 388.667> 75 59<289 418>
LayerCount: 2
Fore
SplineSet
342 281 m 1xc0
 323 235 l 1
 321 234 l 1
 327 171 292 106 222 81 c 0
 218 80 213 78 206 76 c 0
 177 68 149 72 126 82 c 1
 125 54 l 1
 140 48 l 1
 159 2 l 1
 140 -44 l 1
 94 -63 l 1
 48 -44 l 1
 29 2 l 1
 48 48 l 1
 65 55 l 1xa0
 67 136 l 1
 65 141 63 145 61 150 c 0
 57 162 54 175 54 188 c 1xc0
 52 189 l 1
 33 235 l 1
 52 281 l 1
 71 289 l 1
 75 450 l 2
 75 468 94 475 105 475 c 0
 107 475 109 475 112 474 c 2
 240 446 l 1
 244 456 l 1
 290 475 l 1
 336 456 l 1
 355 410 l 1
 336 364 l 1
 290 345 l 1
 244 364 l 1
 231 397 l 1
 134 418 l 1x90
 131 286 l 1
 144 281 l 1
 163 235 l 1
 144 189 l 1
 128 183 l 1
 127 147 l 1
 144 124 173 115 198 127 c 1
 236 141 262 180 262 222 c 1
 231 235 l 1
 212 281 l 1
 231 327 l 1
 277 346 l 1
 323 327 l 1
 342 281 l 1xc0
EndSplineSet
AlternateSubs2: "Randomize subtable" f.1 f.2 f.3 f.4 f.5 f.6 f.7 f.8 f.9 f.10 f.11 f.12 f.13 f.14 f.15 f.16 f.17 f.18 f.19 f.20 f.21 f.22 f.23 f.24 f.25 f.26 f.27 f.28 f.29 f.30 f.31
EndChar

StartChar: g
Encoding: 103 103 70
Width: 391
VWidth: 0
Flags: W
HStem: -29 50<146.578 239> 396 50<153.12 239.344>
VStem: 30 60<91.4199 314.692>
LayerCount: 2
Fore
SplineSet
360 0 m 1
 341 -46 l 1
 295 -65 l 1
 249 -46 l 1
 241 -27 l 1
 197 -29 l 2
 78 -34 34 90 30 189 c 0
 25 305 77 443 195 446 c 1
 236 446 269 432 291 409 c 1
 336 390 l 1
 355 344 l 1
 336 298 l 1
 290 279 l 1
 244 298 l 1
 225 344 l 1
 240 380 l 1
 229 390 214 396 197 396 c 0
 144 394 85 308 90 191 c 0
 94 88 141 19 194 21 c 2
 239 23 l 1
 249 46 l 1
 261 51 l 1
 253 162 l 1
 223 158 l 1
 211 130 l 1
 165 111 l 1
 119 130 l 1
 100 176 l 1
 119 222 l 1
 165 241 l 1
 211 222 l 1
 217 208 l 1
 276 215 l 2
 297 218 308 203 310 194 c 0
 310 193 311 193 311 192 c 2
 321 54 l 1
 341 46 l 1
 360 0 l 1
EndSplineSet
AlternateSubs2: "Randomize subtable" g.1 g.2 g.3 g.4 g.5 g.6 g.7 g.8 g.9 g.10 g.11 g.12 g.13 g.14 g.15 g.16 g.17 g.18 g.19 g.20 g.21 g.22 g.23 g.24 g.25 g.26 g.27 g.28 g.29 g.30 g.31
EndChar

StartChar: h
Encoding: 104 104 71
Width: 463
VWidth: 0
Flags: W
HStem: 454 20G<67 158 304 396>
VStem: 66 60<57 197> 74 59<77 210> 324 57<153.356 222 273 375>
LayerCount: 2
Fore
SplineSet
415 428 m 1xd0
 396 382 l 1
 381 376 l 1
 384 269 389 165 394 60 c 1
 413 52 l 1
 432 6 l 1
 413 -40 l 1
 367 -59 l 1
 321 -40 l 1
 302 6 l 1
 321 52 l 1
 334 58 l 1
 331 113 328 167 326 222 c 1
 164 236 l 1
 157 220 l 1
 133 210 l 1xb0
 126 55 l 1
 140 49 l 1
 159 4 l 1
 140 -42 l 1
 94 -61 l 1
 48 -42 l 1
 29 4 l 1
 48 49 l 1
 66 57 l 1xd0
 74 217 l 1xb0
 66 220 l 1
 47 266 l 1
 66 312 l 1
 79 317 l 1
 81 357 l 1
 67 363 l 1
 47 409 l 1
 67 455 l 1
 112 474 l 1
 158 455 l 1
 177 409 l 1
 158 363 l 1
 140 355 l 1
 138 320 l 1
 157 312 l 1
 168 286 l 1
 324 273 l 1
 323 307 322 341 321 375 c 1
 304 382 l 1
 285 428 l 1
 304 474 l 1
 350 493 l 1
 396 474 l 1
 415 428 l 1xd0
EndSplineSet
AlternateSubs2: "Randomize subtable" h.1 h.2 h.3 h.4 h.5 h.6 h.7 h.8 h.9 h.10 h.11 h.12 h.13 h.14 h.15 h.16 h.17 h.18 h.19 h.20 h.21 h.22 h.23 h.24 h.25 h.26 h.27 h.28 h.29 h.30 h.31
EndChar

StartChar: i
Encoding: 105 105 72
Width: 196
VWidth: 0
Flags: W
HStem: 465 20G<54 146>
VStem: 70 58<90.7969 367>
LayerCount: 2
Fore
SplineSet
165 420 m 1
 146 374 l 1
 131 368 l 1
 131 339 131 310 130 280 c 0
 129 217 131 151 128 87 c 1
 140 82 l 1
 159 36 l 1
 140 -10 l 1
 94 -29 l 1
 48 -10 l 1
 29 36 l 1
 48 82 l 1
 68 90 l 1
 69 107 70 124 70 140 c 0
 71 187 69 234 70 280 c 0
 71 309 71 338 71 367 c 1
 54 374 l 1
 35 420 l 1
 54 466 l 1
 100 485 l 1
 146 466 l 1
 165 420 l 1
EndSplineSet
AlternateSubs2: "Randomize subtable" i.1 i.2 i.3 i.4 i.5 i.6 i.7 i.8 i.9 i.10 i.11 i.12 i.13 i.14 i.15 i.16 i.17 i.18 i.19 i.20 i.21 i.22 i.23 i.24 i.25 i.26 i.27 i.28 i.29 i.30 i.31
EndChar

StartChar: j
Encoding: 106 106 73
Width: 313
VWidth: 0
Flags: W
HStem: 448 20G<171 263> 448 20G<171 263>
VStem: 193 61<8 350>
LayerCount: 2
Fore
SplineSet
282 403 m 1xa0
 263 357 l 1
 248 351 l 1
 254 -30 l 2
 254 -48 235 -55 224 -55 c 0
 219 -55 215 -54 212 -53 c 2
 141 -27 l 1
 140 -29 l 1
 94 -48 l 1
 48 -29 l 1
 29 17 l 1
 48 63 l 1
 94 82 l 1
 140 63 l 1
 157 21 l 1
 193 8 l 1
 188 350 l 1
 171 357 l 1
 152 403 l 1
 171 449 l 1
 217 468 l 1
 263 449 l 1
 282 403 l 1xa0
EndSplineSet
AlternateSubs2: "Randomize subtable" j.1 j.2 j.3 j.4 j.5 j.6 j.7 j.8 j.9 j.10 j.11 j.12 j.13 j.14 j.15 j.16 j.17 j.18 j.19 j.20 j.21 j.22 j.23 j.24 j.25 j.26 j.27 j.28 j.29 j.30 j.31
EndChar

StartChar: k
Encoding: 107 107 74
Width: 481
VWidth: 0
Flags: W
LayerCount: 2
Fore
SplineSet
450 34 m 1
 431 -12 l 1
 385 -31 l 1
 339 -12 l 1
 326 19 l 1
 297 30 271 48 252 74 c 0
 219 119 195 169 181 224 c 1
 169 212 l 1
 176 194 l 1
 157 148 l 1
 135 139 l 1
 127 15 l 1
 140 10 l 1
 159 -36 l 1
 140 -82 l 1
 94 -101 l 1
 48 -82 l 1
 29 -36 l 1
 48 10 l 1
 67 18 l 1
 75 144 l 1
 65 148 l 1
 46 194 l 1
 65 240 l 1
 81 247 l 1
 92 422 l 1
 79 427 l 1
 60 473 l 1
 79 519 l 1
 125 538 l 1
 171 519 l 1
 190 473 l 1
 171 427 l 1
 152 419 l 1
 142 265 l 1
 175 298 l 2
 176 300 178 301 180 303 c 2
 320 444 l 1
 312 463 l 1
 331 509 l 1
 377 528 l 1
 423 509 l 1
 442 463 l 1
 423 417 l 1
 377 398 l 1
 359 405 l 1
 231 276 l 1
 240 211 266 151 303 100 c 0
 312 87 323 78 335 71 c 1
 339 80 l 1
 385 99 l 1
 431 80 l 1
 450 34 l 1
EndSplineSet
AlternateSubs2: "Randomize subtable" k.1 k.2 k.3 k.4 k.5 k.6 k.7 k.8 k.9 k.10 k.11 k.12 k.13 k.14 k.15 k.16 k.17 k.18 k.19 k.20 k.21 k.22 k.23 k.24 k.25 k.26 k.27 k.28 k.29 k.30 k.31
EndChar

StartChar: l
Encoding: 108 108 75
Width: 422
VWidth: 0
Flags: W
HStem: 35 51<177 271> 447 20G<48 140> 447 20G<48 140>
LayerCount: 2
Fore
SplineSet
391 64 m 1xc0
 371 18 l 1
 326 -1 l 1
 280 18 l 1
 272 38 l 1
 152 35 l 2
 142 35 125 41 122 57 c 2
 73 346 l 1
 48 356 l 1
 29 402 l 1
 48 448 l 1
 94 467 l 1
 140 448 l 1
 159 402 l 1
 140 356 l 1
 133 353 l 1
 177 86 l 1
 271 88 l 1
 280 110 l 1
 326 129 l 1
 371 110 l 1
 391 64 l 1xc0
EndSplineSet
AlternateSubs2: "Randomize subtable" l.1 l.2 l.3 l.4 l.5 l.6 l.7 l.8 l.9 l.10 l.11 l.12 l.13 l.14 l.15 l.16 l.17 l.18 l.19 l.20 l.21 l.22 l.23 l.24 l.25 l.26 l.27 l.28 l.29 l.30 l.31
EndChar

StartChar: m
Encoding: 109 109 76
Width: 497
VWidth: 0
Flags: W
VStem: 64 60<17 216 352 365.922> 373 60<117 272>
LayerCount: 2
Fore
SplineSet
466 64 m 1
 447 18 l 1
 401 -1 l 1
 355 18 l 1
 336 64 l 1
 355 110 l 1
 373 117 l 1
 378 272 l 1
 277 22 l 1
 273 6 234 -8 221 20 c 2
 126 216 l 1
 124 16 l 1
 140 10 l 1
 159 -36 l 1
 140 -82 l 1
 94 -101 l 1
 48 -82 l 1
 29 -36 l 1
 48 10 l 1
 64 17 l 1
 67 343 l 2
 67 361 86 368 97 368 c 0
 115 368 123 355 125 352 c 2
 246 102 l 1
 385 447 l 2
 392 464 413 465 423 462 c 0
 441 457 443 443 443 438 c 2
 433 116 l 1
 447 110 l 1
 466 64 l 1
EndSplineSet
AlternateSubs2: "Randomize subtable" m.1 m.2 m.3 m.4 m.5 m.6 m.7 m.8 m.9 m.10 m.11 m.12 m.13 m.14 m.15 m.16 m.17 m.18 m.19 m.20 m.21 m.22 m.23 m.24 m.25 m.26 m.27 m.28 m.29 m.30 m.31
EndChar

StartChar: n
Encoding: 110 110 77
Width: 427
VWidth: 0
Flags: W
HStem: 435 20G<109.5 123>
VStem: 67 60<79 223.941> 84 55<286.059 333> 308 55<167 268>
LayerCount: 2
Fore
SplineSet
396 322 m 1xb0
 377 276 l 1
 363 270 l 1
 373 55 l 2
 373 51 371 38 356 32 c 0
 346 28 326 27 316 43 c 2
 139 333 l 1xb0
 127 77 l 1
 140 71 l 1
 159 25 l 1
 140 -21 l 1
 94 -40 l 1
 48 -21 l 1
 29 25 l 1
 48 71 l 1
 67 79 l 1xd0
 84 431 l 2
 85 449 104 455 115 455 c 0
 131 454 138 445 140 441 c 2
 308 167 l 1
 303 268 l 1
 285 276 l 1
 266 322 l 1
 285 368 l 1
 331 387 l 1
 377 368 l 1
 396 322 l 1xb0
EndSplineSet
AlternateSubs2: "Randomize subtable" n.1 n.2 n.3 n.4 n.5 n.6 n.7 n.8 n.9 n.10 n.11 n.12 n.13 n.14 n.15 n.16 n.17 n.18 n.19 n.20 n.21 n.22 n.23 n.24 n.25 n.26 n.27 n.28 n.29 n.30 n.31
EndChar

StartChar: o
Encoding: 111 111 78
Width: 444
VWidth: 0
Flags: W
HStem: 387 20G<143 235>
LayerCount: 2
Fore
SplineSet
247 359 m 1
 287 348 324 325 352 293 c 0
 450 182 419 29 315 -35 c 0
 281 -56 238 -67 190 -61 c 0
 62 -44 12 89 35 207 c 0
 36 213 38 221 41 230 c 0
 54 275 80 328 128 353 c 1
 143 388 l 1
 189 407 l 1
 235 388 l 1
 247 359 l 1
143 296 m 1
 124 279 108 252 99 219 c 0
 71 105 119 -1 200 -12 c 0
 231 -16 257 -9 280 5 c 0
 353 50 384 173 304 264 c 0
 286 285 264 298 240 307 c 1
 235 296 l 1
 189 277 l 1
 143 296 l 1
EndSplineSet
AlternateSubs2: "Randomize subtable" o.1 o.2 o.3 o.4 o.5 o.6 o.7 o.8 o.9 o.10 o.11 o.12 o.13 o.14 o.15 o.16 o.17 o.18 o.19 o.20 o.21 o.22 o.23 o.24 o.25 o.26 o.27 o.28 o.29 o.30 o.31
EndChar

StartChar: p
Encoding: 112 112 79
Width: 438
VWidth: 0
Flags: W
HStem: -45 21G<48 140> 430 20G<87.5 96>
VStem: 64 60<73 114 234 383>
LayerCount: 2
Fore
SplineSet
176 174 m 1
 157 128 l 1
 124 114 l 1
 124 73 l 1
 140 66 l 1
 159 20 l 1
 140 -26 l 1
 94 -45 l 1
 48 -26 l 1
 29 20 l 1
 48 66 l 1
 64 73 l 1
 64 131 l 1
 46 174 l 1
 64 216 l 1
 63 425 l 2
 63 443 82 450 93 450 c 0
 99 450 103 449 107 447 c 2
 391 320 l 2
 410 312 409 295 404 287 c 0
 401 282 396 279 392 277 c 2
 175 175 l 1
 176 174 l 1
123 234 m 1
 153 222 l 1
 315 298 l 1
 123 383 l 1
 123 234 l 1
EndSplineSet
AlternateSubs2: "Randomize subtable" p.1 p.2 p.3 p.4 p.5 p.6 p.7 p.8 p.9 p.10 p.11 p.12 p.13 p.14 p.15 p.16 p.17 p.18 p.19 p.20 p.21 p.22 p.23 p.24 p.25 p.26 p.27 p.28 p.29 p.30 p.31
EndChar

StartChar: q
Encoding: 113 113 80
Width: 474
VWidth: 0
Flags: W
HStem: 412 21G<185 253>
VStem: 30 60<120.528 327.657>
LayerCount: 2
Fore
SplineSet
443 -72 m 1
 424 -118 l 1
 378 -137 l 1
 332 -118 l 1
 327 -107 l 1
 300 -112 l 2
 291 -114 272 -111 266 -96 c 2
 229 -8 l 1
 221 -8 l 1
 94 -7 28 110 30 226 c 0
 30 247 32 268 38 292 c 0
 54 363 93 433 159 475 c 1
 158 477 l 1
 177 523 l 1
 223 542 l 1
 269 523 l 1
 288 477 l 1
 285 469 l 1
 356 415 403 334 412 243 c 0
 421 146 379 38 287 3 c 1
 313 -58 l 1
 319 -57 l 1
 332 -26 l 1
 378 -7 l 1
 424 -26 l 1
 443 -72 l 1
191 82 m 1
 150 99 l 1
 131 145 l 1
 150 190 l 1
 196 210 l 1
 242 190 l 1
 261 145 l 1
 244 105 l 1
 267 52 l 1
 322 78 361 152 352 239 c 0
 344 314 307 379 253 424 c 1
 223 412 l 1
 185 428 l 1
 142 395 111 341 97 282 c 0
 92 261 90 243 90 225 c 0
 88 123 141 52 207 43 c 1
 191 82 l 1
EndSplineSet
AlternateSubs2: "Randomize subtable" q.1 q.2 q.3 q.4 q.5 q.6 q.7 q.8 q.9 q.10 q.11 q.12 q.13 q.14 q.15 q.16 q.17 q.18 q.19 q.20 q.21 q.22 q.23 q.24 q.25 q.26 q.27 q.28 q.29 q.30 q.31
EndChar

StartChar: r
Encoding: 114 114 81
Width: 532
VWidth: 0
Flags: W
HStem: -45 21G<100 192> 427 20G<48 140>
LayerCount: 2
Fore
SplineSet
244 74 m 1
 213 96 l 1
 221 87 232 80 244 74 c 1
150 201 m 1
 162 201 171 195 171 195 c 1
 341 69 l 1
 394 87 441 138 417 223 c 0
 385 339 273 401 168 381 c 1
 158 379 l 1
 140 336 l 1
 131 332 l 1
 150 201 l 1
501 -35 m 1
 482 -81 l 1
 436 -100 l 1
 390 -81 l 1
 371 -35 l 1
 376 -23 l 1
 325 14 l 1
 312 12 299 12 288 12 c 0
 259 13 230 21 205 35 c 1
 211 20 l 1
 192 -26 l 1
 146 -45 l 1
 100 -26 l 1
 81 20 l 1
 100 66 l 1
 108 69 l 1
 72 326 l 1
 48 336 l 1
 29 382 l 1
 48 428 l 1
 94 447 l 1
 140 428 l 1
 140 427 l 1
 145 428 149 429 154 430 c 0
 298 458 438 371 476 234 c 0
 502 139 456 67 389 33 c 1
 409 19 l 1
 436 30 l 1
 482 11 l 1
 501 -35 l 1
EndSplineSet
AlternateSubs2: "Randomize subtable" r.1 r.2 r.3 r.4 r.5 r.6 r.7 r.8 r.9 r.10 r.11 r.12 r.13 r.14 r.15 r.16 r.17 r.18 r.19 r.20 r.21 r.22 r.23 r.24 r.25 r.26 r.27 r.28 r.29 r.30 r.31
EndChar

StartChar: s
Encoding: 115 115 82
Width: 388
VWidth: 0
Flags: W
HStem: 408 20G<270 338>
VStem: 29 328
LayerCount: 2
Fore
SplineSet
357 363 m 1
 338 317 l 1
 292 298 l 1
 246 317 l 1
 227 363 l 1
 233 378 l 1
 198 409 l 1
 174 428 154 426 136 415 c 0
 104 396 89 349 121 313 c 0
 139 292 173 299 227 284 c 0
 297 264 341 206 344 143 c 0
 348 70 298 3 222 -14 c 0
 214 -16 206 -14 202 -13 c 2
 141 9 l 1
 140 7 l 1
 94 -12 l 1
 48 7 l 1
 29 53 l 1
 48 99 l 1
 94 118 l 1
 140 99 l 1
 157 58 l 1
 215 37 l 1
 253 50 287 90 284 141 c 0
 281 187 250 225 208 237 c 0
 182 244 113 236 72 283 c 0
 -18 386 123 537 241 444 c 1
 270 419 l 1
 292 428 l 1
 338 409 l 1
 357 363 l 1
EndSplineSet
AlternateSubs2: "Randomize subtable" s.1 s.2 s.3 s.4 s.5 s.6 s.7 s.8 s.9 s.10 s.11 s.12 s.13 s.14 s.15 s.16 s.17 s.18 s.19 s.20 s.21 s.22 s.23 s.24 s.25 s.26 s.27 s.28 s.29 s.30 s.31
EndChar

StartChar: t
Encoding: 116 116 83
Width: 449
VWidth: 0
Flags: W
HStem: -109 21G<189 281> 472 20G<307 399>
VStem: 194 61<130.1 410> 204 60<9 292.9>
LayerCount: 2
Fore
SplineSet
300 -44 m 1xd0
 281 -90 l 1
 235 -109 l 1
 189 -90 l 1
 170 -44 l 1
 189 2 l 1
 204 8 l 1xd0
 194 415 l 1
 147 419 l 1
 140 403 l 1
 94 384 l 1
 48 403 l 1
 29 449 l 1
 48 495 l 1
 94 514 l 1
 140 495 l 1
 151 469 l 1
 300 457 l 1
 307 473 l 1
 353 492 l 1
 399 473 l 1
 418 427 l 1
 399 381 l 1
 353 362 l 1
 307 381 l 1
 296 407 l 1
 255 410 l 1xe0
 264 9 l 1
 281 2 l 1
 300 -44 l 1xd0
EndSplineSet
AlternateSubs2: "Randomize subtable" t.1 t.2 t.3 t.4 t.5 t.6 t.7 t.8 t.9 t.10 t.11 t.12 t.13 t.14 t.15 t.16 t.17 t.18 t.19 t.20 t.21 t.22 t.23 t.24 t.25 t.26 t.27 t.28 t.29 t.30 t.31
EndChar

StartChar: u
Encoding: 117 117 84
Width: 417
VWidth: 0
Flags: W
HStem: 478 20G<275 367>
VStem: 59 60<72.8665 284> 283 59<36 216.624> 290 60<153.861 380>
LayerCount: 2
Fore
SplineSet
386 433 m 1xd0
 367 387 l 1
 350 380 l 1xd0
 348 264 342 0 342 -2 c 0
 342 -9 352 -66 300 -63 c 0
 248 -60 217 37 202 51 c 1
 193 49 138 5 90 22 c 0
 68 30 59 47 59 77 c 2
 63 285 l 1
 48 291 l 1
 29 337 l 1
 48 383 l 1
 94 402 l 1
 140 383 l 1
 159 337 l 1
 140 291 l 1
 123 284 l 1
 119 76 l 1
 119 72 l 1
 138 79 182 113 225 98 c 0
 258 87 271 56 283 36 c 1xe0
 290 381 l 1
 275 387 l 1
 256 433 l 1
 275 479 l 1
 321 498 l 1
 367 479 l 1
 386 433 l 1xd0
EndSplineSet
AlternateSubs2: "Randomize subtable" u.1 u.2 u.3 u.4 u.5 u.6 u.7 u.8 u.9 u.10 u.11 u.12 u.13 u.14 u.15 u.16 u.17 u.18 u.19 u.20 u.21 u.22 u.23 u.24 u.25 u.26 u.27 u.28 u.29 u.30 u.31
EndChar

StartChar: v
Encoding: 118 118 85
Width: 479
VWidth: 0
Flags: W
HStem: 475 20G<48 140 337 429>
LayerCount: 2
Fore
SplineSet
448 361 m 1
 429 315 l 1
 390 299 l 1
 262 -19 l 2
 261 -23 256 -32 242 -35 c 0
 231 -37 210 -35 205 -18 c 2
 82 370 l 1
 48 384 l 1
 29 430 l 1
 48 476 l 1
 94 495 l 1
 140 476 l 1
 159 430 l 1
 140 384 l 1
 237 76 l 1
 335 320 l 1
 318 361 l 1
 337 407 l 1
 383 426 l 1
 429 407 l 1
 448 361 l 1
EndSplineSet
AlternateSubs2: "Randomize subtable" v.1 v.2 v.3 v.4 v.5 v.6 v.7 v.8 v.9 v.10 v.11 v.12 v.13 v.14 v.15 v.16 v.17 v.18 v.19 v.20 v.21 v.22 v.23 v.24 v.25 v.26 v.27 v.28 v.29 v.30 v.31
EndChar

StartChar: w
Encoding: 119 119 86
Width: 573
VWidth: 0
Flags: W
HStem: 458 20G<431 523>
LayerCount: 2
Fore
SplineSet
542 413 m 1
 523 367 l 1
 492 354 l 1
 400 0 l 2
 399 -4 393 -16 377 -19 c 0
 366 -21 346 -17 341 0 c 2
 276 240 l 1
 167 13 l 2
 165 9 159 -1 143 -3 c 0
 132 -4 113 1 110 19 c 2
 72 279 l 1
 48 289 l 1
 29 335 l 1
 48 381 l 1
 94 400 l 1
 140 381 l 1
 159 335 l 1
 140 289 l 1
 132 286 l 1
 155 122 l 1
 257 333 l 2
 265 350 286 350 296 347 c 0
 310 342 313 332 314 329 c 2
 370 121 l 1
 434 366 l 1
 431 367 l 1
 412 413 l 1
 431 459 l 1
 477 478 l 1
 523 459 l 1
 542 413 l 1
EndSplineSet
AlternateSubs2: "Randomize subtable" w.1 w.2 w.3 w.4 w.5 w.6 w.7 w.8 w.9 w.10 w.11 w.12 w.13 w.14 w.15 w.16 w.17 w.18 w.19 w.20 w.21 w.22 w.23 w.24 w.25 w.26 w.27 w.28 w.29 w.30 w.31
EndChar

StartChar: x
Encoding: 120 120 87
Width: 457
VWidth: 0
Flags: W
HStem: 476 20G<67 159 253 345>
LayerCount: 2
Fore
SplineSet
364 437 m 1
 345 391 l 1
 303 374 l 1
 248 250 l 1
 358 57 l 1
 361 58 l 1
 407 39 l 1
 426 -7 l 1
 407 -53 l 1
 361 -72 l 1
 315 -53 l 1
 296 -7 l 1
 309 25 l 1
 220 184 l 1
 143 10 l 1
 159 -29 l 1
 140 -75 l 1
 94 -94 l 1
 48 -75 l 1
 29 -29 l 1
 48 17 l 1
 90 34 l 1
 184 247 l 1
 116 367 l 1
 113 366 l 1
 67 385 l 1
 48 431 l 1
 67 477 l 1
 113 496 l 1
 159 477 l 1
 178 431 l 1
 164 398 l 1
 213 313 l 1
 250 398 l 1
 234 437 l 1
 253 483 l 1
 299 502 l 1
 345 483 l 1
 364 437 l 1
EndSplineSet
AlternateSubs2: "Randomize subtable" x.1 x.2 x.3 x.4 x.5 x.6 x.7 x.8 x.9 x.10 x.11 x.12 x.13 x.14 x.15 x.16 x.17 x.18 x.19 x.20 x.21 x.22 x.23 x.24 x.25 x.26 x.27 x.28 x.29 x.30 x.31
EndChar

StartChar: y
Encoding: 121 121 88
Width: 431
VWidth: 0
Flags: W
HStem: 434 20G<48 140 289 381> 447 20G<289 381>
LayerCount: 2
Fore
SplineSet
273 -41 m 1x40
 254 -87 l 1
 208 -106 l 1
 162 -87 l 1
 143 -41 l 1
 162 5 l 1
 172 9 l 1
 154 181 l 2
 154 182 154 182 154 183 c 2
 90 326 l 1
 48 343 l 1
 29 389 l 1
 48 435 l 1
 94 454 l 1x80
 140 435 l 1
 159 389 l 1
 143 351 l 1
 190 245 l 1
 282 374 l 1
 270 402 l 1
 289 447 l 1
 335 467 l 1
 381 447 l 1
 400 402 l 1
 381 356 l 1
 335 337 l 1
 327 340 l 1
 214 182 l 1
 232 14 l 1
 254 5 l 1
 273 -41 l 1x40
EndSplineSet
AlternateSubs2: "Randomize subtable" y.1 y.2 y.3 y.4 y.5 y.6 y.7 y.8 y.9 y.10 y.11 y.12 y.13 y.14 y.15 y.16 y.17 y.18 y.19 y.20 y.21 y.22 y.23 y.24 y.25 y.26 y.27 y.28 y.29 y.30 y.31
EndChar

StartChar: z
Encoding: 122 122 89
Width: 395
VWidth: 0
Flags: W
HStem: 425 20G<48 140>
LayerCount: 2
Fore
SplineSet
364 -4 m 1
 345 -50 l 1
 299 -69 l 1
 253 -50 l 1
 238 -13 l 1
 109 24 l 2
 98 27 83 39 90 55 c 2
 218 370 l 1
 151 362 l 1
 140 334 l 1
 94 314 l 1
 48 334 l 1
 29 380 l 1
 48 425 l 1
 94 445 l 1
 140 425 l 1
 146 411 l 1
 258 425 l 2
 282 428 298 409 290 392 c 1
 157 63 l 1
 251 36 l 1
 253 42 l 1
 299 61 l 1
 345 42 l 1
 364 -4 l 1
EndSplineSet
AlternateSubs2: "Randomize subtable" z.1 z.2 z.3 z.4 z.5 z.6 z.7 z.8 z.9 z.10 z.11 z.12 z.13 z.14 z.15 z.16 z.17 z.18 z.19 z.20 z.21 z.22 z.23 z.24 z.25 z.26 z.27 z.28 z.29 z.30 z.31
EndChar

StartChar: braceleft
Encoding: 123 123 90
Width: 382
VWidth: 0
Flags: W
HStem: 391 20G<48 128>
VStem: 120 60<98.779 234.001>
LayerCount: 2
Fore
SplineSet
353 28 m 1
 334 -18 l 1
 288 -37 l 1
 242 -18 l 1
 229 13 l 1
 159 37 120 103 120 167 c 0
 120 204 132 243 164 276 c 1
 129 296 l 1
 94 281 l 1
 48 300 l 1
 29 346 l 1
 48 392 l 1
 94 411 l 1
 128 397 l 1
 173 424 l 1
 86 486 85 606 154 674 c 0
 170 690 191 704 216 712 c 1
 229 742 l 1
 275 761 l 1
 321 742 l 1
 340 696 l 1
 321 650 l 1
 275 631 l 1
 229 650 l 1
 225 660 l 1
 206 650 190 635 180 615 c 0
 147 554 168 474 238 448 c 0
 258 441 258 423 253 415 c 0
 249 408 245 405 244 405 c 2
 156 352 l 1
 159 346 l 1
 157 340 l 1
 228 301 l 2
 250 289 240 268 230 261 c 0
 195 238 180 202 180 167 c 0
 180 122 203 84 238 65 c 1
 242 74 l 1
 288 93 l 1
 334 74 l 1
 353 28 l 1
EndSplineSet
AlternateSubs2: "Randomize subtable" braceleft.1 braceleft.2 braceleft.3 braceleft.4 braceleft.5 braceleft.6 braceleft.7
EndChar

StartChar: braceright
Encoding: 125 125 91
Width: 332
VWidth: 0
Flags: W
HStem: 392 20G<205 284>
VStem: 217 60<71.6938 213.768>
LayerCount: 2
Fore
SplineSet
303 347 m 1
 284 301 l 1
 238 282 l 1
 210 294 l 1
 198 285 l 1
 255 250 277 195 277 144 c 0
 277 77 236 6 160 -18 c 1
 148 -48 l 1
 102 -67 l 1
 56 -48 l 1
 37 -2 l 1
 56 43 l 1
 102 63 l 1
 148 43 l 1
 152 34 l 1
 192 53 217 95 217 144 c 0
 217 193 191 239 136 257 c 0
 131 259 128 260 125 263 c 0
 118 270 111 287 127 299 c 2
 177 337 l 1
 173 347 l 1
 176 354 l 1
 88 408 l 1
 71 416 70 450 103 453 c 0
 166 459 200 512 192 572 c 0
 187 604 171 633 144 648 c 1
 140 639 l 1
 94 620 l 1
 48 639 l 1
 29 685 l 1
 48 731 l 1
 94 750 l 1
 140 731 l 1
 153 701 l 1
 184 690 208 671 224 648 c 0
 275 577 261 465 170 420 c 1
 205 398 l 1
 238 412 l 1
 284 393 l 1
 303 347 l 1
EndSplineSet
AlternateSubs2: "Randomize subtable" braceright.1 braceright.2 braceright.3 braceright.4 braceright.5 braceright.6 braceright.7
EndChar

StartChar: exclamdown
Encoding: 161 161 92
Width: 210
VWidth: 0
Flags: W
HStem: 477 20G<67 159>
VStem: 65 60<-19 154.562> 81 60<205.438 379>
LayerCount: 2
Fore
SplineSet
178 432 m 1xa0
 159 386 l 1
 141 379 l 1xa0
 125 -20 l 1
 139 -26 l 1
 158 -72 l 1
 139 -118 l 1
 93 -137 l 1
 47 -118 l 1
 28 -72 l 1
 47 -26 l 1
 65 -19 l 1xc0
 81 380 l 1
 67 386 l 1
 48 432 l 1
 67 478 l 1
 113 497 l 1
 159 478 l 1
 178 432 l 1xa0
181 628 m 1
 162 582 l 1
 116 563 l 1
 70 582 l 1
 51 628 l 1
 70 674 l 1
 116 693 l 1
 162 674 l 1
 181 628 l 1
EndSplineSet
AlternateSubs2: "Randomize subtable" exclamdown.1 exclamdown.2 exclamdown.3 exclamdown.4 exclamdown.5 exclamdown.6 exclamdown.7
EndChar

StartChar: dieresis
Encoding: 168 168 93
Width: 427
VWidth: 0
Flags: W
HStem: 564 167
LayerCount: 2
Fore
SplineSet
394 666 m 1
 375 620 l 1
 329 601 l 1
 283 620 l 1
 264 666 l 1
 283 712 l 1
 329 731 l 1
 375 712 l 1
 394 666 l 1
164 629 m 1
 145 584 l 1
 99 564 l 1
 53 584 l 1
 34 629 l 1
 53 675 l 1
 99 694 l 1
 145 675 l 1
 164 629 l 1
EndSplineSet
AlternateSubs2: "Randomize subtable" dieresis.1 dieresis.2 dieresis.3 dieresis.4 dieresis.5 dieresis.6 dieresis.7
EndChar

StartChar: macron
Encoding: 175 175 94
Width: 458
VWidth: 0
Flags: W
HStem: 463 151 484 21G<52 144>
LayerCount: 2
Fore
SplineSet
425 528 m 1x80
 406 483 l 1
 360 463 l 1x80
 314 483 l 1
 303 508 l 1
 151 520 l 1
 144 503 l 1
 98 484 l 1x40
 52 503 l 1
 33 549 l 1
 52 595 l 1
 98 614 l 1
 144 595 l 1
 154 570 l 1
 307 557 l 1
 314 574 l 1
 360 594 l 1
 406 574 l 1
 425 528 l 1x80
EndSplineSet
AlternateSubs2: "Randomize subtable" macron.1 macron.2 macron.3 macron.4 macron.5 macron.6 macron.7
EndChar

StartChar: acute
Encoding: 180 180 95
Width: 304
VWidth: 0
Flags: W
HStem: 454 21G<50 142>
VStem: 31 242
LayerCount: 2
Fore
SplineSet
161 519 m 1
 142 473 l 1
 96 454 l 1
 50 473 l 1
 31 519 l 1
 50 565 l 1
 96 584 l 1
 157 702 l 1
 143 736 l 1
 162 782 l 1
 208 801 l 1
 254 782 l 1
 273 736 l 1
 254 690 l 1
 208 671 l 1
 207 672 l 1
 147 554 l 1
 161 519 l 1
EndSplineSet
AlternateSubs2: "Randomize subtable" acute.1 acute.2 acute.3 acute.4 acute.5 acute.6 acute.7
EndChar

StartChar: cedilla
Encoding: 184 184 96
Width: 291
VWidth: 0
Flags: W
HStem: -126 151
VStem: 36 219
LayerCount: 2
Fore
SplineSet
212 25 m 0
 232 27 244 14 245 3 c 2
 255 -78 l 2
 257 -100 234 -105 219 -105 c 1
 152 -94 l 1
 147 -107 l 1
 101 -126 l 1
 55 -107 l 1
 36 -61 l 1
 55 -15 l 1
 101 4 l 1
 147 -15 l 1
 159 -44 l 1
 191 -49 l 1
 185 -3 l 2
 184 8 192 23 212 25 c 0
EndSplineSet
AlternateSubs2: "Randomize subtable" cedilla.1 cedilla.2 cedilla.3 cedilla.4 cedilla.5 cedilla.6 cedilla.7
EndChar

StartChar: questiondown
Encoding: 191 191 97
Width: 355
VWidth: 0
Flags: W
VStem: 28 297
LayerCount: 2
Fore
SplineSet
241 640 m 1
 222 594 l 1
 176 575 l 1
 130 594 l 1
 111 640 l 1
 130 686 l 1
 176 705 l 1
 222 686 l 1
 241 640 l 1
312 453 m 1
 293 407 l 1
 280 401 l 1
 291 288 332 172 325 47 c 0
 322 -11 304 -87 230 -114 c 0
 155 -142 83 -102 55 -48 c 0
 41 -22 37 9 44 40 c 1
 28 78 l 1
 47 124 l 1
 93 143 l 1
 139 124 l 1
 158 78 l 1
 139 32 l 1
 100 16 l 1
 99 0 103 -15 110 -28 c 0
 130 -66 167 -82 205 -68 c 0
 240 -55 262 -6 265 50 c 0
 272 164 230 278 219 399 c 1
 201 407 l 1
 182 453 l 1
 201 499 l 1
 247 518 l 1
 293 499 l 1
 312 453 l 1
EndSplineSet
AlternateSubs2: "Randomize subtable" questiondown.1 questiondown.2 questiondown.3 questiondown.4 questiondown.5 questiondown.6 questiondown.7
EndChar

StartChar: AE
Encoding: 198 198 98
Width: 506
VWidth: 0
Flags: W
HStem: 723 20G<190 282>
VStem: 229 59<231 347>
LayerCount: 2
Fore
SplineSet
426 -67 m 1
 407 -113 l 1
 361 -132 l 1
 315 -113 l 1
 296 -67 l 1
 301 -54 l 1
 249 -13 l 2
 246 -10 239 -4 239 4 c 2
 232 150 l 1
 161 136 l 1
 134 1 l 1
 140 -1 l 1
 159 -47 l 1
 140 -93 l 1
 94 -112 l 1
 48 -93 l 1
 29 -47 l 1
 48 -1 l 1
 74 10 l 1
 90 90 l 1
 55 104 l 1
 36 150 l 1
 55 196 l 1
 101 215 l 1
 114 210 l 1
 196 630 l 1
 190 632 l 1
 171 678 l 1
 190 724 l 1
 236 743 l 1
 282 724 l 1
 292 700 l 1
 357 695 l 1
 364 713 l 1
 410 732 l 1
 456 713 l 1
 475 667 l 1
 456 621 l 1
 410 602 l 1
 364 621 l 1
 354 645 l 1
 289 649 l 1
 282 632 l 1
 269 626 l 1
 288 231 l 1
 293 242 l 1
 339 261 l 1
 384 242 l 1
 404 196 l 1
 384 150 l 1
 339 131 l 1
 293 150 l 1
 292 152 l 1
 299 16 l 1
 335 -13 l 1
 361 -2 l 1
 407 -21 l 1
 426 -67 l 1
229 200 m 1
 218 431 l 1
 171 189 l 1
 229 200 l 1
EndSplineSet
AlternateSubs2: "Randomize subtable" AE.1 AE.2 AE.3 AE.4 AE.5 AE.6 AE.7 AE.8 AE.9 AE.10 AE.11 AE.12 AE.13 AE.14 AE.15
EndChar

StartChar: Oslash
Encoding: 216 216 99
Width: 430
VWidth: 0
Flags: W
HStem: -34 50<181 265.94>
VStem: 272 59<764 819.264>
LayerCount: 2
Fore
SplineSet
181 18 m 1
 186 17 191 16 195 16 c 0
 204 15 212 15 218 16 c 0
 305 25 356 172 329 342 c 0
 315 428 303 513 293 596 c 1
 181 18 l 1
194 -94 m 1
 175 -140 l 1
 129 -159 l 1
 83 -140 l 1
 64 -94 l 1
 83 -48 l 1
 110 -37 l 1
 115 -10 l 1
 7 58 13 233 72 384 c 0
 107 472 140 562 172 653 c 1
 154 697 l 1
 173 743 l 1
 219 762 l 1
 261 744 l 1
 272 799 l 2
 273 806 281 819 299 820 c 0
 310 821 329 816 331 798 c 0
 345 649 365 499 389 349 c 0
 415 185 382 -17 225 -34 c 0
 214 -35 202 -35 188 -34 c 0
 183 -34 181 -33 172 -31 c 1
 169 -46 l 1
 175 -48 l 1
 194 -94 l 1
241 641 m 1
 228 636 l 1
 196 545 163 456 129 368 c 0
 80 242 80 111 127 52 c 1
 241 641 l 1
EndSplineSet
AlternateSubs2: "Randomize subtable" Oslash.1 Oslash.2 Oslash.3 Oslash.4 Oslash.5 Oslash.6 Oslash.7 Oslash.8 Oslash.9 Oslash.10 Oslash.11 Oslash.12 Oslash.13 Oslash.14 Oslash.15
EndChar

StartChar: germandbls
Encoding: 223 223 100
Width: 569
VWidth: 0
Flags: W
HStem: 391 20G<234 273 428 519>
LayerCount: 2
Fore
SplineSet
538 372 m 1
 519 326 l 1
 473 307 l 1
 427 326 l 1
 414 357 l 1
 402 360 397 367 393 375 c 1
 373 400 352 399 332 388 c 0
 328 386 325 384 322 381 c 1
 336 346 l 1
 317 300 l 1
 314 299 l 1
 315 297 l 2
 330 278 360 287 413 273 c 0
 464 260 498 223 515 183 c 0
 548 107 521 20 451 -26 c 0
 436 -36 418 -30 410 -22 c 2
 315 73 l 1
 299 47 273 26 239 16 c 0
 228 13 217 16 212 19 c 2
 131 64 l 1
 94 49 l 1
 48 68 l 1
 29 114 l 1
 48 160 l 1
 94 179 l 1
 140 160 l 1
 159 114 l 1
 157 109 l 1
 231 68 l 1
 240 73 249 81 256 90 c 1
 238 97 l 1
 219 143 l 1
 238 189 l 1
 251 195 l 1
 240 207 225 214 208 219 c 0
 180 226 100 222 67 280 c 0
 36 336 66 397 121 418 c 0
 153 430 195 427 229 398 c 1
 234 396 l 1
 271 411 l 1
 273 410 l 1
 281 417 289 424 299 429 c 0
 336 449 389 451 428 418 c 1
 473 437 l 1
 519 418 l 1
 538 372 l 1
341 125 m 1
 435 31 l 1
 467 65 480 117 459 166 c 0
 446 195 422 218 394 225 c 0
 372 231 303 222 265 269 c 0
 260 276 256 282 252 289 c 1
 225 300 l 1
 206 346 l 1
 208 350 l 1
 193 358 l 2
 190 360 187 362 186 363 c 0
 170 378 158 377 146 372 c 0
 123 363 104 333 122 301 c 0
 136 276 169 282 226 267 c 0
 270 255 304 229 321 193 c 1
 330 189 l 1
 349 143 l 1
 341 125 l 1
EndSplineSet
AlternateSubs2: "Randomize subtable" germandbls.1 germandbls.2 germandbls.3 germandbls.4 germandbls.5 germandbls.6 germandbls.7 germandbls.8 germandbls.9 germandbls.10 germandbls.11 germandbls.12 germandbls.13 germandbls.14 germandbls.15 germandbls.16 germandbls.17 germandbls.18 germandbls.19 germandbls.20 germandbls.21 germandbls.22 germandbls.23 germandbls.24 germandbls.25 germandbls.26 germandbls.27 germandbls.28 germandbls.29 germandbls.30 germandbls.31
EndChar

StartChar: ae
Encoding: 230 230 101
Width: 577
VWidth: 0
Flags: W
HStem: 461 20G<422 495>
VStem: 306 60<48 60 170 368>
LayerCount: 2
Fore
SplineSet
546 -33 m 1
 527 -79 l 1
 481 -98 l 1
 435 -79 l 1
 416 -33 l 1
 416 -32 l 1
 322 11 l 2
 316 14 306 22 306 33 c 2
 306 102 l 1
 201 118 l 1
 196 105 l 1
 181 99 l 1
 143 17 l 1
 159 -21 l 1
 140 -67 l 1
 94 -86 l 1
 48 -67 l 1
 29 -21 l 1
 48 25 l 1
 91 43 l 1
 117 99 l 1
 104 105 l 1
 85 151 l 1
 104 197 l 1
 150 216 l 1
 168 209 l 1
 286 463 l 1
 270 501 l 1
 289 547 l 1
 335 566 l 1
 381 547 l 1
 400 501 l 1
 395 490 l 1
 422 469 l 1
 449 481 l 1
 495 461 l 1
 514 416 l 1
 495 370 l 1
 449 351 l 1
 403 370 l 1
 384 416 l 1
 389 427 l 1
 365 445 l 1
 366 170 l 1
 389 180 l 1
 435 161 l 1
 454 115 l 1
 435 69 l 1
 389 50 l 1
 366 60 l 1
 366 48 l 1
 439 14 l 1
 481 32 l 1
 527 13 l 1
 546 -33 l 1
306 153 m 1
 305 368 l 1
 213 167 l 1
 306 153 l 1
EndSplineSet
AlternateSubs2: "Randomize subtable" ae.1 ae.2 ae.3 ae.4 ae.5 ae.6 ae.7 ae.8 ae.9 ae.10 ae.11 ae.12 ae.13 ae.14 ae.15 ae.16 ae.17 ae.18 ae.19 ae.20 ae.21 ae.22 ae.23 ae.24 ae.25 ae.26 ae.27 ae.28 ae.29 ae.30 ae.31
EndChar

StartChar: oslash
Encoding: 248 248 102
Width: 470
VWidth: 0
Flags: W
HStem: -31 49<193.259 287.122>
LayerCount: 2
Fore
SplineSet
192 22 m 1
 208 17 224 16 241 18 c 0
 309 27 354 108 369 203 c 0
 378 264 379 327 374 384 c 1
 192 22 l 1
180 -67 m 1
 161 -113 l 1
 115 -132 l 1
 69 -113 l 1
 50 -67 l 1
 69 -21 l 1
 115 -2 l 1
 118 3 l 1
 53 52 18 143 34 238 c 0
 47 319 93 393 163 441 c 1
 161 446 l 1
 180 492 l 1
 226 511 l 1
 272 492 l 1
 291 446 l 1
 272 400 l 1
 226 381 l 1
 192 395 l 1
 140 356 104 298 93 232 c 0
 81 159 105 91 143 53 c 1
 362 489 l 2
 364 493 370 502 384 504 c 0
 395 506 415 502 419 484 c 0
 439 391 443 293 428 196 c 0
 413 101 369 -15 251 -31 c 0
 224 -35 196 -33 169 -24 c 1
 165 -31 l 1
 180 -67 l 1
EndSplineSet
AlternateSubs2: "Randomize subtable" oslash.1 oslash.2 oslash.3 oslash.4 oslash.5 oslash.6 oslash.7 oslash.8 oslash.9 oslash.10 oslash.11 oslash.12 oslash.13 oslash.14 oslash.15 oslash.16 oslash.17 oslash.18 oslash.19 oslash.20 oslash.21 oslash.22 oslash.23 oslash.24 oslash.25 oslash.26 oslash.27 oslash.28 oslash.29 oslash.30 oslash.31
EndChar

StartChar: dotlessi
Encoding: 305 305 103
Width: 208
VWidth: 0
Flags: W
HStem: 465 20G<66 158>
VStem: 82 60<10.1086 367>
LayerCount: 2
Fore
SplineSet
177 420 m 1
 158 374 l 1
 143 368 l 1
 143 339 143 309 142 279 c 0
 140 235 144 189 142 139 c 0
 140 94 137 49 131 2 c 1
 140 -2 l 1
 159 -48 l 1
 140 -94 l 1
 94 -113 l 1
 48 -94 l 1
 29 -48 l 1
 48 -2 l 1
 71 8 l 1
 77 53 81 97 82 141 c 0
 84 187 80 234 82 281 c 0
 83 311 83 339 83 367 c 1
 66 374 l 1
 47 420 l 1
 66 466 l 1
 112 485 l 1
 158 466 l 1
 177 420 l 1
EndSplineSet
AlternateSubs2: "Randomize subtable" dotlessi.1 dotlessi.2 dotlessi.3 dotlessi.4 dotlessi.5 dotlessi.6 dotlessi.7 dotlessi.8 dotlessi.9 dotlessi.10 dotlessi.11 dotlessi.12 dotlessi.13 dotlessi.14 dotlessi.15 dotlessi.16 dotlessi.17 dotlessi.18 dotlessi.19 dotlessi.20 dotlessi.21 dotlessi.22 dotlessi.23 dotlessi.24 dotlessi.25 dotlessi.26 dotlessi.27 dotlessi.28 dotlessi.29 dotlessi.30 dotlessi.31
EndChar

StartChar: OE
Encoding: 338 338 104
Width: 632
VWidth: 0
Flags: W
VStem: 30 60<64.405 442.334>
LayerCount: 2
Fore
SplineSet
506 292 m 1
 487 246 l 1
 441 227 l 1
 395 246 l 1
 394 247 l 1
 266 199 l 1
 312 -82 l 1
 476 47 l 1
 471 59 l 1
 490 105 l 1
 536 124 l 1
 582 105 l 1
 601 59 l 1
 582 13 l 1
 536 -6 l 1
 510 5 l 1
 315 -148 l 1
 312 -152 308 -154 302 -156 c 0
 300 -157 298 -158 295 -158 c 0
 293 -158 290 -158 288 -158 c 0
 101 -156 30 40 30 223 c 0
 30 240 31 256 32 276 c 0
 43 414 67 551 104 686 c 1
 102 687 l 1
 83 733 l 1
 102 779 l 1
 148 798 l 1
 185 783 l 1
 375 888 l 1
 373 892 l 1
 392 938 l 1
 438 957 l 1
 484 938 l 1
 503 892 l 1
 484 846 l 1
 438 827 l 1
 400 843 l 1
 211 738 l 1
 213 733 l 1
 194 687 l 1
 186 684 l 1
 257 250 l 1
 377 295 l 1
 395 338 l 1
 441 357 l 1
 487 338 l 1
 506 292 l 1
203 215 m 2
 141 591 l 1
 116 486 100 379 92 273 c 0
 91 255 90 239 90 223 c 0
 90 54 152 -79 256 -104 c 1
 204 208 l 2
 203 210 203 213 203 215 c 2
EndSplineSet
AlternateSubs2: "Randomize subtable" OE.1 OE.2 OE.3 OE.4 OE.5 OE.6 OE.7 OE.8 OE.9 OE.10 OE.11 OE.12 OE.13 OE.14 OE.15
EndChar

StartChar: oe
Encoding: 339 339 105
Width: 572
VWidth: 0
Flags: W
HStem: 447 20G<199 291> 447 20G<199 291 430 522>
LayerCount: 2
Fore
SplineSet
519 101 m 1x80
 500 55 l 1
 454 36 l 1
 408 55 l 1
 406 60 l 1
 328 38 l 1
 323 35 318 34 311 34 c 0
 200 34 72 76 38 190 c 0
 7 293 71 402 181 425 c 0
 184 426 187 427 190 427 c 1
 199 448 l 1
 245 467 l 1
 291 448 l 1
 302 420 l 1
 424 404 l 1
 430 419 l 1
 476 438 l 1
 522 419 l 1
 541 373 l 1
 522 327 l 1
 476 308 l 1
 430 327 l 1
 419 355 l 1
 297 370 l 1
 291 356 l 1
 285 353 l 1
 311 214 l 1
 415 177 l 1
 416 179 l 1
 462 198 l 1
 508 179 l 1
 527 133 l 1
 516 107 l 1
 519 101 l 1x80
399 128 m 1
 322 156 l 1
 334 93 l 1
 393 110 l 1
 400 127 l 1
 399 128 l 1
275 86 m 1
 226 345 l 1
 199 356 l 1
 191 375 l 1
 123 358 73 282 96 202 c 0
 118 129 192 94 275 86 c 1
EndSplineSet
AlternateSubs2: "Randomize subtable" oe.1 oe.2 oe.3 oe.4 oe.5 oe.6 oe.7 oe.8 oe.9 oe.10 oe.11 oe.12 oe.13 oe.14 oe.15 oe.16 oe.17 oe.18 oe.19 oe.20 oe.21 oe.22 oe.23 oe.24 oe.25 oe.26 oe.27 oe.28 oe.29 oe.30 oe.31
EndChar

StartChar: uni0237
Encoding: 567 567 106
Width: 320
VWidth: 0
Flags: W
VStem: 196 60<-85 473>
LayerCount: 2
Fore
SplineSet
289 526 m 1
 270 480 l 1
 254 473 l 1
 256 -121 l 2
 256 -139 237 -146 226 -146 c 0
 222 -146 219 -145 216 -144 c 2
 142 -122 l 1
 140 -128 l 1
 94 -147 l 1
 48 -128 l 1
 29 -82 l 1
 48 -36 l 1
 94 -17 l 1
 140 -36 l 1
 155 -73 l 1
 196 -85 l 1
 194 473 l 1
 178 480 l 1
 159 526 l 1
 178 572 l 1
 224 591 l 1
 270 572 l 1
 289 526 l 1
EndSplineSet
AlternateSubs2: "Randomize subtable" uni0237.1 uni0237.2 uni0237.3 uni0237.4 uni0237.5 uni0237.6 uni0237.7 uni0237.8 uni0237.9 uni0237.10 uni0237.11 uni0237.12 uni0237.13 uni0237.14 uni0237.15 uni0237.16 uni0237.17 uni0237.18 uni0237.19 uni0237.20 uni0237.21 uni0237.22 uni0237.23 uni0237.24 uni0237.25 uni0237.26 uni0237.27 uni0237.28 uni0237.29 uni0237.30 uni0237.31
EndChar

StartChar: circumflex
Encoding: 710 710 107
Width: 339
VWidth: 0
Flags: W
HStem: 479 195 495 21G<195 287>
VStem: 32 274
LayerCount: 2
Fore
SplineSet
306 560 m 1xa0
 287 514 l 1
 241 495 l 1x60
 195 514 l 1
 176 560 l 1
 179 567 l 1
 144 588 l 1
 162 544 l 1
 143 498 l 1
 97 479 l 1
 51 498 l 1
 32 544 l 1
 51 590 l 1
 66 596 l 1
 64 649 l 2
 63 667 82 674 93 674 c 0
 104 674 111 670 112 670 c 2
 208 611 l 1
 241 625 l 1
 287 606 l 1
 306 560 l 1xa0
125 597 m 1
 133 594 l 1
 125 599 l 1
 125 597 l 1
EndSplineSet
AlternateSubs2: "Randomize subtable" circumflex.1 circumflex.2 circumflex.3 circumflex.4 circumflex.5 circumflex.6 circumflex.7
EndChar

StartChar: caron
Encoding: 711 711 108
Width: 379
VWidth: 0
Flags: W
HStem: 490 251 498 21G<51 143>
VStem: 32 315
LayerCount: 2
Fore
SplineSet
347 676 m 1xa0
 328 630 l 1
 290 614 l 1
 250 505 l 2
 250 504 249 502 248 501 c 0
 243 493 227 482 208 490 c 2xa0
 143 517 l 1
 97 498 l 1x60
 51 517 l 1
 32 563 l 1
 51 609 l 1
 97 628 l 1
 143 609 l 1
 161 565 l 1
 203 548 l 1
 234 634 l 1
 217 676 l 1
 236 722 l 1
 282 741 l 1
 328 722 l 1
 347 676 l 1xa0
EndSplineSet
AlternateSubs2: "Randomize subtable" caron.1 caron.2 caron.3 caron.4 caron.5 caron.6 caron.7
EndChar

StartChar: breve
Encoding: 728 728 109
Width: 428
VWidth: 0
Flags: W
HStem: 557 239
LayerCount: 2
Fore
SplineSet
396 731 m 1
 377 685 l 1
 370 682 l 1
 368 629 333 579 273 561 c 0
 268 560 263 558 254 557 c 0
 184 547 118 581 86 635 c 1
 51 650 l 1
 32 696 l 1
 51 742 l 1
 97 761 l 1
 143 742 l 1
 162 696 l 1
 144 652 l 1
 167 618 206 601 243 606 c 0
 247 607 251 607 253 608 c 0
 282 617 304 644 309 675 c 1
 285 685 l 1
 266 731 l 1
 285 777 l 1
 331 796 l 1
 377 777 l 1
 396 731 l 1
EndSplineSet
AlternateSubs2: "Randomize subtable" breve.1 breve.2 breve.3 breve.4 breve.5 breve.6 breve.7
EndChar

StartChar: dotaccent
Encoding: 729 729 110
Width: 197
VWidth: 0
Flags: W
HStem: 582 130
VStem: 33 130
LayerCount: 2
Fore
SplineSet
163 647 m 1
 144 601 l 1
 98 582 l 1
 52 601 l 1
 33 647 l 1
 52 693 l 1
 98 712 l 1
 144 693 l 1
 163 647 l 1
EndSplineSet
AlternateSubs2: "Randomize subtable" dotaccent.1 dotaccent.2 dotaccent.3 dotaccent.4 dotaccent.5 dotaccent.6 dotaccent.7
EndChar

StartChar: ring
Encoding: 730 730 111
Width: 203
VWidth: 0
Flags: W
HStem: 437 218
VStem: 74 58<437.333 522.201> 108 61<560.301 604.53>
LayerCount: 2
Fore
SplineSet
108 605 m 1xa0
 97 605 l 1
 95 601 97 581 103 559 c 1
 110 585 110 602 108 605 c 1xa0
132 456 m 2xc0
 131 452 129 449 126 446 c 0
 120 440 111 434 99 437 c 0
 97 437 96 437 94 438 c 0
 87 440 80 445 76 451 c 0
 75 453 74 454 74 456 c 1
 74 457 l 0xc0
 71 469 66 482 61 498 c 0
 47 540 11 606 57 641 c 0
 68 649 82 655 103 655 c 0
 117 655 135 652 149 641 c 0
 165 629 169 612 169 595 c 0xa0
 169 555 144 499 132 457 c 0
 132 456 l 2xc0
EndSplineSet
AlternateSubs2: "Randomize subtable" ring.1 ring.2 ring.3 ring.4 ring.5 ring.6 ring.7
EndChar

StartChar: tilde
Encoding: 732 732 112
Width: 429
VWidth: 0
Flags: W
HStem: 446 21G<51 143> 534 50<150.1 277.164>
LayerCount: 2
Fore
SplineSet
396 613 m 1
 377 567 l 1
 331 548 l 1
 327 550 l 1
 309 539 285 534 262 534 c 0
 209 534 172 541 150 539 c 1
 162 511 l 1
 143 465 l 1
 97 446 l 1
 51 465 l 1
 32 511 l 1
 51 557 l 1
 97 576 l 1
 100 575 l 1
 148 603 233 584 262 584 c 0
 268 584 274 584 278 584 c 1
 266 613 l 1
 285 659 l 1
 331 678 l 1
 377 659 l 1
 396 613 l 1
EndSplineSet
AlternateSubs2: "Randomize subtable" tilde.1 tilde.2 tilde.3 tilde.4 tilde.5 tilde.6 tilde.7
EndChar

StartChar: hungarumlaut
Encoding: 733 733 113
Width: 374
VWidth: 0
Flags: W
HStem: 761 20G<49 141 233 325>
VStem: 30 314
LayerCount: 2
Fore
SplineSet
344 703 m 1
 325 657 l 1
 303 648 l 1
 281 444 l 2
 280 436 274 425 258 422 c 2
 83 391 l 2
 81 391 79 390 76 390 c 0
 65 390 46 399 47 417 c 2
 62 665 l 1
 49 670 l 1
 30 716 l 1
 49 762 l 1
 95 781 l 1
 141 762 l 1
 160 716 l 1
 141 670 l 1
 122 662 l 1
 109 447 l 1
 224 467 l 1
 244 653 l 1
 233 657 l 1
 214 703 l 1
 233 749 l 1
 279 768 l 1
 325 749 l 1
 344 703 l 1
EndSplineSet
AlternateSubs2: "Randomize subtable" hungarumlaut.1 hungarumlaut.2 hungarumlaut.3 hungarumlaut.4 hungarumlaut.5 hungarumlaut.6 hungarumlaut.7
EndChar

StartChar: Gamma
Encoding: 915 915 114
Width: 404
VWidth: 0
Flags: W
HStem: 722 20G<262 354>
VStem: 68 60<65 253.955> 91 59<499.087 661>
LayerCount: 2
Fore
SplineSet
373 677 m 1xa0
 354 631 l 1
 308 612 l 1
 262 631 l 1
 252 655 l 1
 150 661 l 1xa0
 128 64 l 1
 142 58 l 1
 161 12 l 1
 142 -34 l 1
 96 -53 l 1
 50 -34 l 1
 31 12 l 1
 50 58 l 1
 68 65 l 1xc0
 91 689 l 2
 92 707 111 713 122 713 c 2
 123 713 l 1
 255 705 l 1
 262 723 l 1
 308 742 l 1
 354 723 l 1
 373 677 l 1xa0
EndSplineSet
AlternateSubs2: "Randomize subtable" Gamma.1 Gamma.2 Gamma.3 Gamma.4 Gamma.5 Gamma.6 Gamma.7 Gamma.8 Gamma.9 Gamma.10 Gamma.11 Gamma.12 Gamma.13 Gamma.14 Gamma.15
EndChar

StartChar: Delta
Encoding: 916 916 115
Width: 487
VWidth: 0
Flags: W
LayerCount: 2
Fore
SplineSet
144 10 m 1
 222 38 363 97 396 117 c 1
 405 175 307 519 238 668 c 1
 134 19 l 1
 142 16 l 1
 144 10 l 1
74 26 m 1
 191 749 l 2
 194 767 214 772 225 771 c 0
 231 771 237 767 239 766 c 0
 319 723 497 152 447 89 c 0
 425 62 255 -12 156 -42 c 1
 142 -76 l 1
 96 -95 l 1
 50 -76 l 1
 31 -30 l 1
 50 16 l 1
 74 26 l 1
EndSplineSet
AlternateSubs2: "Randomize subtable" Delta.1 Delta.2 Delta.3 Delta.4 Delta.5 Delta.6 Delta.7 Delta.8 Delta.9 Delta.10 Delta.11 Delta.12 Delta.13 Delta.14 Delta.15
EndChar

StartChar: Theta
Encoding: 920 920 116
Width: 514
VWidth: 0
Flags: W
HStem: 406 20G<125 217>
LayerCount: 2
Fore
SplineSet
338 317 m 1
 382 335 l 1
 420 319 l 1
 418 343 415 369 410 394 c 0
 383 536 366 600 321 713 c 1
 301 721 l 1
 232 666 203 625 155 532 c 0
 91 408 81 284 105 191 c 0
 134 77 207 23 291 38 c 0
 367 52 408 124 419 220 c 1
 382 205 l 1
 336 224 l 1
 317 270 l 1
 215 314 l 1
 171 296 l 1
 125 315 l 1
 106 361 l 1
 125 407 l 1
 171 426 l 1
 217 407 l 1
 236 361 l 1
 338 317 l 1
268 764 m 1
 263 775 l 1
 282 821 l 1
 328 840 l 1
 374 821 l 1
 393 775 l 1
 376 734 l 1
 424 615 442 546 469 402 c 0
 500 236 486 21 304 -11 c 0
 171 -35 78 58 46 181 c 0
 19 285 31 419 100 552 c 0
 151 651 189 702 268 764 c 1
EndSplineSet
AlternateSubs2: "Randomize subtable" Theta.1 Theta.2 Theta.3 Theta.4 Theta.5 Theta.6 Theta.7 Theta.8 Theta.9 Theta.10 Theta.11 Theta.12 Theta.13 Theta.14 Theta.15
EndChar

StartChar: Lambda
Encoding: 923 923 117
Width: 404
VWidth: 0
Flags: W
LayerCount: 2
Fore
SplineSet
373 -8 m 1
 354 -54 l 1
 308 -73 l 1
 262 -54 l 1
 243 -8 l 1
 262 38 l 1
 269 41 l 1
 198 477 l 1
 133 -14 l 1
 142 -18 l 1
 161 -64 l 1
 142 -110 l 1
 96 -129 l 1
 50 -110 l 1
 31 -64 l 1
 50 -18 l 1
 73 -8 l 1
 165 683 l 2
 167 701 187 706 198 705 c 0
 216 703 224 691 225 684 c 2
 329 48 l 1
 354 38 l 1
 373 -8 l 1
EndSplineSet
AlternateSubs2: "Randomize subtable" Lambda.1 Lambda.2 Lambda.3 Lambda.4 Lambda.5 Lambda.6 Lambda.7 Lambda.8 Lambda.9 Lambda.10 Lambda.11 Lambda.12 Lambda.13 Lambda.14 Lambda.15
EndChar

StartChar: Xi
Encoding: 926 926 118
Width: 462
VWidth: 0
Flags: W
HStem: 418 20G<150 237 262 354> 770 20G<50 142 320 412>
LayerCount: 2
Fore
SplineSet
401 -24 m 1
 382 -70 l 1
 336 -89 l 1
 290 -70 l 1
 272 -26 l 1
 201 2 l 1
 155 -17 l 1
 110 2 l 1
 90 48 l 1
 110 94 l 1
 155 113 l 1
 201 94 l 1
 219 51 l 1
 291 22 l 1
 336 41 l 1
 382 22 l 1
 401 -24 l 1
373 425 m 1
 354 379 l 1
 308 360 l 1
 267 377 l 1
 261 374 l 1
 261 373 l 1
 242 327 l 1
 196 308 l 1
 150 327 l 1
 131 373 l 1
 150 419 l 1
 196 438 l 1
 237 421 l 1
 243 424 l 1
 243 425 l 1
 262 471 l 1
 308 490 l 1
 354 471 l 1
 373 425 l 1
431 705 m 1
 412 659 l 1
 366 640 l 1
 320 659 l 1
 310 684 l 1
 149 696 l 1
 142 679 l 1
 96 660 l 1
 50 679 l 1
 31 725 l 1
 50 771 l 1
 96 790 l 1
 142 771 l 1
 152 746 l 1
 313 734 l 1
 320 751 l 1
 366 770 l 1
 412 751 l 1
 431 705 l 1
EndSplineSet
AlternateSubs2: "Randomize subtable" Xi.1 Xi.2 Xi.3 Xi.4 Xi.5 Xi.6 Xi.7 Xi.8 Xi.9 Xi.10 Xi.11 Xi.12 Xi.13 Xi.14 Xi.15
EndChar

StartChar: Pi
Encoding: 928 928 119
Width: 476
VWidth: 0
Flags: W
HStem: -46 21G<50 142>
VStem: 67 61<72 315.056> 85 60<453.944 675>
LayerCount: 2
Fore
SplineSet
432 -23 m 1xa0
 413 -69 l 1
 367 -88 l 1
 321 -69 l 1
 302 -23 l 1
 321 23 l 1
 340 31 l 1
 383 709 l 1
 145 675 l 1xa0
 128 71 l 1
 142 65 l 1
 161 19 l 1
 142 -27 l 1
 96 -46 l 1
 50 -27 l 1
 31 19 l 1
 50 65 l 1
 67 72 l 1xc0
 85 697 l 2
 85 712 101 720 110 721 c 2
 410 764 l 2
 431 767 443 752 445 743 c 1
 445 738 l 1
 400 28 l 1
 413 23 l 1
 432 -23 l 1xa0
EndSplineSet
AlternateSubs2: "Randomize subtable" Pi.1 Pi.2 Pi.3 Pi.4 Pi.5 Pi.6 Pi.7 Pi.8 Pi.9 Pi.10 Pi.11 Pi.12 Pi.13 Pi.14 Pi.15
EndChar

StartChar: Sigma
Encoding: 931 931 120
Width: 397
VWidth: 0
Flags: W
HStem: 749 20G<255 347>
LayerCount: 2
Fore
SplineSet
363 9 m 1
 344 -37 l 1
 298 -56 l 1
 252 -37 l 1
 240 -9 l 1
 56 16 l 1
 54 16 l 1
 43 18 27 30 32 47 c 2
 122 358 l 1
 93 464 70 573 54 684 c 1
 54 685 l 1
 53 694 60 710 81 712 c 2
 244 724 l 1
 255 750 l 1
 301 769 l 1
 347 750 l 1
 366 704 l 1
 347 658 l 1
 301 639 l 1
 255 658 l 1
 248 675 l 1
 117 664 l 1
 133 560 155 461 182 363 c 0
 183 358 182 355 181 352 c 2
 98 61 l 1
 246 41 l 1
 252 55 l 1
 298 74 l 1
 344 55 l 1
 363 9 l 1
EndSplineSet
AlternateSubs2: "Randomize subtable" Sigma.1 Sigma.2 Sigma.3 Sigma.4 Sigma.5 Sigma.6 Sigma.7 Sigma.8 Sigma.9 Sigma.10 Sigma.11 Sigma.12 Sigma.13 Sigma.14 Sigma.15
EndChar

StartChar: Upsilon
Encoding: 933 933 121
Width: 562
VWidth: 0
Flags: W
VStem: 261 60<26 526.278>
LayerCount: 2
Fore
SplineSet
523 570 m 1
 504 524 l 1
 458 505 l 1
 412 524 l 1
 393 570 l 1
 412 616 l 1
 458 635 l 1
 469 631 l 1
 473 658 454 685 430 696 c 0
 412 704 394 706 372 674 c 0
 344 633 321 383 321 319 c 0
 321 318 321 317 321 316 c 2
 327 26 l 1
 344 19 l 1
 363 -27 l 1
 344 -73 l 1
 298 -92 l 1
 252 -73 l 1
 233 -27 l 1
 252 19 l 1
 267 25 l 1
 261 314 l 2
 261 315 l 0
 260 372 234 622 209 665 c 0
 190 697 167 699 146 690 c 0
 127 682 112 664 109 643 c 1
 142 629 l 1
 161 583 l 1
 142 537 l 1
 96 518 l 1
 50 537 l 1
 31 583 l 1
 48 623 l 1
 42 673 76 717 120 735 c 0
 170 756 232 740 263 687 c 0
 273 670 282 642 289 608 c 1
 297 647 307 680 320 699 c 0
 354 749 413 762 460 740 c 0
 513 715 552 648 515 589 c 1
 523 570 l 1
EndSplineSet
AlternateSubs2: "Randomize subtable" Upsilon.1 Upsilon.2 Upsilon.3 Upsilon.4 Upsilon.5 Upsilon.6 Upsilon.7 Upsilon.8 Upsilon.9 Upsilon.10 Upsilon.11 Upsilon.12 Upsilon.13 Upsilon.14 Upsilon.15
EndChar

StartChar: Phi
Encoding: 934 934 122
Width: 468
VWidth: 0
Flags: W
HStem: 187 52<157.741 202 263 317.005>
VStem: 194 61<272.125 496> 208 60<34 189.028 239 371.5>
LayerCount: 2
Fore
SplineSet
304 -19 m 1xa0
 285 -65 l 1
 239 -84 l 1
 193 -65 l 1
 174 -19 l 1
 193 27 l 1
 208 33 l 1
 203 187 l 1
 90 206 15 310 35 418 c 0
 48 489 102 551 177 571 c 1
 179 576 l 1
 175 578 l 1
 156 624 l 1
 175 670 l 1
 221 689 l 1
 267 670 l 1
 286 624 l 1
 276 601 l 1
 280 599 l 1
 292 569 l 1
 403 535 467 416 421 301 c 0
 395 239 335 193 263 185 c 1
 268 34 l 1
 285 27 l 1
 304 -19 l 1xa0
183 519 m 1
 139 502 103 463 94 411 c 0
 79 329 133 258 202 239 c 1
 194 504 l 1xc0
 188 507 l 1
 183 519 l 1
284 517 m 1
 280 507 l 1
 255 496 l 1
 262 236 l 1
 323 247 372 299 376 373 c 1
 378 439 338 494 284 517 c 1
EndSplineSet
AlternateSubs2: "Randomize subtable" Phi.1 Phi.2 Phi.3 Phi.4 Phi.5 Phi.6 Phi.7 Phi.8 Phi.9 Phi.10 Phi.11 Phi.12 Phi.13 Phi.14 Phi.15
EndChar

StartChar: Psi
Encoding: 936 936 123
Width: 473
VWidth: 0
Flags: W
HStem: 99 50<268 357.996> 473 21G<50 99> 745 20G<203 295>
VStem: 206 60<68 99 172 439.5> 218 60<314.8 647>
LayerCount: 2
Fore
SplineSet
442 545 m 1xe8
 423 499 l 1
 393 487 l 1
 404 376 507 99 281 99 c 0
 276 99 272 99 267 99 c 1
 266 67 l 1
 281 61 l 1
 300 15 l 1
 281 -31 l 1
 235 -50 l 1
 189 -31 l 1
 170 15 l 1
 189 61 l 1
 206 68 l 1xf0
 207 114 l 1
 87 171 120 376 99 474 c 1
 96 473 l 1
 50 492 l 1
 31 538 l 1
 50 584 l 1
 96 603 l 1
 142 584 l 1
 161 538 l 1
 153 518 l 1
 230 406 146 234 208 172 c 1
 218 648 l 1
 203 654 l 1
 184 700 l 1
 203 746 l 1
 249 765 l 1
 295 746 l 1
 314 700 l 1
 295 654 l 1
 278 647 l 1
 268 149 l 1
 272 149 276 149 281 149 c 0
 492 149 263 376 323 518 c 1
 312 545 l 1
 331 591 l 1
 377 610 l 1
 423 591 l 1
 442 545 l 1xe8
EndSplineSet
AlternateSubs2: "Randomize subtable" Psi.1 Psi.2 Psi.3 Psi.4 Psi.5 Psi.6 Psi.7 Psi.8 Psi.9 Psi.10 Psi.11 Psi.12 Psi.13 Psi.14 Psi.15
EndChar

StartChar: Omega
Encoding: 937 937 124
Width: 479
VWidth: 0
Flags: W
VStem: 279 60<115 247.646>
LayerCount: 2
Fore
SplineSet
447 47 m 1
 428 1 l 1
 382 -18 l 1
 336 1 l 1
 317 47 l 1
 322 60 l 1
 288 86 l 2
 284 89 279 96 279 105 c 0
 279 262 357 401 382 546 c 0
 405 675 356 788 271 796 c 0
 202 802 143 743 129 633 c 0
 124 591 125 543 137 494 c 0
 174 340 257 188 257 16 c 0
 257 2 242 -13 220 -9 c 2
 146 6 l 1
 142 -4 l 1
 96 -23 l 1
 50 -4 l 1
 31 42 l 1
 50 87 l 1
 96 107 l 1
 142 87 l 1
 155 56 l 1
 196 48 l 1
 186 196 114 334 78 484 c 0
 65 538 63 591 69 638 c 0
 84 752 153 857 277 846 c 0
 426 833 464 668 441 539 c 0
 415 388 343 253 339 115 c 1
 357 102 l 1
 382 112 l 1
 428 93 l 1
 447 47 l 1
EndSplineSet
AlternateSubs2: "Randomize subtable" Omega.1 Omega.2 Omega.3 Omega.4 Omega.5 Omega.6 Omega.7 Omega.8 Omega.9 Omega.10 Omega.11 Omega.12 Omega.13 Omega.14 Omega.15
EndChar

StartChar: endash
Encoding: 8211 8211 125
Width: 407
VWidth: 0
Flags: W
HStem: 183 254
LayerCount: 2
Fore
SplineSet
374 248 m 1
 355 202 l 1
 309 183 l 1
 263 202 l 1
 244 248 l 1
 247 255 l 1
 134 321 l 1
 99 307 l 1
 53 326 l 1
 34 372 l 1
 53 418 l 1
 99 437 l 1
 145 418 l 1
 164 372 l 1
 161 365 l 1
 274 299 l 1
 309 313 l 1
 355 294 l 1
 374 248 l 1
EndSplineSet
AlternateSubs2: "Randomize subtable" endash.1 endash.2 endash.3 endash.4 endash.5 endash.6 endash.7
EndChar

StartChar: emdash
Encoding: 8212 8212 126
Width: 642
VWidth: 0
Flags: W
HStem: 220 157
LayerCount: 2
Fore
SplineSet
607 285 m 1
 588 239 l 1
 542 220 l 1
 496 239 l 1
 486 263 l 1
 153 284 l 1
 146 266 l 1
 100 247 l 1
 54 266 l 1
 35 312 l 1
 54 358 l 1
 100 377 l 1
 146 358 l 1
 156 334 l 1
 488 313 l 1
 496 331 l 1
 542 350 l 1
 588 331 l 1
 607 285 l 1
EndSplineSet
AlternateSubs2: "Randomize subtable" emdash.1 emdash.2 emdash.3 emdash.4 emdash.5 emdash.6 emdash.7
EndChar

StartChar: quoteleft
Encoding: 8216 8216 127
Width: 232
VWidth: 0
Flags: W
HStem: 412 21G<90 182>
VStem: 35 166
LayerCount: 2
Fore
SplineSet
201 477 m 1
 182 431 l 1
 136 412 l 1
 90 431 l 1
 71 477 l 1
 85 511 l 1
 35 602 l 2
 32 607 30 615 35 623 c 2
 60 663 l 1
 47 694 l 1
 66 740 l 1
 112 759 l 1
 158 740 l 1
 177 694 l 1
 158 648 l 1
 112 629 l 1
 107 631 l 1
 95 612 l 1
 134 541 l 1
 136 542 l 1
 182 523 l 1
 201 477 l 1
EndSplineSet
AlternateSubs2: "Randomize subtable" quoteleft.1 quoteleft.2 quoteleft.3 quoteleft.4 quoteleft.5 quoteleft.6 quoteleft.7
EndChar

StartChar: quoteright
Encoding: 8217 8217 128
Width: 242
VWidth: 0
Flags: W
HStem: 745 20G<66 158>
VStem: 30 178
LayerCount: 2
Fore
SplineSet
160 458 m 1
 141 412 l 1
 95 393 l 1
 49 412 l 1
 30 458 l 1
 49 504 l 1
 95 523 l 1
 99 521 l 1
 147 604 l 1
 121 639 l 1
 112 635 l 1
 66 655 l 1
 47 700 l 1
 66 746 l 1
 112 765 l 1
 158 746 l 1
 177 700 l 1
 166 674 l 1
 207 619 l 2
 214 610 211 601 208 595 c 2
 147 490 l 1
 160 458 l 1
EndSplineSet
AlternateSubs2: "Randomize subtable" quoteright.1 quoteright.2 quoteright.3 quoteright.4 quoteright.5 quoteright.6 quoteright.7
EndChar

StartChar: quotedblleft
Encoding: 8220 8220 129
Width: 322
VWidth: 0
Flags: W
HStem: 758 20G<152 244>
VStem: 31 260
LayerCount: 2
Fore
SplineSet
263 713 m 1
 244 667 l 1
 240 665 l 1
 291 432 l 2
 295 414 278 404 267 402 c 0
 250 399 239 410 235 415 c 2
 104 608 l 1
 96 605 l 1
 50 624 l 1
 31 670 l 1
 50 716 l 1
 96 735 l 1
 135 719 l 1
 152 759 l 1
 198 778 l 1
 244 759 l 1
 263 713 l 1
150 642 m 1
 199 569 l 1
 180 655 l 1
 159 664 l 1
 150 642 l 1
EndSplineSet
AlternateSubs2: "Randomize subtable" quotedblleft.1 quotedblleft.2 quotedblleft.3 quotedblleft.4 quotedblleft.5 quotedblleft.6 quotedblleft.7
EndChar

StartChar: quotedblright
Encoding: 8221 8221 130
Width: 327
VWidth: 0
Flags: W
HStem: 759 20G<87 179>
VStem: 32 264
LayerCount: 2
Fore
SplineSet
296 672 m 1
 277 626 l 1
 231 607 l 1
 222 611 l 1
 87 425 l 2
 83 420 72 410 55 413 c 0
 44 415 27 426 32 443 c 2
 90 667 l 1
 87 668 l 1
 68 714 l 1
 87 760 l 1
 133 779 l 1
 179 760 l 1
 195 722 l 1
 231 737 l 1
 277 718 l 1
 296 672 l 1
177 646 m 1
 169 664 l 1
 149 656 l 1
 129 580 l 1
 177 646 l 1
EndSplineSet
AlternateSubs2: "Randomize subtable" quotedblright.1 quotedblright.2 quotedblright.3 quotedblright.4 quotedblright.5 quotedblright.6 quotedblright.7
EndChar

StartChar: exclam.1
Encoding: 65536 -1 131
Width: 219
VWidth: 0
Flags: W
VStem: 29 161
LayerCount: 2
Fore
SplineSet
159 206 m 1
 140 160 l 1
 94 141 l 1
 48 160 l 1
 29 206 l 1
 48 252 l 1
 67 260 l 1
 92 683 l 1
 79 688 l 1
 60 734 l 1
 79 780 l 1
 125 799 l 1
 171 780 l 1
 190 734 l 1
 171 688 l 1
 152 680 l 1
 127 257 l 1
 140 252 l 1
 159 206 l 1
170 9 m 1
 151 -37 l 1
 105 -56 l 1
 59 -37 l 1
 40 9 l 1
 59 55 l 1
 105 74 l 1
 151 55 l 1
 170 9 l 1
EndSplineSet
EndChar

StartChar: quotedbl.1
Encoding: 65537 -1 132
Width: 392
VWidth: 0
Flags: W
HStem: 461 21G<251 343>
VStem: 67 60<452 682>
LayerCount: 2
Fore
SplineSet
362 526 m 1
 343 480 l 1
 297 461 l 1
 251 480 l 1
 232 526 l 1
 251 572 l 1
 257 575 l 1
 230 718 l 1
 204 729 l 1
 185 775 l 1
 204 821 l 1
 250 840 l 1
 296 821 l 1
 315 775 l 1
 296 729 l 1
 290 726 l 1
 316 583 l 1
 343 572 l 1
 362 526 l 1
160 399 m 1
 141 353 l 1
 95 334 l 1
 49 353 l 1
 30 399 l 1
 49 445 l 1
 67 452 l 1
 73 683 l 1
 59 689 l 1
 40 735 l 1
 59 781 l 1
 105 800 l 1
 151 781 l 1
 170 735 l 1
 151 689 l 1
 133 682 l 1
 127 451 l 1
 141 445 l 1
 160 399 l 1
EndSplineSet
EndChar

StartChar: numbersign.1
Encoding: 65538 -1 133
Width: 537
VWidth: 0
Flags: W
HStem: -13 50<230 271> 409 21G<76 167> 479 20G<397 489> 745 20G<330 422>
LayerCount: 2
Fore
SplineSet
506 238 m 1
 487 192 l 1
 441 173 l 1
 395 192 l 1
 387 210 l 1
 351 208 l 1
 328 8 l 2
 326 -8 308 -15 298 -15 c 2
 229 -13 l 1
 221 -33 l 1
 175 -52 l 1
 129 -33 l 1
 110 13 l 1
 129 59 l 1
 153 69 l 1
 171 197 l 1
 150 195 l 1
 140 171 l 1
 94 152 l 1
 48 171 l 1
 29 217 l 1
 48 263 l 1
 94 282 l 1
 140 263 l 1
 147 245 l 1
 178 247 l 1
 206 438 l 1
 173 442 l 1
 167 428 l 1
 121 409 l 1
 76 428 l 1
 56 474 l 1
 76 520 l 1
 121 539 l 1
 167 520 l 1
 178 492 l 1
 213 488 l 1
 243 694 l 2
 244 702 253 715 270 716 c 2
 319 720 l 1
 330 746 l 1
 376 765 l 1
 422 746 l 1
 441 700 l 1
 422 654 l 1
 400 645 l 1
 380 467 l 1
 391 466 l 1
 397 480 l 1
 443 499 l 1
 489 480 l 1
 508 434 l 1
 489 388 l 1
 443 369 l 1
 397 388 l 1
 385 417 l 1
 374 418 l 1
 356 258 l 1
 385 260 l 1
 395 284 l 1
 441 303 l 1
 487 284 l 1
 506 238 l 1
290 204 m 1
 233 201 l 1
 213 62 l 1
 221 59 l 1
 230 37 l 1
 271 36 l 1
 290 204 l 1
296 254 m 1
 315 425 l 1
 266 431 l 1
 240 251 l 1
 296 254 l 1
320 475 m 1
 340 650 l 1
 330 654 l 1
 323 670 l 1
 300 668 l 1
 273 481 l 1
 320 475 l 1
EndSplineSet
EndChar

StartChar: dollar.1
Encoding: 65539 -1 134
Width: 414
VWidth: 0
Flags: W
HStem: 422 21G<262 354>
VStem: 167 60<41 205.5> 179 58<229 283 389 464.25> 193 60<494 663>
LayerCount: 2
Fore
SplineSet
292 769 m 1xc0
 273 723 l 1
 259 717 l 1
 343 690 385 600 359 522 c 1
 373 487 l 1
 354 441 l 1
 308 422 l 1
 262 441 l 1
 245 481 l 1
 240 347 l 1
 304 303 367 259 382 179 c 0
 386 156 386 137 383 118 c 0
 365 22 258 -52 148 -7 c 0
 73 24 35 100 48 172 c 1
 30 215 l 1
 49 261 l 1
 95 280 l 1
 141 261 l 1
 160 215 l 1
 141 169 l 1
 106 155 l 1
 102 108 127 61 167 41 c 1xc0
 179 323 l 1xa0
 121 362 60 412 38 489 c 0
 9 591 66 701 173 722 c 0
 176 722 178 723 181 723 c 1
 162 769 l 1
 181 815 l 1
 227 834 l 1
 273 815 l 1
 292 769 l 1xc0
237 283 m 1xa0
 227 31 l 1xc0
 273 37 313 74 323 126 c 0
 326 140 326 155 323 172 c 0
 315 218 281 251 237 283 c 1xa0
182 389 m 1
 193 675 l 1x90
 191 675 188 674 186 674 c 0
 125 662 73 585 97 500 c 0
 110 453 143 419 182 389 c 1
253 663 m 1
 246 494 l 1
 262 533 l 1
 305 551 l 1
 313 598 290 642 253 663 c 1
EndSplineSet
EndChar

StartChar: percent.1
Encoding: 65540 -1 135
Width: 505
VWidth: 0
Flags: W
HStem: -79 49<348.312 401.629> 427 20G<355 447>
VStem: 277 60<-21.804 148.812>
LayerCount: 2
Fore
SplineSet
182 -42 m 1
 163 -88 l 1
 117 -107 l 1
 71 -88 l 1
 52 -42 l 1
 71 4 l 1
 107 19 l 1
 220 344 l 1
 206 329 188 317 166 311 c 0
 151 307 134 306 115 310 c 0
 -4 334 25 482 58 567 c 0
 75 613 84 657 87 708 c 1
 73 714 l 1
 54 760 l 1
 73 806 l 1
 119 825 l 1
 165 806 l 1
 184 760 l 1
 177 742 l 1
 234 701 321 705 372 777 c 0
 376 782 381 786 386 788 c 0
 392 791 399 791 407 789 c 0
 418 786 424 780 427 773 c 0
 429 768 429 761 426 755 c 1
 163 3 l 1
 182 -42 l 1
379 218 m 1
 347 110 l 2
 341 89 338 70 337 53 c 0
 335 -7 359 -30 377 -30 c 0
 381 -30 383 -29 385 -29 c 0
 411 -23 431 47 400 139 c 0
 391 166 384 193 379 218 c 1
466 382 m 1
 447 336 l 1
 429 328 l 1
 429 265 438 210 457 153 c 0
 487 64 499 -79 375 -79 c 1
 297 -77 275 -6 277 54 c 0
 278 75 282 96 289 121 c 0
 307 183 326 247 347 311 c 2
 355 336 l 1
 336 382 l 1
 355 428 l 1
 401 447 l 1
 447 428 l 1
 466 382 l 1
141 651 m 1
 133 604 116 562 104 520 c 0
 76 425 91 367 129 359 c 0
 138 357 143 358 148 359 c 0
 183 368 220 453 181 555 c 0
 168 589 155 621 141 651 c 1
339 683 m 1
 294 664 242 661 194 676 c 1
 210 642 225 607 239 570 c 0
 253 533 260 492 259 454 c 1
 339 683 l 1
EndSplineSet
EndChar

StartChar: ampersand.1
Encoding: 65541 -1 136
Width: 448
VWidth: 0
Flags: W
HStem: 481 20G<308 400> 679 50<92 283> 750 20G<292 384>
LayerCount: 2
Fore
SplineSet
419 7 m 1
 400 -39 l 1
 354 -58 l 1
 308 -39 l 1
 289 7 l 1
 306 48 l 1
 250 192 l 1
 134 -16 l 2
 132 -20 125 -29 109 -30 c 0
 98 -31 78 -24 77 -6 c 2
 54 342 l 2
 53 344 53 347 53 350 c 2
 30 699 l 1
 30 700 l 2
 30 709 38 726 59 726 c 2
 283 729 l 1
 292 751 l 1
 338 770 l 1
 384 751 l 1
 403 705 l 1
 384 659 l 1
 338 640 l 1
 329 644 l 1
 114 342 l 1
 130 96 l 1
 302 403 l 1
 289 436 l 1
 308 482 l 1
 354 501 l 1
 400 482 l 1
 419 436 l 1
 400 390 l 1
 354 371 l 1
 351 372 l 1
 287 258 l 1
 361 69 l 1
 400 53 l 1
 419 7 l 1
108 431 m 1
 284 679 l 1
 92 676 l 1
 108 431 l 1
EndSplineSet
EndChar

StartChar: quotesingle.1
Encoding: 65542 -1 137
Width: 225
VWidth: 0
Flags: W
HStem: 763 20G<49 141>
VStem: 30 165
LayerCount: 2
Fore
SplineSet
195 355 m 1
 176 310 l 1
 130 290 l 1
 84 310 l 1
 65 355 l 1
 84 401 l 1
 110 412 l 1
 122 493 115 577 88 656 c 1
 49 672 l 1
 30 718 l 1
 49 764 l 1
 95 783 l 1
 141 764 l 1
 160 718 l 1
 143 678 l 1
 175 589 183 495 170 404 c 1
 176 401 l 1
 195 355 l 1
EndSplineSet
EndChar

StartChar: parenleft.1
Encoding: 65543 -1 138
Width: 322
VWidth: 0
Flags: W
VStem: 31 262
LayerCount: 2
Fore
SplineSet
268 13 m 1
 249 -33 l 1
 203 -52 l 1
 157 -33 l 1
 138 13 l 1
 146 32 l 1
 65 125 22 247 31 372 c 0
 39 485 87 591 170 672 c 1
 163 688 l 1
 182 734 l 1
 228 753 l 1
 274 734 l 1
 293 688 l 1
 274 642 l 1
 228 623 l 1
 207 632 l 1
 139 561 98 468 91 369 c 0
 83 259 119 153 186 71 c 1
 203 78 l 1
 249 59 l 1
 268 13 l 1
EndSplineSet
EndChar

StartChar: parenright.1
Encoding: 65544 -1 139
Width: 301
VWidth: 0
Flags: W
HStem: 752 20G<70 162>
VStem: 29 241
LayerCount: 2
Fore
SplineSet
159 24 m 1
 140 -22 l 1
 94 -41 l 1
 48 -22 l 1
 29 24 l 1
 48 70 l 1
 94 89 l 1
 109 83 l 1
 167 157 204 249 210 347 c 0
 217 453 187 559 127 647 c 1
 116 642 l 1
 70 661 l 1
 51 707 l 1
 70 752 l 1
 116 772 l 1
 162 752 l 1
 181 707 l 1
 171 683 l 1
 243 585 277 465 270 345 c 0
 263 234 220 129 150 45 c 1
 159 24 l 1
EndSplineSet
EndChar

StartChar: asterisk.1
Encoding: 65545 -1 140
Width: 403
VWidth: 0
Flags: W
HStem: 534 48<332.391 372.788>
VStem: 40 59<187.54 237.088>
LayerCount: 2
Fore
SplineSet
176 541 m 1
 195 554 211 560 233 568 c 1
 186 583 l 1
 176 541 l 1
218 627 m 1
 208 676 l 1
 198 633 l 1
 218 627 l 1
198 492 m 1
 270 379 l 1
 241 516 l 1
 227 510 212 501 198 492 c 1
274 815 m 1
 255 769 l 1
 250 767 l 1
 283 605 l 1
 354 582 l 2
 359 580 374 573 373 557 c 0
 372 548 362 533 341 534 c 0
 328 535 315 534 299 532 c 1
 361 231 l 2
 362 227 363 212 346 205 c 0
 336 201 315 199 305 215 c 2
 156 452 l 1
 99 207 l 2
 95 189 75 185 64 187 c 0
 48 190 41 202 40 207 c 0
 15 306 39 403 100 476 c 1
 111 523 l 1
 39 638 l 2
 26 657 48 683 76 673 c 2
 141 652 l 1
 168 767 l 1
 163 769 l 1
 144 815 l 1
 163 861 l 1
 209 880 l 1
 255 861 l 1
 274 815 l 1
EndSplineSet
EndChar

StartChar: plus.1
Encoding: 65546 -1 141
Width: 437
VWidth: 0
Flags: W
HStem: 407 20G<296 388>
VStem: 195 60<207 320 378 571>
LayerCount: 2
Fore
SplineSet
289 624 m 1
 270 578 l 1
 254 571 l 1
 255 378 l 1
 285 381 l 1
 296 408 l 1
 342 427 l 1
 388 408 l 1
 407 362 l 1
 388 316 l 1
 342 297 l 1
 296 316 l 1
 290 331 l 1
 255 327 l 1
 256 207 l 1
 272 200 l 1
 291 154 l 1
 272 108 l 1
 226 89 l 1
 180 108 l 1
 161 154 l 1
 180 200 l 1
 196 207 l 1
 195 320 l 1
 152 315 l 1
 141 288 l 1
 95 269 l 1
 49 288 l 1
 30 334 l 1
 49 380 l 1
 95 399 l 1
 141 380 l 1
 147 365 l 1
 195 371 l 1
 194 571 l 1
 178 578 l 1
 159 624 l 1
 178 669 l 1
 224 689 l 1
 270 669 l 1
 289 624 l 1
EndSplineSet
EndChar

StartChar: comma.1
Encoding: 65547 -1 142
Width: 240
VWidth: 0
Flags: W
HStem: -274 330
VStem: 110 60<-156 -115>
LayerCount: 2
Fore
SplineSet
204 -209 m 1
 185 -255 l 1
 139 -274 l 1
 93 -255 l 1
 74 -209 l 1
 93 -163 l 1
 110 -156 l 1
 110 -115 l 1
 93 -71 l 1
 55 -55 l 1
 36 -9 l 1
 55 37 l 1
 101 56 l 1
 147 37 l 1
 166 -9 l 1
 149 -51 l 1
 169 -104 l 2
 170 -107 170 -110 170 -112 c 2
 170 -157 l 1
 185 -163 l 1
 204 -209 l 1
EndSplineSet
EndChar

StartChar: hyphen.1
Encoding: 65548 -1 143
Width: 316
VWidth: 0
Flags: W
HStem: 204 229
VStem: 33 249
LayerCount: 2
Fore
SplineSet
282 367 m 1
 263 322 l 1
 217 302 l 1
 193 312 l 1
 157 283 l 1
 163 269 l 1
 144 223 l 1
 98 204 l 1
 52 223 l 1
 33 269 l 1
 52 315 l 1
 98 334 l 1
 122 324 l 1
 158 353 l 1
 152 367 l 1
 171 413 l 1
 217 433 l 1
 263 413 l 1
 282 367 l 1
EndSplineSet
EndChar

StartChar: period.1
Encoding: 65549 -1 144
Width: 206
VWidth: 0
Flags: W
HStem: -166 130
VStem: 38 130
LayerCount: 2
Fore
SplineSet
168 -101 m 1
 149 -147 l 1
 103 -166 l 1
 57 -147 l 1
 38 -101 l 1
 57 -55 l 1
 103 -36 l 1
 149 -55 l 1
 168 -101 l 1
EndSplineSet
EndChar

StartChar: slash.1
Encoding: 65550 -1 145
Width: 414
VWidth: 0
Flags: W
HStem: -111 21G<47 139> 746 20G<275 367>
LayerCount: 2
Fore
SplineSet
386 701 m 1
 367 655 l 1
 334 641 l 1
 138 0 l 1
 139 -0 l 1
 158 -46 l 1
 139 -92 l 1
 93 -111 l 1
 47 -92 l 1
 28 -46 l 1
 47 -0 l 1
 80 14 l 1
 276 655 l 1
 275 655 l 1
 256 701 l 1
 275 747 l 1
 321 766 l 1
 367 747 l 1
 386 701 l 1
EndSplineSet
EndChar

StartChar: zero.1
Encoding: 65551 -1 146
Width: 401
VWidth: 0
Flags: W
HStem: -63 50<142.171 260.819> 776 20G<123 215>
VStem: 29 60<50.4863 315.608>
LayerCount: 2
Fore
SplineSet
180 559 m 1
 166 490 147 423 125 360 c 0
 99 287 87 214 89 152 c 0
 93 41 138 -15 205 -13 c 0
 218 -13 228 -11 237 -8 c 0
 326 21 337 205 246 393 c 0
 219 448 198 504 180 559 c 1
234 731 m 1
 215 685 l 1
 208 682 l 1
 228 584 260 498 302 411 c 0
 397 214 420 -52 207 -63 c 1
 84 -66 33 37 29 150 c 0
 26 218 40 296 67 374 c 0
 102 474 127 567 136 680 c 1
 123 685 l 1
 104 731 l 1
 123 777 l 1
 169 796 l 1
 215 777 l 1
 234 731 l 1
EndSplineSet
EndChar

StartChar: one.1
Encoding: 65552 -1 147
Width: 273
VWidth: 0
Flags: W
HStem: 413 21G<47 139>
VStem: 140 57<312.583 438 521 527 695.172 726.805> 149 60<33 424.417>
LayerCount: 2
Fore
SplineSet
245 -20 m 1xa0
 226 -66 l 1
 180 -85 l 1
 134 -66 l 1
 115 -20 l 1
 134 26 l 1
 149 32 l 1xa0
 142 438 l 1
 139 432 l 1
 93 413 l 1
 47 432 l 1
 28 478 l 1
 47 524 l 1
 82 538 l 1
 138 710 l 2
 144 727 164 729 175 727 c 0
 193 723 197 709 197 704 c 2xc0
 209 33 l 1
 226 26 l 1
 245 -20 l 1xa0
139 524 m 1
 140 521 l 1
 140 527 l 1xc0
 139 524 l 1
EndSplineSet
EndChar

StartChar: two.1
Encoding: 65553 -1 148
Width: 344
VWidth: 0
Flags: W
LayerCount: 2
Fore
SplineSet
316 -19 m 1
 297 -65 l 1
 251 -84 l 1
 205 -65 l 1
 190 -29 l 1
 55 7 l 2
 48 9 36 16 34 28 c 0
 17 167 47 309 124 429 c 1
 96 441 l 1
 77 487 l 1
 78 489 l 1
 23 534 36 608 70 651 c 0
 102 691 164 710 225 675 c 0
 318 622 256 510 205 444 c 0
 118 331 79 190 92 50 c 1
 202 20 l 1
 205 27 l 1
 251 46 l 1
 297 27 l 1
 316 -19 l 1
191 527 m 1
 218 579 218 619 191 634 c 0
 159 652 137 645 119 623 c 0
 99 599 96 564 110 539 c 1
 142 552 l 1
 188 533 l 1
 191 527 l 1
EndSplineSet
EndChar

StartChar: three.1
Encoding: 65554 -1 149
Width: 379
VWidth: 0
Flags: W
HStem: -60 50<165.357 256.717> 448 21G<112 204>
LayerCount: 2
Fore
SplineSet
219 140 m 1
 200 94 l 1
 154 75 l 1
 147 78 l 1
 139 37 167 -10 211 -10 c 0
 250 -11 287 28 290 106 c 0
 291 130 288 156 280 184 c 0
 259 255 223 322 173 380 c 0
 168 385 165 396 171 406 c 0
 201 455 226 508 244 566 c 0
 265 635 257 701 217 719 c 0
 168 741 133 725 109 689 c 0
 82 648 83 593 116 561 c 1
 158 578 l 1
 204 559 l 1
 223 513 l 1
 204 467 l 1
 158 448 l 1
 112 467 l 1
 94 510 l 1
 15 558 18 654 56 713 c 0
 91 766 163 800 245 763 c 0
 331 724 323 623 302 554 c 0
 285 497 260 443 232 396 c 1
 282 334 317 268 338 196 c 1
 374 82 334 -63 209 -60 c 0
 172 -59 143 -44 124 -26 c 0
 84 11 72 70 98 118 c 1
 89 140 l 1
 108 186 l 1
 154 205 l 1
 200 186 l 1
 219 140 l 1
EndSplineSet
EndChar

StartChar: four.1
Encoding: 65555 -1 150
Width: 361
VWidth: 0
Flags: W
VStem: 171 60<30 220> 177 62<325 513> 188 59<705.723 745.596>
LayerCount: 2
Fore
SplineSet
177 274 m 1x40
 183 513 l 1
 101 254 l 1
 177 274 l 1x40
265 -23 m 1
 246 -69 l 1
 200 -88 l 1
 154 -69 l 1
 135 -23 l 1
 154 23 l 1
 171 30 l 1x80
 176 221 l 1
 67 192 l 2
 42 186 24 202 29 222 c 1
 188 728 l 2
 193 745 214 748 225 746 c 0
 243 742 247 728 247 721 c 2x20
 239 325 l 1x40
 268 337 l 1
 314 318 l 1
 333 272 l 1
 314 226 l 1
 268 207 l 1
 236 220 l 1
 231 29 l 1x80
 246 23 l 1
 265 -23 l 1
EndSplineSet
EndChar

StartChar: five.1
Encoding: 65556 -1 151
Width: 390
VWidth: 0
Flags: W
HStem: -45 50<144.447 252.686>
LayerCount: 2
Fore
SplineSet
158 140 m 1
 139 94 l 1
 114 84 l 1
 118 49 143 18 174 8 c 0
 182 6 191 4 202 5 c 0
 261 9 309 77 300 178 c 0
 299 194 295 210 290 229 c 0
 262 329 197 415 109 471 c 0
 103 475 96 483 97 493 c 2
 114 688 l 2
 115 695 120 705 133 709 c 2
 221 739 l 1
 238 780 l 1
 284 799 l 1
 330 780 l 1
 349 734 l 1
 330 688 l 1
 284 669 l 1
 238 688 l 1
 237 690 l 1
 173 669 l 1
 158 502 l 1
 252 438 318 346 348 241 c 0
 383 118 343 -37 206 -45 c 0
 186 -46 168 -43 153 -38 c 0
 91 -19 54 34 53 91 c 1
 47 94 l 1
 28 140 l 1
 47 186 l 1
 93 205 l 1
 139 186 l 1
 158 140 l 1
EndSplineSet
EndChar

StartChar: six.1
Encoding: 65557 -1 152
Width: 394
VWidth: 0
Flags: W
HStem: 4 50<161.016 252.983>
VStem: 304 60<123.003 377.191>
LayerCount: 2
Fore
SplineSet
126 295 m 1
 296 453 l 2
 298 455 303 461 314 462 c 0
 325 463 345 458 348 440 c 0
 359 374 364 306 364 236 c 0
 364 137 328 4 207 4 c 2
 197 4 l 1
 104 10 67 92 60 176 c 1
 48 181 l 1
 29 227 l 1
 48 273 l 1
 63 279 l 1
 81 436 126 591 196 736 c 1
 181 772 l 1
 200 818 l 1
 246 837 l 1
 292 818 l 1
 311 772 l 1
 292 726 l 1
 247 707 l 1
 185 576 144 437 126 295 c 1
159 227 m 1
 140 181 l 1
 120 173 l 1
 128 102 161 57 202 54 c 1
 207 54 l 2
 260 54 304 132 304 236 c 0
 304 285 301 333 296 379 c 1
 152 244 l 1
 159 227 l 1
EndSplineSet
EndChar

StartChar: seven.1
Encoding: 65558 -1 153
Width: 309
VWidth: 0
Flags: W
VStem: 104 60<37 254.996>
LayerCount: 2
Fore
SplineSet
198 -16 m 1
 179 -62 l 1
 133 -81 l 1
 87 -62 l 1
 68 -16 l 1
 87 30 l 1
 104 37 l 1
 109 259 146 480 215 694 c 1
 140 722 l 1
 139 720 l 1
 93 701 l 1
 47 720 l 1
 28 766 l 1
 47 812 l 1
 93 831 l 1
 139 812 l 1
 156 770 l 1
 263 731 l 2
 279 725 283 710 280 701 c 0
 209 485 169 261 164 36 c 1
 179 30 l 1
 198 -16 l 1
EndSplineSet
EndChar

StartChar: eight.1
Encoding: 65559 -1 154
Width: 292
VWidth: 0
Flags: W
LayerCount: 2
Fore
SplineSet
132 372 m 1
 119 333 113 288 102 241 c 0
 76 128 103 42 138 36 c 0
 141 36 145 35 151 36 c 0
 183 40 206 88 191 170 c 0
 189 178 188 188 185 199 c 0
 169 256 153 315 132 372 c 1
168 439 m 1
 174 426 l 1
 205 354 223 280 243 210 c 0
 246 198 249 187 251 178 c 0
 267 92 250 -27 127 -13 c 1
 18 4 19 148 44 251 c 0
 58 308 63 372 92 428 c 0
 95 435 100 440 102 444 c 1
 100 447 l 1
 80 487 54 529 41 580 c 0
 30 623 40 680 76 704 c 1
 88 734 l 1
 134 753 l 1
 180 734 l 1
 194 700 l 1
 238 678 266 632 262 582 c 0
 256 518 201 479 170 441 c 1
 168 439 l 1
99 637 m 1
 95 625 94 609 99 590 c 0
 108 556 125 525 142 493 c 1
 175 528 199 552 202 585 c 1
 202 594 l 2
 202 615 193 632 181 644 c 1
 180 642 l 1
 134 623 l 1
 99 637 l 1
EndSplineSet
EndChar

StartChar: nine.1
Encoding: 65560 -1 155
Width: 363
VWidth: 0
Flags: W
HStem: 641 50<139.098 236.346>
VStem: 29 60<403.163 584.226>
LayerCount: 2
Fore
SplineSet
231 299 m 1
 212 253 l 1
 166 234 l 1
 120 253 l 1
 101 299 l 1
 107 312 l 1
 55 364 26 436 29 511 c 0
 33 601 95 695 195 691 c 0
 206 691 218 689 232 685 c 0
 326 655 338 551 331 470 c 0
 316 306 263 146 174 5 c 1
 186 -24 l 1
 167 -70 l 1
 121 -89 l 1
 75 -70 l 1
 56 -24 l 1
 75 22 l 1
 121 41 l 1
 127 38 l 1
 208 170 258 319 271 473 c 0
 278 556 257 623 211 638 c 0
 204 640 197 641 192 641 c 0
 148 643 93 590 89 509 c 0
 86 450 107 395 143 354 c 1
 166 364 l 1
 212 345 l 1
 231 299 l 1
EndSplineSet
EndChar

StartChar: colon.1
Encoding: 65561 -1 156
Width: 219
VWidth: 0
Flags: W
VStem: 34 151
LayerCount: 2
Fore
SplineSet
164 284 m 1
 145 238 l 1
 99 219 l 1
 53 238 l 1
 34 284 l 1
 53 330 l 1
 99 349 l 1
 145 330 l 1
 164 284 l 1
185 -9 m 1
 166 -55 l 1
 120 -74 l 1
 74 -55 l 1
 55 -9 l 1
 74 37 l 1
 120 56 l 1
 166 37 l 1
 185 -9 l 1
EndSplineSet
EndChar

StartChar: semicolon.1
Encoding: 65562 -1 157
Width: 215
VWidth: 0
Flags: W
VStem: 34 147
LayerCount: 2
Fore
SplineSet
181 260 m 1
 162 214 l 1
 116 195 l 1
 70 214 l 1
 51 260 l 1
 70 306 l 1
 116 325 l 1
 162 306 l 1
 181 260 l 1
179 -208 m 1
 160 -254 l 1
 114 -273 l 1
 68 -254 l 1
 49 -208 l 1
 68 -162 l 1
 95 -151 l 1
 110 -83 l 1
 93 -40 l 1
 53 -24 l 1
 34 22 l 1
 53 68 l 1
 99 87 l 1
 145 68 l 1
 164 22 l 1
 147 -19 l 1
 169 -73 l 2
 171 -78 172 -83 171 -86 c 2
 155 -160 l 1
 160 -162 l 1
 179 -208 l 1
EndSplineSet
EndChar

StartChar: less.1
Encoding: 65563 -1 158
Width: 342
VWidth: 0
Flags: W
VStem: 32 281
LayerCount: 2
Fore
SplineSet
313 60 m 1
 294 14 l 1
 248 -5 l 1
 202 14 l 1
 183 60 l 1
 195 90 l 1
 32 348 l 2
 29 353 26 362 33 372 c 2
 194 594 l 1
 183 621 l 1
 202 667 l 1
 248 686 l 1
 294 667 l 1
 313 621 l 1
 294 575 l 1
 248 556 l 1
 239 560 l 1
 93 359 l 1
 242 123 l 1
 248 125 l 1
 294 106 l 1
 313 60 l 1
EndSplineSet
EndChar

StartChar: equal.1
Encoding: 65564 -1 159
Width: 384
VWidth: 0
Flags: W
HStem: 413 21G<240 332>
VStem: 30 323
LayerCount: 2
Fore
SplineSet
353 240 m 1
 334 194 l 1
 288 175 l 1
 242 194 l 1
 231 220 l 1
 148 227 l 1
 141 211 l 1
 95 192 l 1
 49 211 l 1
 30 257 l 1
 49 303 l 1
 95 322 l 1
 141 303 l 1
 152 277 l 1
 235 270 l 1
 242 286 l 1
 288 305 l 1
 334 286 l 1
 353 240 l 1
351 478 m 1
 332 432 l 1
 286 413 l 1
 240 432 l 1
 235 444 l 1
 170 433 l 1
 158 403 l 1
 112 384 l 1
 66 403 l 1
 47 449 l 1
 66 495 l 1
 112 514 l 1
 158 495 l 1
 163 482 l 1
 227 493 l 1
 240 524 l 1
 286 543 l 1
 332 524 l 1
 351 478 l 1
EndSplineSet
EndChar

StartChar: greater.1
Encoding: 65565 -1 160
Width: 332
VWidth: 0
Flags: W
VStem: 29 271
LayerCount: 2
Fore
SplineSet
159 60 m 1
 140 14 l 1
 94 -5 l 1
 48 14 l 1
 29 60 l 1
 48 106 l 1
 94 125 l 1
 100 123 l 1
 240 346 l 1
 108 565 l 1
 104 563 l 1
 58 582 l 1
 39 628 l 1
 58 674 l 1
 104 693 l 1
 150 674 l 1
 169 628 l 1
 156 597 l 1
 300 356 l 2
 305 347 303 339 300 334 c 2
 147 89 l 1
 159 60 l 1
EndSplineSet
EndChar

StartChar: question.1
Encoding: 65566 -1 161
Width: 305
VWidth: 0
Flags: W
HStem: 486 21G<48 140>
VStem: 29 245
LayerCount: 2
Fore
SplineSet
218 7 m 1
 199 -39 l 1
 153 -58 l 1
 107 -39 l 1
 88 7 l 1
 107 53 l 1
 153 72 l 1
 199 53 l 1
 218 7 l 1
243 235 m 1
 224 189 l 1
 178 170 l 1
 132 189 l 1
 113 235 l 1
 132 281 l 1
 152 289 l 1
 165 380 204 464 214 548 c 0
 221 607 201 655 170 663 c 0
 145 670 119 657 108 627 c 0
 106 622 105 617 104 612 c 1
 140 597 l 1
 159 551 l 1
 140 505 l 1
 94 486 l 1
 48 505 l 1
 29 551 l 1
 45 590 l 1
 42 608 45 626 51 642 c 0
 69 689 124 727 189 710 c 0
 271 688 281 602 274 543 c 0
 263 449 225 368 212 286 c 1
 224 281 l 1
 243 235 l 1
EndSplineSet
EndChar

StartChar: at.1
Encoding: 65567 -1 162
Width: 557
VWidth: 0
Flags: W
HStem: -45 21G<115 207> 658 50<186.69 340.959>
VStem: 464 60<90.341 474.267>
LayerCount: 2
Fore
SplineSet
183 241 m 1
 240 484 l 2
 244 502 264 506 275 504 c 0
 292 501 298 488 299 484 c 2
 362 203 l 1
 391 191 l 1
 410 145 l 1
 391 99 l 1
 386 97 l 1
 401 32 l 1
 436 50 459 119 464 193 c 0
 467 233 467 273 466 310 c 0
 459 515 392 661 259 658 c 0
 247 658 238 657 229 655 c 0
 127 632 60 499 102 366 c 0
 118 315 148 273 183 241 c 1
226 20 m 1
 207 -26 l 1
 161 -45 l 1
 115 -26 l 1
 96 20 l 1
 115 66 l 1
 144 78 l 1
 169 183 l 1
 112 224 67 282 44 353 c 0
 -3 500 63 670 214 703 c 0
 227 706 240 708 257 708 c 0
 457 713 519 508 526 311 c 0
 527 273 527 233 524 191 c 0
 519 106 496 -23 378 -23 c 0
 369 -23 351 -18 348 -3 c 2
 328 87 l 1
 299 99 l 1
 286 129 l 1
 265 134 245 142 223 152 c 1
 203 68 l 1
 207 66 l 1
 226 20 l 1
304 193 m 1
 269 347 l 1
 235 204 l 1
 254 193 274 186 294 180 c 1
 299 191 l 1
 304 193 l 1
EndSplineSet
EndChar

StartChar: A.1
Encoding: 65568 -1 163
Width: 416
VWidth: 0
Flags: W
VStem: 195 60<729.338 793.874>
LayerCount: 2
Fore
SplineSet
361 314 m 1
 342 268 l 1
 310 255 l 1
 344 -63 l 1
 366 -72 l 1
 385 -118 l 1
 366 -164 l 1
 320 -183 l 1
 274 -164 l 1
 255 -118 l 1
 274 -72 l 1
 284 -68 l 1
 250 255 l 1
 199 225 l 1
 202 218 l 1
 183 172 l 1
 158 162 l 1
 132 -1 l 1
 140 -4 l 1
 159 -50 l 1
 140 -96 l 1
 94 -115 l 1
 48 -96 l 1
 29 -50 l 1
 48 -4 l 1
 72 6 l 1
 98 169 l 1
 91 172 l 1
 72 218 l 1
 91 264 l 1
 115 274 l 1
 195 773 l 2
 198 791 218 796 229 795 c 0
 249 793 254 777 255 772 c 2
 297 379 l 1
 342 360 l 1
 361 314 l 1
234 307 m 1
 231 314 l 1
 241 338 l 1
 219 543 l 1
 176 272 l 1
 234 307 l 1
EndSplineSet
EndChar

StartChar: B.1
Encoding: 65569 -1 164
Width: 325
VWidth: 0
Flags: W
VStem: 66 60<63 390 486 653> 232 60<136.08 313.267>
LayerCount: 2
Fore
SplineSet
60 410 m 0
 55 416 53 422 54 428 c 0
 54 429 l 0
 55 437 60 442 66 446 c 1
 67 683 l 1
 51 690 l 1
 32 735 l 1
 51 781 l 1
 97 801 l 1
 143 781 l 1
 162 735 l 1
 152 712 l 1
 279 554 l 2
 285 546 287 530 272 520 c 2
 148 437 l 1
 234 404 290 322 292 234 c 0
 294 138 242 52 158 8 c 1
 140 -36 l 1
 94 -55 l 1
 48 -36 l 1
 29 10 l 1
 48 56 l 1
 64 63 l 1
 66 405 l 1
 64 406 62 408 60 410 c 0
126 390 m 1
 124 63 l 1
 138 57 l 1
 195 93 234 158 232 233 c 0
 230 305 186 365 126 390 c 1
127 653 m 1
 126 486 l 1
 213 545 l 1
 127 653 l 1
EndSplineSet
EndChar

StartChar: C.1
Encoding: 65570 -1 165
Width: 471
VWidth: 0
Flags: W
HStem: 455 21G<329 421>
VStem: 31 60<122.677 535.583> 350 60<575 628.782>
LayerCount: 2
Fore
SplineSet
367 140 m 1
 348 94 l 1
 340 91 l 1
 336 42 302 -5 245 -21 c 1
 124 -51 65 46 44 146 c 0
 33 197 30 256 31 316 c 0
 34 477 32 707 222 726 c 0
 320 736 397 667 409 584 c 0
 410 580 410 575 410 570 c 1
 421 566 l 1
 440 520 l 1
 421 474 l 1
 375 455 l 1
 329 474 l 1
 310 520 l 1
 329 566 l 1
 350 575 l 1
 350 576 350 577 350 578 c 0
 341 642 285 683 229 677 c 0
 109 665 95 496 91 315 c 0
 90 258 94 202 104 155 c 0
 124 58 163 17 217 25 c 0
 221 26 224 26 226 27 c 0
 251 34 272 57 278 85 c 1
 256 94 l 1
 237 140 l 1
 256 186 l 1
 302 205 l 1
 348 186 l 1
 367 140 l 1
EndSplineSet
EndChar

StartChar: D.1
Encoding: 65571 -1 166
Width: 433
VWidth: 0
Flags: W
LayerCount: 2
Fore
SplineSet
67 615 m 1
 48 623 l 1
 29 669 l 1
 48 715 l 1
 94 734 l 1
 140 715 l 1
 159 669 l 1
 157 664 l 1
 299 574 390 422 400 253 c 0
 408 123 324 1 194 -37 c 1
 181 -68 l 1
 135 -87 l 1
 89 -68 l 1
 70 -22 l 1
 89 24 l 1
 102 29 l 1
 67 615 l 1
127 618 m 1
 162 32 l 1
 181 24 l 1
 185 14 l 1
 279 47 347 142 340 250 c 0
 331 403 251 538 130 619 c 1
 127 618 l 1
EndSplineSet
EndChar

StartChar: E.1
Encoding: 65572 -1 167
Width: 397
VWidth: 0
Flags: W
HStem: 389 20G<220 293> 756 20G<244 336>
VStem: 66 60<37 401 511 695>
LayerCount: 2
Fore
SplineSet
312 344 m 1
 293 298 l 1
 247 279 l 1
 202 298 l 1
 182 344 l 1
 187 356 l 1
 126 401 l 1
 127 37 l 1
 240 69 l 1
 255 105 l 1
 301 124 l 1
 347 105 l 1
 366 59 l 1
 347 13 l 1
 301 -6 l 1
 255 13 l 1
 253 19 l 1
 107 -22 l 2
 85 -29 67 -13 67 2 c 2
 66 403 l 1
 48 411 l 1
 29 457 l 1
 48 503 l 1
 66 511 l 1
 66 722 l 2
 66 740 85 747 96 747 c 2
 98 747 l 1
 237 739 l 1
 244 757 l 1
 290 776 l 1
 336 757 l 1
 355 711 l 1
 336 665 l 1
 290 646 l 1
 244 665 l 1
 234 689 l 1
 126 695 l 1
 126 509 l 1
 140 503 l 1
 159 457 l 1
 154 446 l 1
 220 398 l 1
 247 409 l 1
 293 390 l 1
 312 344 l 1
EndSplineSet
EndChar

StartChar: F.1
Encoding: 65573 -1 168
Width: 386
VWidth: 0
Flags: W
VStem: 67 61<546 693> 74 60<546 693> 83 61<256.222 283> 93 60<42 226.5>
LayerCount: 2
Fore
SplineSet
165 492 m 1x40
 146 446 l 1
 138 443 l 1
 142 335 l 1
 146 334 150 333 154 332 c 0
 203 326 236 368 235 411 c 1
 194 428 l 1
 175 474 l 1
 194 520 l 1
 240 539 l 1
 286 520 l 1
 305 474 l 1
 291 439 l 1
 311 358 244 271 145 283 c 2
 144 283 l 1x20
 153 42 l 1
 171 35 l 1
 190 -11 l 1
 171 -57 l 1
 125 -76 l 1
 79 -57 l 1
 60 -11 l 1
 79 35 l 1
 93 41 l 1x10
 83 306 l 1x20
 29 343 14 414 44 469 c 1
 35 492 l 1
 54 538 l 1
 74 546 l 1x40
 67 723 l 2
 66 741 85 749 96 749 c 2
 103 749 l 1
 240 723 l 1
 244 733 l 1
 290 753 l 1
 336 733 l 1
 355 688 l 1
 336 642 l 1
 290 623 l 1
 244 642 l 1
 231 673 l 1
 128 693 l 1x80
 134 543 l 1
 146 538 l 1
 165 492 l 1x40
EndSplineSet
EndChar

StartChar: G.1
Encoding: 65574 -1 169
Width: 409
VWidth: 0
Flags: W
HStem: 262 50<213 294> 486 21G<251 343> 677 50<160.304 256.313>
VStem: 32 60<289.89 559.967> 285 60<53 215.556> 294 61<122.5 262>
LayerCount: 2
Fore
SplineSet
378 0 m 1xf8
 359 -46 l 1
 313 -65 l 1
 268 -46 l 1
 257 -20 l 1
 202 -14 l 2
 34 3 38 204 32 344 c 0
 25 510 50 723 200 727 c 1
 287 727 342 665 340 598 c 1
 343 597 l 1
 362 551 l 1
 343 505 l 1
 297 486 l 1
 251 505 l 1
 232 551 l 1
 251 597 l 1
 281 609 l 1
 277 647 244 677 202 677 c 1
 132 675 84 529 92 346 c 0
 93 326 94 308 95 289 c 1
 112 330 l 1
 158 349 l 1
 204 330 l 1
 212 310 l 1
 324 312 l 2
 345 312 355 297 355 288 c 2
 355 287 l 1xf4
 345 52 l 1
 359 46 l 1
 378 0 l 1xf8
285 53 m 1xf8
 294 262 l 1xf4
 213 260 l 1
 204 238 l 1
 158 219 l 1
 112 238 l 1
 96 278 l 1
 105 148 125 45 209 36 c 2
 261 31 l 1
 268 46 l 1
 285 53 l 1xf8
EndSplineSet
EndChar

StartChar: H.1
Encoding: 65575 -1 170
Width: 473
VWidth: 0
Flags: W
HStem: 409 50<195 301> 483 20G<132 186>
VStem: 66 66<500 641> 301 60<208.139 409 459 604.916>
LayerCount: 2
Fore
SplineSet
442 696 m 1
 423 650 l 1
 390 636 l 1
 373 570 363 502 361 432 c 0
 361 431 l 0
 358 313 365 193 381 74 c 1
 406 64 l 1
 425 18 l 1
 406 -28 l 1
 360 -47 l 1
 314 -28 l 1
 295 18 l 1
 314 64 l 1
 322 67 l 1
 306 181 299 295 301 409 c 1
 194 412 l 1
 186 392 l 1
 140 373 l 1
 138 374 l 1
 152 47 l 1
 170 39 l 1
 189 -7 l 1
 170 -53 l 1
 124 -72 l 1
 79 -53 l 1
 59 -7 l 1
 79 39 l 1
 92 44 l 1
 66 641 l 1
 48 649 l 1
 29 695 l 1
 48 741 l 1
 94 760 l 1
 140 741 l 1
 159 695 l 1
 140 649 l 1
 126 643 l 1
 132 500 l 1
 140 503 l 1
 186 484 l 1
 195 462 l 1
 302 459 l 1
 305 524 316 587 332 649 c 1
 331 650 l 1
 312 696 l 1
 331 742 l 1
 377 761 l 1
 423 742 l 1
 442 696 l 1
EndSplineSet
EndChar

StartChar: I.1
Encoding: 65576 -1 171
Width: 208
VWidth: 0
Flags: W
HStem: 745 20G<66 158>
VStem: 82 60<9.60864 647>
LayerCount: 2
Fore
SplineSet
177 700 m 1
 158 654 l 1
 143 648 l 1
 144 588 144 528 142 466 c 0
 140 390 144 313 142 233 c 0
 140 157 136 80 129 2 c 1
 140 -3 l 1
 159 -49 l 1
 140 -95 l 1
 94 -114 l 1
 48 -95 l 1
 29 -49 l 1
 48 -3 l 1
 69 6 l 1
 76 83 80 159 82 234 c 0
 84 312 80 390 82 467 c 0
 84 528 84 588 83 647 c 1
 66 654 l 1
 47 700 l 1
 66 746 l 1
 112 765 l 1
 158 746 l 1
 177 700 l 1
EndSplineSet
EndChar

StartChar: J.1
Encoding: 65577 -1 172
Width: 404
VWidth: 0
Flags: W
LayerCount: 2
Fore
SplineSet
373 741 m 1
 354 695 l 1
 332 686 l 1
 260 -5 l 2
 258 -23 238 -29 227 -28 c 1
 226 -28 l 1
 146 -20 l 1
 140 -36 l 1
 94 -55 l 1
 48 -36 l 1
 29 10 l 1
 48 56 l 1
 94 75 l 1
 140 56 l 1
 151 29 l 1
 203 24 l 1
 273 691 l 1
 262 695 l 1
 243 741 l 1
 262 787 l 1
 308 806 l 1
 354 787 l 1
 373 741 l 1
EndSplineSet
EndChar

StartChar: K.1
Encoding: 65578 -1 173
Width: 500
VWidth: 0
Flags: W
VStem: 65 60<332 557> 74 60<159 189 332 469>
LayerCount: 2
Fore
SplineSet
469 27 m 1x80
 450 -19 l 1
 404 -38 l 1
 358 -19 l 1
 339 27 l 1
 343 37 l 1
 311 64 284 97 264 136 c 0
 234 195 210 259 193 325 c 1
 168 280 l 1
 182 247 l 1
 163 201 l 1
 134 189 l 1
 135 159 l 1
 152 152 l 1
 171 106 l 1
 152 60 l 1
 106 41 l 1
 60 60 l 1
 41 106 l 1
 60 152 l 1
 75 158 l 1
 74 200 l 1x40
 71 201 l 1
 52 247 l 1
 71 293 l 1
 72 293 l 1
 65 557 l 1
 48 564 l 1
 29 610 l 1
 48 656 l 1
 94 675 l 1
 140 656 l 1
 159 610 l 1
 140 564 l 1
 125 558 l 1
 131 332 l 1
 176 416 l 2
 177 419 179 423 182 426 c 2
 333 705 l 1
 319 739 l 1
 338 785 l 1
 384 804 l 1
 430 785 l 1
 449 739 l 1
 430 693 l 1
 384 674 l 1
 382 675 l 1
 237 407 l 1
 250 318 279 233 319 155 c 0
 334 126 353 100 376 80 c 1
 404 92 l 1
 450 73 l 1
 469 27 l 1x80
EndSplineSet
EndChar

StartChar: L.1
Encoding: 65579 -1 174
Width: 411
VWidth: 0
Flags: W
LayerCount: 2
Fore
SplineSet
380 -99 m 1
 361 -145 l 1
 315 -164 l 1
 269 -145 l 1
 250 -99 l 1
 259 -77 l 1
 154 49 l 2
 152 52 150 55 149 60 c 2
 70 705 l 1
 48 714 l 1
 29 760 l 1
 48 806 l 1
 94 825 l 1
 140 806 l 1
 159 760 l 1
 140 714 l 1
 130 710 l 1
 208 72 l 1
 302 -39 l 1
 315 -34 l 1
 361 -53 l 1
 380 -99 l 1
EndSplineSet
EndChar

StartChar: M.1
Encoding: 65580 -1 175
Width: 484
VWidth: 0
Flags: W
VStem: 66 60<77 279.263> 351 59<540.674 589.495> 357 60<158 328>
LayerCount: 2
Fore
SplineSet
453 105 m 1xa0
 434 59 l 1
 388 40 l 1
 342 59 l 1
 323 105 l 1
 342 151 l 1
 357 157 l 1xa0
 354 328 l 1
 286 40 l 2
 285 34 278 23 262 20 c 0
 251 18 231 22 227 40 c 2
 137 408 l 1
 126 76 l 1
 140 70 l 1
 159 24 l 1
 140 -22 l 1
 94 -41 l 1
 48 -22 l 1
 29 24 l 1
 48 70 l 1
 66 77 l 1
 85 626 l 2
 86 644 104 651 115 651 c 0
 135 651 143 636 144 631 c 2
 256 172 l 1
 351 570 l 2
 355 588 375 592 386 590 c 0
 405 587 410 571 410 565 c 2xc0
 417 158 l 1
 434 151 l 1
 453 105 l 1xa0
EndSplineSet
EndChar

StartChar: N.1
Encoding: 65581 -1 176
Width: 434
VWidth: 0
Flags: W
VStem: 51 63<470.778 571 730 743.938> 63 60<120 470.167>
LayerCount: 2
Fore
SplineSet
363 642 m 1x80
 344 596 l 1
 334 592 l 1
 402 46 l 2
 403 39 400 25 383 20 c 0
 373 17 351 18 344 35 c 2
 114 571 l 1x80
 123 120 l 1
 140 113 l 1
 159 67 l 1
 140 21 l 1
 94 2 l 1
 48 21 l 1
 29 67 l 1
 48 113 l 1
 63 119 l 1x40
 51 721 l 2
 51 739 69 746 80 746 c 0
 97 746 106 736 109 730 c 2
 317 247 l 1
 275 587 l 1
 252 596 l 1
 233 642 l 1
 252 688 l 1
 298 707 l 1
 344 688 l 1
 363 642 l 1x80
EndSplineSet
EndChar

StartChar: O.1
Encoding: 65582 -1 177
Width: 415
VWidth: 0
Flags: W
HStem: -19 49<163.73 267.556>
LayerCount: 2
Fore
SplineSet
257 744 m 1
 238 698 l 1
 235 697 l 1
 262 600 296 503 336 408 c 0
 408 236 403 27 261 -14 c 0
 243 -19 223 -21 200 -19 c 0
 31 -4 50 202 41 337 c 0
 31 488 -4 712 134 760 c 1
 146 790 l 1
 192 809 l 1
 238 790 l 1
 257 744 l 1
143 706 m 1
 80 661 90 505 101 340 c 0
 112 178 110 39 207 30 c 0
 221 29 231 30 241 33 c 0
 318 55 352 217 279 391 c 0
 238 488 205 586 177 685 c 1
 146 698 l 1
 143 706 l 1
EndSplineSet
EndChar

StartChar: P.1
Encoding: 65583 -1 178
Width: 425
VWidth: 0
Flags: W
LayerCount: 2
Fore
SplineSet
159 488 m 1
 140 442 l 1
 115 432 l 1
 138 -29 l 1
 157 -37 l 1
 176 -82 l 1
 157 -128 l 1
 111 -147 l 1
 65 -128 l 1
 46 -82 l 1
 65 -37 l 1
 78 -31 l 1
 54 440 l 1
 48 442 l 1
 29 488 l 1
 48 534 l 1
 49 534 l 1
 35 808 l 2
 34 826 53 834 64 834 c 0
 76 834 84 829 84 829 c 1
 382 633 l 2
 404 618 390 597 378 591 c 2
 159 489 l 1
 159 488 l 1
109 547 m 1
 136 536 l 1
 310 617 l 1
 98 756 l 1
 109 547 l 1
EndSplineSet
EndChar

StartChar: Q.1
Encoding: 65584 -1 179
Width: 507
VWidth: 0
Flags: W
VStem: 33 59<150.858 399.627> 367 60<149.376 394.848>
LayerCount: 2
Fore
SplineSet
476 -118 m 1
 457 -164 l 1
 411 -183 l 1
 365 -164 l 1
 360 -151 l 1
 340 -154 l 2
 330 -155 312 -153 306 -139 c 2
 239 11 l 1
 117 6 47 108 33 224 c 0
 27 277 31 336 50 397 c 0
 74 472 112 546 169 606 c 1
 162 623 l 1
 181 669 l 1
 227 688 l 1
 273 669 l 1
 292 623 l 1
 285 605 l 1
 370 517 422 401 427 277 c 0
 431 178 394 61 298 23 c 1
 353 -100 l 1
 365 -72 l 1
 411 -53 l 1
 457 -72 l 1
 476 -118 l 1
196 107 m 1
 154 124 l 1
 135 170 l 1
 154 216 l 1
 200 235 l 1
 246 216 l 1
 265 170 l 1
 249 132 l 1
 277 71 l 1
 335 99 371 181 367 275 c 0
 362 385 318 488 246 566 c 1
 227 558 l 1
 207 566 l 1
 161 514 129 451 108 384 c 0
 91 329 87 276 92 229 c 0
 104 131 154 71 216 62 c 1
 196 107 l 1
EndSplineSet
EndChar

StartChar: R.1
Encoding: 65585 -1 180
Width: 534
VWidth: 0
Flags: W
VStem: 70 60<535.944 686> 89 63<285.58 293.922 370 421.409> 98 60<67 204>
LayerCount: 2
Fore
SplineSet
148 297 m 1x80
 211 261 298 269 352 330 c 0
 372 353 388 384 392 425 c 0
 407 578 292 706 153 717 c 1
 144 694 l 1
 130 688 l 1
 148 297 l 1x80
503 -87 m 1
 484 -133 l 1
 438 -152 l 1
 392 -133 l 1
 373 -87 l 1
 382 -65 l 1
 152 204 l 1x40
 158 67 l 1x20
 176 59 l 1
 195 14 l 1
 176 -32 l 1
 130 -51 l 1x80
 84 -32 l 1
 65 14 l 1
 84 59 l 1
 98 65 l 1x20
 89 274 l 1x40
 65 294 45 318 31 346 c 0
 23 362 38 375 48 379 c 0
 66 385 80 374 84 370 c 1
 70 686 l 1x80
 52 694 l 1
 33 740 l 1
 52 786 l 1
 98 805 l 1x20
 144 786 l 1
 152 767 l 1x40
 153 767 155 767 156 767 c 0
 338 755 470 596 452 421 c 0
 439 290 321 216 207 226 c 1
 424 -28 l 1
 438 -22 l 1
 484 -41 l 1
 503 -87 l 1
EndSplineSet
EndChar

StartChar: S.1
Encoding: 65586 -1 181
Width: 461
VWidth: 0
Flags: W
HStem: 398 53<137.054 312.674>
VStem: 356 60<139.31 349.462>
LayerCount: 2
Fore
SplineSet
430 604 m 1
 411 558 l 1
 365 539 l 1
 319 558 l 1
 300 604 l 1
 310 629 l 1
 270 683 l 1
 204 724 132 696 101 622 c 0
 72 553 93 476 180 451 c 0
 205 444 245 458 296 445 c 0
 389 422 416 329 416 254 c 0
 416 152 374 57 302 -13 c 0
 285 -30 264 -20 256 -12 c 2
 194 51 l 1
 177 44 l 1
 131 63 l 1
 112 109 l 1
 131 155 l 1
 177 174 l 1
 222 155 l 1
 242 109 l 1
 234 90 l 1
 279 43 l 1
 326 99 356 175 356 254 c 0
 356 325 327 386 279 398 c 0
 255 404 215 387 160 403 c 0
 31 441 9 555 44 639 c 0
 74 709 153 776 257 745 c 0
 274 740 292 732 311 720 c 0
 313 719 316 717 318 714 c 2
 355 665 l 1
 365 669 l 1
 411 650 l 1
 430 604 l 1
EndSplineSet
EndChar

StartChar: T.1
Encoding: 65587 -1 182
Width: 462
VWidth: 0
Flags: W
HStem: 774 20G<320 412>
VStem: 185 60<22 329.467> 199 61<373.533 670>
LayerCount: 2
Fore
SplineSet
279 -31 m 1xa0
 260 -76 l 1xa0
 214 -96 l 1
 168 -76 l 1
 149 -31 l 1
 168 15 l 1
 185 22 l 1xc0
 199 670 l 1
 153 661 l 1
 140 629 l 1
 94 610 l 1
 48 629 l 1
 29 675 l 1
 48 721 l 1
 94 740 l 1
 140 721 l 1
 144 711 l 1
 307 743 l 1
 320 775 l 1
 366 794 l 1
 412 775 l 1
 431 729 l 1
 412 683 l 1
 366 664 l 1
 320 683 l 1
 316 693 l 1
 260 682 l 1xa0
 245 21 l 1xc0
 260 15 l 1
 279 -31 l 1xa0
EndSplineSet
EndChar

StartChar: U.1
Encoding: 65588 -1 183
Width: 434
VWidth: 0
Flags: W
HStem: -11 50<192.381 280.994>
VStem: 60 60<113.255 643> 297 60<53.9535 453.1> 307 60<252.2 604>
LayerCount: 2
Fore
SplineSet
403 657 m 1xd0
 384 611 l 1
 367 604 l 1xd0
 357 101 l 2
 356 43 308 -12 239 -11 c 0
 228 -11 215 -8 200 -3 c 0
 118 28 59 103 60 191 c 0
 61 211 63 518 64 644 c 1
 48 650 l 1
 29 696 l 1
 48 742 l 1
 94 761 l 1
 140 742 l 1
 159 696 l 1
 140 650 l 1
 124 643 l 1
 123 517 121 210 120 190 c 0
 119 121 166 64 225 42 c 0
 231 40 237 39 241 39 c 0
 266 39 296 62 297 101 c 2xe0
 307 605 l 1
 292 611 l 1
 273 657 l 1
 292 703 l 1
 338 722 l 1
 384 703 l 1
 403 657 l 1xd0
EndSplineSet
EndChar

StartChar: V.1
Encoding: 65589 -1 184
Width: 404
VWidth: 0
Flags: W
VStem: 67 60<438.7 576>
LayerCount: 2
Fore
SplineSet
373 635 m 1
 354 589 l 1
 322 576 l 1
 155 -6 l 2
 153 -11 146 -24 127 -25 c 0
 116 -25 97 -19 96 -1 c 2
 67 576 l 1
 48 584 l 1
 29 630 l 1
 48 675 l 1
 94 695 l 1
 140 675 l 1
 159 630 l 1
 140 584 l 1
 127 578 l 1
 147 180 l 1
 264 588 l 1
 262 589 l 1
 243 635 l 1
 262 681 l 1
 308 700 l 1
 354 681 l 1
 373 635 l 1
EndSplineSet
EndChar

StartChar: W.1
Encoding: 65590 -1 185
Width: 574
VWidth: 0
Flags: W
VStem: 145 60<48.091 130.107> 203 59<597.069 652.264>
LayerCount: 2
Fore
SplineSet
543 585 m 1x40
 524 539 l 1
 498 528 l 1
 394 -33 l 2
 393 -40 386 -52 369 -54 c 0
 358 -56 338 -51 334 -33 c 2
 242 429 l 1
 205 70 l 2
 204 63 197 49 178 47 c 0
 167 46 147 52 145 70 c 2x80
 70 714 l 1
 48 723 l 1
 29 769 l 1
 48 815 l 1
 94 834 l 1
 140 815 l 1
 159 769 l 1
 140 723 l 1
 130 719 l 1
 173 346 l 1
 203 631 l 2
 205 649 224 654 235 653 c 0
 253 652 261 639 262 632 c 2
 363 128 l 1
 439 536 l 1
 432 539 l 1
 413 585 l 1
 432 631 l 1
 478 650 l 1
 524 631 l 1
 543 585 l 1x40
EndSplineSet
EndChar

StartChar: X.1
Encoding: 65591 -1 186
Width: 437
VWidth: 0
Flags: W
HStem: 775 20G<249 341>
LayerCount: 2
Fore
SplineSet
360 730 m 1
 341 684 l 1
 310 671 l 1
 244 419 l 1
 355 23 l 1
 386 10 l 1
 406 -36 l 1
 386 -82 l 1
 341 -101 l 1
 295 -82 l 1
 276 -36 l 1
 295 10 l 1
 296 11 l 1
 213 304 l 1
 137 13 l 1
 140 12 l 1
 159 -34 l 1
 140 -80 l 1
 94 -99 l 1
 48 -80 l 1
 29 -34 l 1
 48 12 l 1
 79 25 l 1
 182 417 l 1
 127 611 l 1
 96 624 l 1
 77 670 l 1
 96 716 l 1
 142 735 l 1
 187 716 l 1
 207 670 l 1
 187 624 l 1
 186 623 l 1
 212 532 l 1
 251 683 l 1
 249 684 l 1
 230 730 l 1
 249 776 l 1
 295 795 l 1
 341 776 l 1
 360 730 l 1
EndSplineSet
EndChar

StartChar: Y.1
Encoding: 65592 -1 187
Width: 443
VWidth: 0
Flags: W
LayerCount: 2
Fore
SplineSet
290 73 m 1
 271 27 l 1
 225 8 l 1
 180 27 l 1
 160 73 l 1
 180 119 l 1
 189 123 l 1
 171 257 l 1
 80 574 l 1
 48 587 l 1
 29 633 l 1
 48 679 l 1
 94 698 l 1
 140 679 l 1
 159 633 l 1
 140 587 l 1
 138 586 l 1
 203 359 l 1
 300 640 l 1
 282 684 l 1
 301 730 l 1
 347 749 l 1
 393 730 l 1
 412 684 l 1
 393 638 l 1
 357 623 l 1
 232 260 l 1
 248 128 l 1
 271 119 l 1
 290 73 l 1
EndSplineSet
EndChar

StartChar: Z.1
Encoding: 65593 -1 188
Width: 441
VWidth: 0
Flags: W
HStem: 722 20G<48 140>
LayerCount: 2
Fore
SplineSet
410 96 m 1
 391 50 l 1
 345 31 l 1
 299 50 l 1
 287 80 l 1
 160 98 l 1
 159 98 l 1
 148 100 131 111 136 128 c 2
 295 708 l 1
 156 669 l 1
 140 631 l 1
 94 612 l 1
 48 631 l 1
 29 677 l 1
 48 723 l 1
 94 742 l 1
 140 723 l 1
 142 717 l 1
 326 769 l 2
 349 776 370 760 365 740 c 2
 202 143 l 1
 294 129 l 1
 299 142 l 1
 345 161 l 1
 391 142 l 1
 410 96 l 1
EndSplineSet
EndChar

StartChar: bracketleft.1
Encoding: 65594 -1 189
Width: 275
VWidth: 0
Flags: W
VStem: 29 217
LayerCount: 2
Fore
SplineSet
237 -1 m 1
 218 -47 l 1
 172 -66 l 1
 127 -47 l 1
 115 -19 l 1
 54 -11 l 2
 43 -9 28 0 29 16 c 2
 88 716 l 1
 88 733 113 747 135 735 c 2
 145 729 l 1
 181 744 l 1
 227 725 l 1
 246 679 l 1
 227 633 l 1
 181 614 l 1
 142 630 l 1
 91 35 l 1
 121 31 l 1
 127 45 l 1
 172 64 l 1
 218 45 l 1
 237 -1 l 1
EndSplineSet
EndChar

StartChar: backslash.1
Encoding: 65595 -1 190
Width: 313
VWidth: 0
Flags: W
VStem: 28 257
LayerCount: 2
Fore
SplineSet
285 -84 m 1
 266 -130 l 1
 220 -149 l 1
 174 -130 l 1
 155 -84 l 1
 174 -38 l 1
 182 -35 l 1
 71 687 l 1
 47 697 l 1
 28 743 l 1
 47 789 l 1
 93 808 l 1
 139 789 l 1
 158 743 l 1
 139 697 l 1
 131 694 l 1
 242 -28 l 1
 266 -38 l 1
 285 -84 l 1
EndSplineSet
EndChar

StartChar: bracketright.1
Encoding: 65596 -1 191
Width: 259
VWidth: 0
Flags: W
HStem: -44 21G<156 207.5>
VStem: 142 59<510 655> 169 61<12 150>
LayerCount: 2
Fore
SplineSet
163 13 m 1xa0
 169 12 l 1xa0
 142 655 l 1
 140 650 l 1
 94 631 l 1
 48 650 l 1
 29 696 l 1
 48 742 l 1
 94 761 l 1
 140 742 l 1
 154 707 l 1
 180 701 l 2
 195 697 201 685 201 678 c 2xc0
 230 -18 l 2
 231 -36 213 -44 202 -44 c 2
 195 -44 l 1
 156 -37 l 1
 151 -49 l 1
 105 -68 l 1
 59 -49 l 1
 40 -3 l 1
 59 43 l 1
 105 62 l 1
 151 43 l 1
 163 13 l 1xa0
EndSplineSet
EndChar

StartChar: asciicircum.1
Encoding: 65597 -1 192
Width: 392
VWidth: 0
Flags: W
VStem: 30 332
LayerCount: 2
Fore
SplineSet
362 437 m 1
 343 391 l 1
 297 372 l 1
 251 391 l 1
 232 437 l 1
 249 478 l 1
 194 620 l 1
 142 467 l 1
 160 423 l 1
 141 377 l 1
 95 358 l 1
 49 377 l 1
 30 423 l 1
 49 469 l 1
 84 484 l 1
 163 713 l 2
 173 742 216 730 221 714 c 2
 304 499 l 1
 343 483 l 1
 362 437 l 1
EndSplineSet
EndChar

StartChar: underscore.1
Encoding: 65598 -1 193
Width: 519
VWidth: 0
Flags: W
HStem: -230 169
LayerCount: 2
Fore
SplineSet
479 -165 m 1
 460 -211 l 1
 414 -230 l 1
 368 -211 l 1
 357 -183 l 1
 157 -158 l 1
 151 -172 l 1
 105 -191 l 1
 59 -172 l 1
 40 -126 l 1
 59 -81 l 1
 105 -61 l 1
 151 -81 l 1
 163 -109 l 1
 362 -134 l 1
 368 -119 l 1
 414 -100 l 1
 460 -119 l 1
 479 -165 l 1
EndSplineSet
EndChar

StartChar: grave.1
Encoding: 65599 -1 194
Width: 204
VWidth: 0
Flags: W
HStem: 505 203
VStem: 33 138
LayerCount: 2
Fore
SplineSet
163 570 m 1
 144 524 l 1
 98 505 l 1
 52 524 l 1
 33 570 l 1
 52 616 l 1
 41 643 l 1
 60 689 l 1
 106 708 l 1
 152 689 l 1
 171 643 l 1
 152 597 l 1
 163 570 l 1
EndSplineSet
EndChar

StartChar: a.1
Encoding: 65600 -1 195
Width: 437
VWidth: 0
Flags: W
LayerCount: 2
Fore
SplineSet
385 195 m 1
 366 149 l 1
 339 138 l 1
 356 70 l 1
 387 57 l 1
 406 11 l 1
 387 -35 l 1
 341 -54 l 1
 295 -35 l 1
 276 11 l 1
 295 57 l 1
 298 58 l 1
 275 149 l 1
 274 149 l 1
 271 155 l 1
 161 126 l 1
 145 72 l 1
 147 71 l 1
 166 25 l 1
 147 -21 l 1
 101 -40 l 1
 55 -21 l 1
 36 25 l 1
 55 71 l 1
 72 78 l 1
 48 88 l 1
 29 134 l 1
 48 180 l 1
 94 199 l 1
 117 190 l 1
 195 468 l 2
 200 485 220 488 231 486 c 0
 247 483 253 471 254 467 c 2
 309 255 l 1
 320 260 l 1
 366 241 l 1
 385 195 l 1
259 204 m 1
 260 207 l 1
 223 348 l 1
 177 182 l 1
 259 204 l 1
EndSplineSet
EndChar

StartChar: b.1
Encoding: 65601 -1 196
Width: 417
VWidth: 0
Flags: W
VStem: 67 60<59 220 283 413> 325 60<45.2719 189.23>
LayerCount: 2
Fore
SplineSet
162 241 m 1
 127 220 l 1
 125 58 l 1
 140 52 l 1
 159 6 l 1
 155 -3 l 1
 194 -20 238 -13 272 12 c 0
 302 33 325 69 325 118 c 0
 324 199 259 247 198 247 c 0
 186 247 174 245 162 241 c 1
243 292 m 1
 323 273 384 204 385 118 c 0
 385 55 355 5 312 -26 c 0
 259 -64 186 -74 124 -47 c 1
 94 -59 l 1
 48 -40 l 1
 29 6 l 1
 48 52 l 1
 65 59 l 1
 67 215 l 1
 59 225 62 236 68 243 c 1
 70 414 l 1
 55 420 l 1
 36 466 l 1
 55 512 l 1
 101 531 l 1
 147 512 l 1
 166 466 l 1
 164 462 l 1
 317 380 l 2
 329 374 341 353 319 339 c 2
 243 292 l 1
129 284 m 1
 248 358 l 1
 138 416 l 1
 130 413 l 1
 128 283 l 1
 129 284 l 1
EndSplineSet
EndChar

StartChar: c.1
Encoding: 65602 -1 197
Width: 451
VWidth: 0
Flags: W
LayerCount: 2
Fore
SplineSet
418 84 m 1
 399 38 l 1
 354 19 l 1
 336 -2 312 -17 281 -24 c 0
 174 -48 96 40 60 125 c 0
 -9 286 47 465 181 504 c 0
 208 512 239 514 272 506 c 0
 330 493 371 449 383 397 c 1
 401 390 l 1
 420 344 l 1
 401 299 l 1
 355 279 l 1
 309 299 l 1
 290 344 l 1
 309 390 l 1
 322 395 l 1
 312 427 286 451 256 458 c 0
 235 463 216 462 200 457 c 0
 117 433 52 291 116 141 c 0
 152 58 212 12 265 24 c 0
 279 27 293 35 303 47 c 1
 288 84 l 1
 307 130 l 1
 353 149 l 1
 399 130 l 1
 418 84 l 1
EndSplineSet
EndChar

StartChar: d.1
Encoding: 65603 -1 198
Width: 450
VWidth: 0
Flags: W
HStem: 41 50<151 233.745>
VStem: 64 60<124 417> 358 60<216.16 390.516>
LayerCount: 2
Fore
SplineSet
162 470 m 1
 143 424 l 1
 127 417 l 1
 124 123 l 1
 140 117 l 1
 151 91 l 1
 260 95 357 186 358 309 c 0
 358 414 260 494 162 470 c 1
140 517 m 1
 222 539 309 512 363 453 c 0
 397 416 418 367 418 309 c 0
 417 164 298 43 146 41 c 1
 140 26 l 1
 94 6 l 1
 48 26 l 1
 29 71 l 1
 48 117 l 1
 64 124 l 1
 67 418 l 1
 51 424 l 1
 32 470 l 1
 51 516 l 1
 97 535 l 1
 140 517 l 1
EndSplineSet
EndChar

StartChar: e.1
Encoding: 65604 -1 199
Width: 390
VWidth: 0
Flags: W
HStem: 476 20G<219 311>
VStem: 59 59<332 398>
LayerCount: 2
Fore
SplineSet
322 255 m 1
 303 210 l 1
 257 190 l 1
 211 210 l 1
 199 238 l 1
 146 245 l 1
 140 230 l 1
 114 219 l 1
 109 37 l 1
 241 27 l 1
 248 44 l 1
 294 63 l 1
 340 44 l 1
 359 -2 l 1
 340 -48 l 1
 294 -67 l 1
 248 -48 l 1
 238 -23 l 1
 75 -11 l 2
 55 -10 48 6 48 15 c 2
 54 228 l 1
 48 230 l 1
 29 276 l 1
 48 322 l 1
 56 325 l 1
 59 422 l 2
 59 438 76 445 87 446 c 2
 209 453 l 1
 219 477 l 1
 265 496 l 1
 311 477 l 1
 330 431 l 1
 311 385 l 1
 265 366 l 1
 219 385 l 1
 212 403 l 1
 118 398 l 1
 116 332 l 1
 140 322 l 1
 151 294 l 1
 205 287 l 1
 211 301 l 1
 257 320 l 1
 303 301 l 1
 322 255 l 1
EndSplineSet
EndChar

StartChar: f.1
Encoding: 65605 -1 200
Width: 393
VWidth: 0
Flags: W
HStem: -45 21G<53 145> 416 50<114 217>
VStem: 59 59<298 416> 67 60<73 127>
LayerCount: 2
Fore
SplineSet
362 278 m 1xe0
 343 232 l 1
 331 227 l 1
 324 172 283 121 216 110 c 0
 182 104 151 111 125 127 c 1
 127 73 l 1
 145 66 l 1
 164 20 l 1
 145 -26 l 1
 99 -45 l 1
 53 -26 l 1
 34 20 l 1
 53 66 l 1
 67 72 l 1xd0
 62 192 l 1
 48 198 l 1
 29 244 l 1
 48 289 l 1
 59 294 l 1
 53 440 l 2
 52 458 71 466 82 466 c 2
 83 466 l 1
 217 467 l 1
 226 489 l 1
 272 508 l 1
 318 489 l 1
 337 443 l 1
 318 397 l 1
 272 378 l 1
 226 397 l 1
 218 417 l 1
 114 416 l 1
 118 298 l 1
 140 289 l 1
 159 244 l 1
 140 198 l 1
 133 195 l 1
 148 168 179 155 204 159 c 0
 236 165 262 191 270 224 c 1
 251 232 l 1
 232 278 l 1
 251 324 l 1
 297 343 l 1
 343 324 l 1
 362 278 l 1xe0
EndSplineSet
EndChar

StartChar: g.1
Encoding: 65606 -1 201
Width: 396
VWidth: 0
Flags: W
HStem: 136 49<223 275> 402 50<151.928 241.854>
VStem: 275 61<53 136>
LayerCount: 2
Fore
SplineSet
365 0 m 1
 346 -46 l 1
 300 -65 l 1
 254 -46 l 1
 244 -22 l 1
 213 -20 l 2
 93 -13 39 103 31 208 c 0
 23 322 80 447 191 452 c 0
 240 455 280 433 302 399 c 1
 336 385 l 1
 355 339 l 1
 336 293 l 1
 290 274 l 1
 244 293 l 1
 225 339 l 1
 243 383 l 1
 231 395 214 402 194 402 c 0
 144 400 83 321 91 212 c 0
 99 110 151 34 217 30 c 2
 247 28 l 1
 254 46 l 1
 272 53 l 1
 275 136 l 1
 223 136 l 1
 214 114 l 1
 168 95 l 1
 122 114 l 1
 103 160 l 1
 122 206 l 1
 168 225 l 1
 214 206 l 1
 223 185 l 1
 306 186 l 2
 327 186 336 171 336 162 c 2
 336 161 l 1
 332 52 l 1
 346 46 l 1
 365 0 l 1
EndSplineSet
EndChar

StartChar: h.1
Encoding: 65607 -1 202
Width: 498
VWidth: 0
Flags: W
HStem: 448 20G<356 448> 464 20G<48 140 356 448>
VStem: 352 61<74.8594 227>
LayerCount: 2
Fore
SplineSet
467 403 m 1xa0
 448 357 l 1
 422 346 l 1
 418 317 414 288 413 258 c 0
 413 256 413 255 413 253 c 0
 411 194 414 133 420 72 c 1
 441 63 l 1
 460 17 l 1
 441 -29 l 1
 395 -48 l 1
 349 -29 l 1
 330 17 l 1
 349 63 l 1
 360 67 l 1
 355 121 351 175 352 227 c 1
 197 207 l 1
 185 178 l 1
 148 163 l 1
 158 50 l 1
 180 41 l 1
 199 -5 l 1
 180 -51 l 1
 134 -70 l 1
 88 -51 l 1
 69 -5 l 1
 88 41 l 1
 99 46 l 1
 85 198 l 1
 74 224 l 1
 81 240 l 1
 69 364 l 1
 48 373 l 1
 29 419 l 1
 48 465 l 1
 94 484 l 1x60
 140 465 l 1
 159 419 l 1
 140 373 l 1
 129 368 l 1
 136 288 l 1
 139 289 l 1
 185 270 l 1
 191 257 l 1
 354 279 l 1
 356 305 358 329 362 354 c 1
 356 357 l 1
 337 403 l 1
 356 449 l 1
 402 468 l 1
 448 449 l 1
 467 403 l 1xa0
EndSplineSet
EndChar

StartChar: i.1
Encoding: 65608 -1 203
Width: 203
VWidth: 0
Flags: W
HStem: 465 20G<48 140>
VStem: 64 60<5.20239 367>
LayerCount: 2
Fore
SplineSet
159 420 m 1
 140 374 l 1
 123 367 l 1
 123 339 123 311 124 281 c 0
 125 235 123 188 124 141 c 0
 125 96 128 50 132 3 c 1
 153 -6 l 1
 172 -52 l 1
 153 -98 l 1
 107 -117 l 1
 61 -98 l 1
 42 -52 l 1
 61 -6 l 1
 72 -1 l 1
 68 47 65 93 64 139 c 0
 63 188 65 235 64 279 c 0
 63 309 63 339 63 368 c 1
 48 374 l 1
 29 420 l 1
 48 466 l 1
 94 485 l 1
 140 466 l 1
 159 420 l 1
EndSplineSet
EndChar

StartChar: j.1
Encoding: 65609 -1 204
Width: 318
VWidth: 0
Flags: W
HStem: 470 20G<177 268>
VStem: 194 60<212.389 372> 210 62<-5 120.611>
LayerCount: 2
Fore
SplineSet
287 425 m 1xc0
 268 379 l 1
 254 373 l 1xc0
 272 -40 l 2
 273 -58 254 -66 243 -66 c 0
 235 -66 232 -64 231 -64 c 2
 142 -36 l 1
 140 -41 l 1
 94 -60 l 1
 48 -41 l 1
 29 5 l 1
 48 51 l 1
 94 70 l 1
 140 51 l 1
 156 12 l 1
 210 -5 l 1xa0
 194 372 l 1
 177 379 l 1
 157 425 l 1
 177 471 l 1
 222 490 l 1
 268 471 l 1
 287 425 l 1xc0
EndSplineSet
EndChar

StartChar: k.1
Encoding: 65610 -1 205
Width: 515
VWidth: 0
Flags: W
HStem: 457 21G<376 430> 481 20G<79 170>
VStem: 91 61<240 383>
LayerCount: 2
Fore
SplineSet
484 9 m 1
 465 -36 l 1
 419 -56 l 1
 373 -36 l 1
 357 1 l 1
 327 14 299 33 275 58 c 0
 239 96 208 139 184 187 c 1
 150 139 l 1
 150 129 l 1
 159 108 l 1
 150 86 l 1
 150 67 l 1
 165 61 l 1
 184 15 l 1
 165 -31 l 1
 119 -50 l 1
 73 -31 l 1
 54 15 l 1
 70 53 l 1
 48 62 l 1
 29 108 l 1
 48 154 l 1
 91 172 l 1
 93 384 l 1
 79 390 l 1
 59 436 l 1
 79 482 l 1
 124 501 l 1
 170 482 l 1
 189 436 l 1
 170 390 l 1
 153 383 l 1
 152 240 l 1
 330 495 l 1
 319 522 l 1
 338 568 l 1
 384 587 l 1
 430 568 l 1
 449 522 l 1
 430 476 l 1
 384 457 l 1
 376 460 l 1
 223 243 l 1
 246 184 280 132 322 89 c 0
 337 73 354 61 372 52 c 1
 373 55 l 1
 419 74 l 1
 465 55 l 1
 484 9 l 1
EndSplineSet
EndChar

StartChar: l.1
Encoding: 65611 -1 206
Width: 389
VWidth: 0
Flags: W
VStem: 68 60<30 414>
LayerCount: 2
Fore
SplineSet
358 54 m 1
 339 8 l 1
 293 -11 l 1
 247 8 l 1
 245 12 l 1
 109 -29 l 2
 105 -30 101 -31 98 -31 c 0
 87 -31 68 -24 68 -6 c 2
 64 414 l 1
 48 421 l 1
 29 467 l 1
 48 513 l 1
 94 532 l 1
 140 513 l 1
 159 467 l 1
 140 421 l 1
 124 415 l 1
 128 30 l 1
 231 61 l 1
 247 100 l 1
 293 119 l 1
 339 100 l 1
 358 54 l 1
EndSplineSet
EndChar

StartChar: m.1
Encoding: 65612 -1 207
Width: 547
VWidth: 0
Flags: W
HStem: 398 20G<82.5 97>
VStem: 63 60<91 246>
LayerCount: 2
Fore
SplineSet
516 -30 m 1
 497 -76 l 1
 451 -95 l 1
 405 -76 l 1
 386 -30 l 1
 405 16 l 1
 418 21 l 1
 400 304 l 1
 281 9 l 2
 280 6 276 -3 263 -7 c 0
 253 -10 232 -9 225 8 c 2
 121 246 l 1
 123 91 l 1
 140 84 l 1
 159 38 l 1
 140 -8 l 1
 94 -27 l 1
 48 -8 l 1
 29 38 l 1
 48 84 l 1
 63 90 l 1
 58 393 l 2
 58 411 77 418 88 418 c 0
 106 418 114 408 116 402 c 2
 252 92 l 1
 393 446 l 2
 400 463 421 464 431 461 c 0
 448 456 452 443 452 439 c 2
 478 24 l 1
 497 16 l 1
 516 -30 l 1
EndSplineSet
EndChar

StartChar: n.1
Encoding: 65613 -1 208
Width: 444
VWidth: 0
Flags: W
HStem: 446 20G<84.5 98.5> 446 20G<84.5 98.5 302 394>
VStem: 64 59<82 329>
LayerCount: 2
Fore
SplineSet
413 394 m 1xa0
 394 348 l 1
 374 340 l 1
 353 33 l 2
 353 29 350 17 336 11 c 0
 326 7 305 7 296 23 c 2
 121 329 l 1
 123 82 l 1
 140 75 l 1
 159 29 l 1
 140 -17 l 1
 94 -36 l 1
 48 -17 l 1
 29 29 l 1
 48 75 l 1
 64 81 l 1
 61 441 l 2
 61 459 79 466 90 466 c 0
 107 466 116 456 118 452 c 2
 300 133 l 1
 314 343 l 1
 302 348 l 1
 283 394 l 1
 302 440 l 1
 348 459 l 1
 394 440 l 1
 413 394 l 1xa0
EndSplineSet
EndChar

StartChar: o.1
Encoding: 65614 -1 209
Width: 437
VWidth: 0
Flags: W
HStem: 469 20G<144 236>
VStem: 32 60<18.6829 322.986>
LayerCount: 2
Fore
SplineSet
130 436 m 1
 144 470 l 1
 190 489 l 1
 236 470 l 1
 255 424 l 1
 250 413 l 1
 284 386 314 354 340 317 c 0
 452 158 411 -31 288 -91 c 0
 255 -107 214 -114 171 -104 c 0
 35 -73 27 84 32 203 c 0
 35 284 51 398 130 436 c 1
145 378 m 1
 114 346 95 278 92 201 c 0
 87 73 109 -38 187 -56 c 0
 214 -62 236 -58 257 -48 c 0
 339 -8 389 148 288 292 c 0
 267 322 243 348 217 370 c 1
 190 359 l 1
 145 378 l 1
EndSplineSet
EndChar

StartChar: p.1
Encoding: 65615 -1 210
Width: 425
VWidth: 0
Flags: W
HStem: 477 20G<64.5 72.5>
VStem: 41 61<312.333 435> 54 60<117.75 164 280 370.417> 62 60<-21 140.875>
LayerCount: 2
Fore
SplineSet
160 221 m 1xc0
 141 175 l 1
 114 164 l 1xa0
 122 -21 l 1
 140 -29 l 1
 159 -75 l 1
 140 -121 l 1
 94 -140 l 1
 48 -121 l 1
 29 -75 l 1
 48 -29 l 1
 62 -23 l 1x90
 54 173 l 1xa0
 49 175 l 1
 30 221 l 1
 49 267 l 1
 50 267 l 1
 41 471 l 2
 40 489 59 497 70 497 c 0
 75 497 79 497 82 496 c 2
 375 401 l 2
 395 395 396 378 392 369 c 0
 388 361 383 358 382 357 c 2
 157 227 l 1
 160 221 l 1xc0
109 280 m 1
 129 272 l 1
 301 371 l 1
 102 435 l 1xc0
 109 280 l 1
EndSplineSet
EndChar

StartChar: q.1
Encoding: 65616 -1 211
Width: 461
VWidth: 0
Flags: W
HStem: -73 50<156.589 208> 477 20G<142 234>
LayerCount: 2
Fore
SplineSet
430 18 m 1
 411 -28 l 1
 365 -47 l 1
 359 -45 l 1
 299 -140 l 1
 292 -154 253 -161 244 -135 c 2
 224 -73 l 1
 119 -78 52 8 35 105 c 0
 27 151 28 204 44 259 c 0
 61 315 87 370 130 416 c 1
 123 432 l 1
 142 478 l 1
 188 497 l 1
 234 478 l 1
 253 432 l 1
 248 420 l 1
 305 370 348 306 373 233 c 0
 390 182 396 126 386 75 c 1
 411 64 l 1
 430 18 l 1
249 150 m 1
 230 104 l 1
 266 -11 l 1
 281 -2 294 11 304 27 c 1
 319 64 l 1
 321 65 l 1
 335 108 335 163 316 219 c 0
 295 281 259 335 213 378 c 1
 188 367 l 1
 168 376 l 1
 137 339 115 294 102 247 c 0
 88 199 87 152 94 112 c 0
 109 29 155 -18 208 -23 c 1
 172 90 l 1
 138 104 l 1
 119 150 l 1
 138 196 l 1
 184 215 l 1
 230 196 l 1
 249 150 l 1
EndSplineSet
EndChar

StartChar: r.1
Encoding: 65617 -1 212
Width: 484
VWidth: 0
Flags: W
VStem: 64 60<91 109 193 425>
LayerCount: 2
Fore
SplineSet
125 193 m 1
 233 144 l 1
 235 145 238 146 242 147 c 0
 288 161 332 200 337 266 c 0
 346 375 263 458 171 463 c 0
 166 463 160 464 155 464 c 1
 142 432 l 1
 126 425 l 1
 125 193 l 1
453 46 m 1
 434 0 l 1
 388 -19 l 1
 342 0 l 1
 323 46 l 1
 323 47 l 1
 223 92 l 1
 189 89 154 95 124 109 c 1
 124 91 l 1
 140 84 l 1
 159 38 l 1
 140 -8 l 1
 94 -27 l 1
 48 -8 l 1
 29 38 l 1
 48 84 l 1
 64 91 l 1
 65 152 l 1
 58 160 52 168 47 175 c 0
 33 195 53 206 65 212 c 1
 66 425 l 1
 50 432 l 1
 31 478 l 1
 50 524 l 1
 96 543 l 1
 142 524 l 1
 146 513 l 1
 294 524 407 398 397 263 c 0
 391 194 351 142 299 114 c 1
 345 93 l 1
 388 111 l 1
 434 92 l 1
 453 46 l 1
EndSplineSet
EndChar

StartChar: s.1
Encoding: 65618 -1 213
Width: 399
VWidth: 0
Flags: W
HStem: 414 20G<261 349>
LayerCount: 2
Fore
SplineSet
368 369 m 1
 349 323 l 1
 303 304 l 1
 257 323 l 1
 238 369 l 1
 238 370 l 1
 187 393 l 2
 185 394 184 395 183 395 c 0
 160 410 143 406 127 394 c 0
 98 373 88 328 120 298 c 0
 136 283 162 287 207 282 c 0
 276 274 335 232 351 170 c 0
 355 154 356 139 355 126 c 0
 350 54 287 -8 203 -4 c 0
 192 -3 185 2 181 6 c 2
 110 84 l 1
 94 78 l 1
 48 97 l 1
 29 143 l 1
 48 189 l 1
 94 208 l 1
 140 189 l 1
 159 143 l 1
 150 122 l 1
 219 46 l 1
 261 51 304 94 294 151 c 0
 294 153 293 155 292 159 c 0
 281 200 244 228 199 233 c 0
 174 236 116 227 76 265 c 0
 -22 356 100 507 218 436 c 1
 261 417 l 1
 303 434 l 1
 349 415 l 1
 368 369 l 1
EndSplineSet
EndChar

StartChar: t.1
Encoding: 65619 -1 214
Width: 487
VWidth: 0
Flags: W
HStem: 425 48<173.375 213 273 335> 428 53<150 213 273 313.625>
VStem: 215 60<56 425>
LayerCount: 2
Fore
SplineSet
310 3 m 1xa0
 291 -43 l 1
 245 -62 l 1
 199 -43 l 1
 180 3 l 1
 199 49 l 1
 215 56 l 1
 213 428 l 1
 148 431 l 1
 140 413 l 1
 94 394 l 1
 48 413 l 1
 29 459 l 1
 48 505 l 1
 94 524 l 1
 140 505 l 1
 150 481 l 1x60
 337 473 l 1
 345 491 l 1
 391 510 l 1
 437 491 l 1
 456 445 l 1
 437 399 l 1
 391 380 l 1
 345 399 l 1
 335 423 l 1
 273 425 l 1
 275 56 l 1
 291 49 l 1
 310 3 l 1xa0
EndSplineSet
EndChar

StartChar: u.1
Encoding: 65620 -1 215
Width: 425
VWidth: 0
Flags: W
HStem: 1 50<197.594 299> 449 20G<48 140>
VStem: 66 60<200.545 350> 77 60<88.0424 263.455> 299 60<51 484>
LayerCount: 2
Fore
SplineSet
394 537 m 1xd8
 375 491 l 1
 359 484 l 1
 359 50 l 2
 359 40 356 26 343 15 c 0
 330 4 312 1 295 1 c 0
 263 1 225 12 190 22 c 0
 154 32 80 49 77 112 c 2xd8
 66 350 l 1
 48 358 l 1
 29 404 l 1
 48 449 l 1
 94 469 l 1
 140 449 l 1
 159 404 l 1
 140 358 l 1
 126 352 l 1xe8
 137 114 l 2
 138 92 164 82 210 69 c 0
 249 58 286 50 299 51 c 1
 299 484 l 1
 283 491 l 1
 264 537 l 1
 283 583 l 1
 329 602 l 1
 375 583 l 1
 394 537 l 1xd8
EndSplineSet
EndChar

StartChar: v.1
Encoding: 65621 -1 216
Width: 477
VWidth: 0
Flags: W
HStem: 469 20G<48 140 335 427>
LayerCount: 2
Fore
SplineSet
446 397 m 1
 427 351 l 1
 388 335 l 1
 273 41 l 2
 271 37 267 29 254 25 c 0
 244 22 224 24 217 41 c 2
 88 362 l 1
 48 378 l 1
 29 424 l 1
 48 470 l 1
 94 489 l 1
 140 470 l 1
 159 424 l 1
 142 383 l 1
 244 129 l 1
 333 356 l 1
 316 397 l 1
 335 443 l 1
 381 462 l 1
 427 443 l 1
 446 397 l 1
EndSplineSet
EndChar

StartChar: w.1
Encoding: 65622 -1 217
Width: 572
VWidth: 0
Flags: W
HStem: 399 20G<48 140 430 522>
VStem: 354 59<-59.1862 -3.91463>
LayerCount: 2
Fore
SplineSet
541 429 m 1
 522 383 l 1
 495 372 l 1
 413 -39 l 2
 412 -46 405 -58 388 -60 c 0
 377 -61 357 -57 354 -39 c 2
 308 216 l 1
 215 -3 l 2
 213 -7 207 -16 193 -19 c 0
 182 -21 162 -17 157 0 c 2
 79 295 l 1
 48 308 l 1
 29 354 l 1
 48 400 l 1
 94 419 l 1
 140 400 l 1
 159 354 l 1
 140 308 l 1
 137 307 l 1
 193 96 l 1
 291 326 l 2
 298 343 320 345 330 342 c 0
 345 338 348 327 349 322 c 2
 385 124 l 1
 436 380 l 1
 430 383 l 1
 411 429 l 1
 430 475 l 1
 476 494 l 1
 522 475 l 1
 541 429 l 1
EndSplineSet
EndChar

StartChar: x.1
Encoding: 65623 -1 218
Width: 496
VWidth: 0
Flags: W
HStem: 480 20G<90 182 354 446>
LayerCount: 2
Fore
SplineSet
465 405 m 1
 446 359 l 1
 400 340 l 1
 391 344 l 1
 288 204 l 1
 363 58 l 1
 409 39 l 1
 428 -7 l 1
 409 -53 l 1
 363 -72 l 1
 317 -53 l 1
 298 -7 l 1
 313 28 l 1
 249 151 l 1
 148 15 l 1
 159 -11 l 1
 140 -57 l 1
 94 -76 l 1
 48 -57 l 1
 29 -11 l 1
 48 35 l 1
 94 54 l 1
 103 50 l 1
 220 208 l 1
 136 370 l 1
 90 389 l 1
 71 435 l 1
 90 481 l 1
 136 500 l 1
 182 481 l 1
 201 435 l 1
 187 401 l 1
 259 260 l 1
 346 379 l 1
 335 405 l 1
 354 451 l 1
 400 470 l 1
 446 451 l 1
 465 405 l 1
EndSplineSet
EndChar

StartChar: y.1
Encoding: 65624 -1 219
Width: 441
VWidth: 0
Flags: W
LayerCount: 2
Fore
SplineSet
288 -31 m 1
 269 -77 l 1
 223 -96 l 1
 177 -77 l 1
 158 -31 l 1
 177 15 l 1
 199 24 l 1
 212 157 l 1
 96 376 l 1
 94 375 l 1
 48 394 l 1
 29 440 l 1
 48 486 l 1
 94 505 l 1
 140 486 l 1
 159 440 l 1
 145 406 l 1
 236 234 l 1
 298 417 l 1
 280 462 l 1
 299 508 l 1
 345 527 l 1
 391 508 l 1
 410 462 l 1
 391 416 l 1
 356 401 l 1
 273 156 l 1
 258 19 l 1
 269 15 l 1
 288 -31 l 1
EndSplineSet
EndChar

StartChar: z.1
Encoding: 65625 -1 220
Width: 428
VWidth: 0
Flags: W
LayerCount: 2
Fore
SplineSet
397 -36 m 1
 378 -82 l 1
 332 -101 l 1
 286 -82 l 1
 271 -45 l 1
 90 6 l 2
 89 6 90 7 89 7 c 0
 79 10 64 22 72 39 c 2
 236 379 l 1
 142 407 l 1
 140 401 l 1
 94 382 l 1
 48 401 l 1
 29 447 l 1
 48 493 l 1
 94 512 l 1
 140 493 l 1
 155 456 l 1
 285 418 l 2
 305 412 307 395 303 386 c 1
 303 385 l 1
 139 45 l 1
 283 4 l 1
 286 10 l 1
 332 29 l 1
 378 10 l 1
 397 -36 l 1
EndSplineSet
EndChar

StartChar: braceleft.1
Encoding: 65626 -1 221
Width: 379
VWidth: 0
Flags: W
HStem: 424 20G<47 139> 752 20G<232 324>
VStem: 105 60<72.0123 215.918>
LayerCount: 2
Fore
SplineSet
351 -8 m 1
 332 -54 l 1
 286 -73 l 1
 240 -54 l 1
 228 -25 l 1
 148 0 105 75 105 145 c 0
 105 194 125 246 176 283 c 1
 120 325 l 1
 93 314 l 1
 47 333 l 1
 28 379 l 1
 47 425 l 1
 93 444 l 1
 139 425 l 1
 141 421 l 1
 150 424 l 1
 67 499 78 629 164 695 c 0
 179 707 198 717 220 724 c 1
 232 753 l 1
 278 772 l 1
 324 753 l 1
 343 707 l 1
 324 661 l 1
 278 642 l 1
 232 661 l 1
 228 672 l 1
 208 663 192 649 180 632 c 0
 135 569 148 475 225 437 c 0
 243 428 242 411 236 403 c 0
 230 395 222 393 220 392 c 2
 155 372 l 1
 153 367 l 1
 244 298 l 2
 264 283 248 265 238 258 c 1
 188 235 165 191 165 145 c 0
 165 93 193 48 236 28 c 1
 240 38 l 1
 286 57 l 1
 332 38 l 1
 351 -8 l 1
EndSplineSet
EndChar

StartChar: braceright.1
Encoding: 65627 -1 222
Width: 353
VWidth: 0
Flags: W
HStem: 397 20G<225 305> 764 20G<48 140>
VStem: 217 60<79.6793 217.483>
LayerCount: 2
Fore
SplineSet
324 352 m 1
 305 306 l 1
 259 287 l 1
 228 300 l 1
 203 284 l 1
 256 251 277 198 277 150 c 0
 277 87 240 19 168 -5 c 1
 156 -34 l 1
 110 -54 l 1
 64 -34 l 1
 45 11 l 1
 64 57 l 1
 110 76 l 1
 156 57 l 1
 160 48 l 1
 196 67 217 105 217 150 c 0
 217 197 191 241 138 256 c 0
 125 260 104 283 130 300 c 2
 197 344 l 1
 194 352 l 1
 197 358 l 1
 109 411 l 1
 94 419 88 448 119 455 c 0
 194 472 226 547 203 615 c 0
 193 646 173 671 144 684 c 1
 140 673 l 1
 94 654 l 1
 48 673 l 1
 29 719 l 1
 48 765 l 1
 94 784 l 1
 140 765 l 1
 152 735 l 1
 186 724 213 705 232 682 c 0
 294 606 283 481 186 426 c 1
 225 403 l 1
 259 417 l 1
 305 398 l 1
 324 352 l 1
EndSplineSet
EndChar

StartChar: exclamdown.1
Encoding: 65628 -1 223
Width: 207
VWidth: 0
Flags: W
HStem: 474 20G<56 148>
VStem: 73 60<92.8 376> 83 60<-29 254.2>
LayerCount: 2
Fore
SplineSet
167 429 m 1xc0
 148 383 l 1
 133 377 l 1xc0
 143 -29 l 1
 160 -36 l 1
 179 -82 l 1
 160 -128 l 1
 114 -147 l 1
 68 -128 l 1
 49 -82 l 1
 68 -36 l 1
 83 -30 l 1xa0
 73 376 l 1
 56 383 l 1
 37 429 l 1
 56 475 l 1
 102 494 l 1
 148 475 l 1
 167 429 l 1xc0
159 665 m 1
 140 619 l 1
 94 600 l 1
 48 619 l 1
 29 665 l 1
 48 711 l 1
 94 730 l 1
 140 711 l 1
 159 665 l 1
EndSplineSet
EndChar

StartChar: dieresis.1
Encoding: 65629 -1 224
Width: 382
VWidth: 0
Flags: W
HStem: 589 142
VStem: 33 316
LayerCount: 2
Fore
SplineSet
349 666 m 1
 330 620 l 1
 284 601 l 1
 238 620 l 1
 219 666 l 1
 238 712 l 1
 284 731 l 1
 330 712 l 1
 349 666 l 1
163 654 m 1
 144 608 l 1
 98 589 l 1
 52 608 l 1
 33 654 l 1
 52 700 l 1
 98 719 l 1
 144 700 l 1
 163 654 l 1
EndSplineSet
EndChar

StartChar: macron.1
Encoding: 65630 -1 225
Width: 472
VWidth: 0
Flags: W
HStem: 461 164 495 21G<52 144>
LayerCount: 2
Fore
SplineSet
440 526 m 1x80
 421 480 l 1
 375 461 l 1x80
 329 480 l 1
 318 508 l 1
 150 528 l 1
 144 514 l 1
 98 495 l 1x40
 52 514 l 1
 33 560 l 1
 52 606 l 1
 98 625 l 1
 144 606 l 1
 155 578 l 1
 323 557 l 1
 329 572 l 1
 375 591 l 1
 421 572 l 1
 440 526 l 1x80
EndSplineSet
EndChar

StartChar: acute.1
Encoding: 65631 -1 226
Width: 319
VWidth: 0
Flags: W
HStem: 479 322
VStem: 32 256
LayerCount: 2
Fore
SplineSet
162 544 m 1
 143 498 l 1
 97 479 l 1
 51 498 l 1
 32 544 l 1
 51 590 l 1
 97 609 l 1
 104 606 l 1
 170 707 l 1
 158 736 l 1
 177 782 l 1
 223 801 l 1
 269 782 l 1
 288 736 l 1
 269 690 l 1
 223 671 l 1
 217 674 l 1
 150 573 l 1
 162 544 l 1
EndSplineSet
EndChar

StartChar: cedilla.1
Encoding: 65632 -1 227
Width: 289
VWidth: 0
Flags: W
HStem: -94 50<156 192> -93 118<192.239 251.682>
VStem: 192 60<-44 23.8456>
LayerCount: 2
Fore
SplineSet
221 25 m 0x60
 241 25 252 11 252 0 c 2
 252 -68 l 2
 252 -86 234 -93 223 -93 c 2x60
 156 -94 l 1
 147 -115 l 1
 101 -134 l 1
 55 -115 l 1
 36 -69 l 1
 55 -23 l 1
 101 -4 l 1
 147 -23 l 1
 156 -44 l 1
 192 -44 l 1xa0
 192 -0 l 2
 192 11 201 25 221 25 c 0x60
EndSplineSet
EndChar

StartChar: questiondown.1
Encoding: 65633 -1 228
Width: 338
VWidth: 0
Flags: W
HStem: 482 20G<146 238>
LayerCount: 2
Fore
SplineSet
202 633 m 1
 183 587 l 1
 137 568 l 1
 91 587 l 1
 72 633 l 1
 91 679 l 1
 137 698 l 1
 183 679 l 1
 202 633 l 1
257 437 m 1
 238 391 l 1
 228 387 l 1
 252 278 340 162 300 30 c 0
 287 -13 255 -64 191 -72 c 0
 130 -79 81 -42 65 6 c 1
 47 14 l 1
 28 60 l 1
 47 106 l 1
 93 125 l 1
 139 106 l 1
 158 60 l 1
 139 14 l 1
 127 9 l 1
 138 -14 162 -25 182 -23 c 0
 206 -20 231 5 242 42 c 0
 274 151 189 256 167 382 c 1
 146 391 l 1
 127 437 l 1
 146 483 l 1
 192 502 l 1
 238 483 l 1
 257 437 l 1
EndSplineSet
EndChar

StartChar: AE.1
Encoding: 65634 -1 229
Width: 555
VWidth: 0
Flags: W
LayerCount: 2
Fore
SplineSet
524 26 m 1
 505 -20 l 1
 459 -39 l 1
 434 -29 l 1
 357 -88 l 1
 346 -99 310 -97 306 -73 c 2
 259 188 l 1
 205 154 l 1
 208 146 l 1
 189 100 l 1
 152 85 l 1
 159 68 l 1
 140 22 l 1
 94 3 l 1
 48 22 l 1
 29 68 l 1
 48 114 l 1
 73 125 l 1
 164 625 l 1
 157 628 l 1
 138 674 l 1
 157 720 l 1
 203 739 l 1
 249 720 l 1
 254 707 l 1
 299 713 l 1
 312 742 l 1
 357 761 l 1
 403 742 l 1
 422 696 l 1
 403 650 l 1
 357 631 l 1
 312 650 l 1
 306 663 l 1
 261 657 l 1
 249 628 l 1
 242 625 l 1
 302 290 l 1
 319 332 l 1
 365 351 l 1
 411 332 l 1
 430 286 l 1
 411 240 l 1
 365 221 l 1
 333 234 l 1
 314 222 l 1
 357 -19 l 1
 399 13 l 1
 394 26 l 1
 413 72 l 1
 459 91 l 1
 505 72 l 1
 524 26 l 1
249 245 m 1
 203 505 l 1
 150 208 l 1
 175 198 l 1
 249 245 l 1
EndSplineSet
EndChar

StartChar: Oslash.1
Encoding: 65635 -1 230
Width: 489
VWidth: 0
Flags: W
HStem: -30 50<164.307 293.827>
LayerCount: 2
Fore
SplineSet
152 53 m 1
 153 51 l 1
 177 29 201 20 240 20 c 1
 336 25 407 168 394 338 c 0
 385 454 365 567 335 676 c 1
 152 53 l 1
161 -32 m 1
 142 -78 l 1
 96 -97 l 1
 50 -78 l 1
 31 -32 l 1
 50 14 l 1
 83 28 l 1
 87 42 l 1
 38 103 24 203 33 298 c 0
 46 435 82 570 141 697 c 1
 126 733 l 1
 145 779 l 1
 191 798 l 1
 237 779 l 1
 256 733 l 1
 237 687 l 1
 192 669 l 1
 139 549 104 422 92 294 c 0
 86 231 92 169 110 121 c 1
 305 785 l 2
 306 789 311 800 326 804 c 0
 337 806 357 803 363 786 c 0
 411 643 442 494 454 341 c 0
 467 174 407 -21 244 -30 c 1
 208 -33 179 -26 153 -13 c 1
 161 -32 l 1
EndSplineSet
EndChar

StartChar: germandbls.1
Encoding: 65636 -1 231
Width: 566
VWidth: 0
Flags: W
HStem: 430 20G<238 298 459 513>
VStem: 273 60<126.833 204.416> 474 60<89.177 215.937>
LayerCount: 2
Fore
SplineSet
532 363 m 1
 513 317 l 1
 467 298 l 1
 421 317 l 1
 402 363 l 1
 414 392 l 1
 395 421 372 420 353 412 c 0
 346 409 339 405 333 399 c 1
 339 385 l 1
 320 339 l 1
 318 338 l 1
 320 333 322 329 325 324 c 0
 343 294 385 311 450 283 c 0
 508 258 535 203 534 151 c 0
 533 97 504 48 457 21 c 0
 448 16 438 16 433 17 c 2
 337 36 l 1
 333 26 l 1
 287 7 l 1
 257 19 l 1
 252 16 247 14 241 12 c 0
 229 7 216 11 211 14 c 2
 129 60 l 1
 94 45 l 1
 48 64 l 1
 29 110 l 1
 48 156 l 1
 94 175 l 1
 140 156 l 1
 159 110 l 1
 157 105 l 1
 224 67 l 1
 222 72 l 1
 241 118 l 1
 272 131 l 1
 273 136 273 140 273 145 c 0
 273 182 251 215 220 228 c 0
 193 239 102 232 66 297 c 0
 31 362 67 427 127 450 c 0
 162 463 205 461 238 435 c 1
 274 450 l 1
 298 440 l 1
 307 447 316 453 326 457 c 0
 369 475 424 468 459 425 c 1
 467 428 l 1
 513 409 l 1
 532 363 l 1
346 86 m 1
 432 69 l 1
 456 87 474 117 474 152 c 0
 474 191 454 226 423 239 c 0
 399 249 309 240 272 302 c 0
 267 310 264 317 261 325 c 1
 228 339 l 1
 209 385 l 1
 209 386 l 1
 190 412 168 412 151 405 c 0
 122 394 99 358 121 318 c 0
 138 286 181 301 247 273 c 0
 303 249 333 197 333 145 c 0
 333 136 333 127 331 119 c 1
 333 118 l 1
 346 86 l 1
EndSplineSet
EndChar

StartChar: ae.1
Encoding: 65637 -1 232
Width: 507
VWidth: 0
Flags: W
HStem: 111 50<222 257 328 355> 471 20G<340 432>
VStem: 257 60<161 233>
LayerCount: 2
Fore
SplineSet
443 47 m 1
 424 1 l 1
 378 -18 l 1
 332 1 l 1
 313 47 l 1
 316 53 l 1
 271 79 l 2
 266 82 259 89 259 99 c 2
 259 111 l 1
 219 113 l 1
 212 95 l 1
 166 76 l 1
 159 79 l 1
 147 60 l 1
 159 30 l 1
 140 -16 l 1
 94 -35 l 1
 48 -16 l 1
 29 30 l 1
 48 76 l 1
 94 95 l 1
 99 93 l 1
 112 114 l 1
 101 141 l 1
 120 187 l 1
 166 206 l 1
 170 205 l 1
 230 301 l 1
 218 331 l 1
 237 377 l 1
 283 396 l 1
 304 387 l 1
 328 410 l 1
 321 426 l 1
 340 472 l 1
 386 491 l 1
 432 472 l 1
 451 426 l 1
 432 380 l 1
 386 361 l 1
 365 370 l 1
 341 348 l 1
 348 331 l 1
 329 285 l 1
 314 279 l 1
 317 158 l 1
 358 156 l 1
 365 174 l 1
 411 193 l 1
 457 174 l 1
 476 128 l 1
 457 82 l 1
 433 72 l 1
 443 47 l 1
344 98 m 1
 356 103 l 1
 355 106 l 1
 328 107 l 1
 344 98 l 1
257 161 m 1
 256 233 l 1
 218 173 l 1
 222 163 l 1
 257 161 l 1
EndSplineSet
EndChar

StartChar: oslash.1
Encoding: 65638 -1 233
Width: 392
VWidth: 0
Flags: W
HStem: 465 20G<191 272>
VStem: 29 330
LayerCount: 2
Fore
SplineSet
157 54 m 1
 182 36 209 32 235 42 c 0
 321 73 300 254 288 360 c 1
 157 54 l 1
159 -19 m 1
 140 -65 l 1
 94 -84 l 1
 48 -65 l 1
 29 -19 l 1
 48 27 l 1
 88 44 l 1
 50 83 30 150 39 218 c 0
 50 300 99 375 173 419 c 1
 172 420 l 1
 191 466 l 1
 237 485 l 1
 272 471 l 1
 275 479 l 2
 281 495 328 507 333 474 c 0
 346 390 356 302 359 214 c 0
 362 137 354 32 259 -3 c 0
 224 -16 185 -15 152 -2 c 1
 159 -19 l 1
225 360 m 1
 198 371 l 1
 145 336 108 279 99 213 c 0
 93 172 101 134 115 105 c 1
 225 360 l 1
EndSplineSet
EndChar

StartChar: dotlessi.1
Encoding: 65639 -1 234
Width: 202
VWidth: 0
Flags: W
HStem: 465 20G<48 140>
VStem: 64 64<90 367>
LayerCount: 2
Fore
SplineSet
159 420 m 1
 140 374 l 1
 123 367 l 1
 123 339 123 311 124 281 c 0
 125 214 122 151 128 90 c 1
 152 80 l 1
 171 34 l 1
 152 -12 l 1
 106 -31 l 1
 60 -12 l 1
 41 34 l 1
 60 80 l 1
 68 83 l 1
 66 102 65 121 64 139 c 0
 62 188 65 235 64 279 c 0
 63 309 63 339 63 368 c 1
 48 374 l 1
 29 420 l 1
 48 466 l 1
 94 485 l 1
 140 466 l 1
 159 420 l 1
EndSplineSet
EndChar

StartChar: OE.1
Encoding: 65640 -1 235
Width: 572
VWidth: 0
Flags: W
VStem: 30 60<173.782 404.478>
LayerCount: 2
Fore
SplineSet
538 237 m 1
 519 191 l 1
 473 172 l 1
 427 191 l 1
 412 227 l 1
 302 257 l 1
 284 46 l 1
 376 -40 l 1
 396 -31 l 1
 442 -51 l 1
 461 -96 l 1
 442 -142 l 1
 396 -161 l 1
 350 -142 l 1
 331 -96 l 1
 338 -79 l 1
 239 12 l 1
 103 21 30 154 30 286 c 0
 30 303 31 321 34 341 c 0
 54 473 130 593 245 667 c 1
 243 672 l 1
 263 718 l 1
 308 737 l 1
 354 718 l 1
 360 705 l 1
 418 713 l 1
 430 741 l 1
 476 760 l 1
 522 741 l 1
 541 695 l 1
 522 649 l 1
 476 630 l 1
 430 649 l 1
 424 663 l 1
 366 655 l 1
 354 626 l 1
 334 618 l 1
 307 309 l 1
 424 277 l 1
 427 283 l 1
 473 302 l 1
 519 283 l 1
 538 237 l 1
246 297 m 2
 274 621 l 1
 274 622 l 1
 178 556 111 452 94 335 c 0
 91 317 90 301 90 286 c 0
 90 170 149 82 226 65 c 1
 246 289 l 2
 246 292 245 295 246 297 c 2
EndSplineSet
EndChar

StartChar: oe.1
Encoding: 65641 -1 236
Width: 514
VWidth: 0
Flags: W
HStem: 443 20G<203 295>
VStem: 222 60<74 158 208 345>
LayerCount: 2
Fore
SplineSet
451 170 m 1
 432 124 l 1
 386 105 l 1
 340 124 l 1
 329 152 l 1
 282 158 l 1
 284 59 l 1
 385 -2 l 1
 418 12 l 1
 464 -7 l 1
 483 -53 l 1
 464 -99 l 1
 418 -118 l 1
 372 -99 l 1
 353 -53 l 1
 356 -46 l 1
 245 21 l 1
 140 25 47 96 32 198 c 0
 17 299 82 400 193 420 c 1
 203 444 l 1
 249 463 l 1
 295 444 l 1
 297 438 l 1
 355 454 l 1
 370 491 l 1
 416 510 l 1
 462 491 l 1
 481 445 l 1
 462 399 l 1
 416 380 l 1
 370 399 l 1
 368 405 l 1
 310 389 l 1
 295 352 l 1
 280 346 l 1
 282 208 l 1
 334 201 l 1
 340 216 l 1
 386 235 l 1
 432 216 l 1
 451 170 l 1
222 190 m 2
 220 345 l 1
 203 352 l 1
 196 369 l 1
 131 350 80 283 92 204 c 0
 102 133 160 86 224 74 c 1
 222 183 l 2
 222 185 222 188 222 190 c 2
EndSplineSet
EndChar

StartChar: uni0237.1
Encoding: 65642 -1 237
Width: 344
VWidth: 0
Flags: W
HStem: 466 20G<202 294>
VStem: 200 58<-5 107.889> 216 60<205.375 367>
LayerCount: 2
Fore
SplineSet
313 421 m 1xa0
 294 375 l 1
 276 367 l 1xa0
 258 -57 l 2
 257 -75 238 -81 227 -81 c 0
 223 -81 216 -80 209 -75 c 2
 124 -19 l 1
 94 -32 l 1
 48 -13 l 1
 29 33 l 1
 48 79 l 1
 94 98 l 1
 140 79 l 1
 159 33 l 1
 155 24 l 1
 200 -5 l 1xc0
 216 369 l 1
 202 375 l 1
 183 421 l 1
 202 467 l 1
 248 486 l 1
 294 467 l 1
 313 421 l 1xa0
EndSplineSet
EndChar

StartChar: circumflex.1
Encoding: 65643 -1 238
Width: 377
VWidth: 0
Flags: W
HStem: 488 219 495 21G<234 326>
VStem: 32 313
LayerCount: 2
Fore
SplineSet
345 560 m 1xa0
 326 514 l 1
 280 495 l 1x60
 234 514 l 1
 215 560 l 1
 223 580 l 1
 173 635 l 1
 148 588 l 1
 162 553 l 1
 143 507 l 1
 97 488 l 1
 51 507 l 1
 32 553 l 1
 51 599 l 1
 97 618 l 1
 98 617 l 1
 138 694 l 2
 147 710 168 711 178 707 c 0
 187 704 190 699 190 699 c 1
 264 618 l 1
 280 625 l 1
 326 606 l 1
 345 560 l 1xa0
EndSplineSet
EndChar

StartChar: caron.1
Encoding: 65644 -1 239
Width: 342
VWidth: 0
Flags: W
HStem: 463 227
VStem: 33 276
LayerCount: 2
Fore
SplineSet
309 585 m 1
 290 539 l 1
 244 520 l 1
 233 525 l 1
 193 473 l 2
 192 472 190 466 180 463 c 0
 170 459 148 460 140 476 c 2
 98 560 l 1
 52 579 l 1
 33 625 l 1
 52 671 l 1
 98 690 l 1
 144 671 l 1
 163 625 l 1
 149 590 l 1
 174 540 l 1
 189 560 l 1
 179 585 l 1
 198 631 l 1
 244 650 l 1
 290 631 l 1
 309 585 l 1
EndSplineSet
EndChar

StartChar: breve.1
Encoding: 65645 -1 240
Width: 313
VWidth: 0
Flags: W
HStem: 526 246
VStem: 32 248
LayerCount: 2
Fore
SplineSet
213 624 m 1
 169 642 l 1
 152 683 l 1
 143 661 l 1
 102 644 l 1
 102 609 129 580 158 575 c 0
 173 573 184 576 193 584 c 0
 205 594 212 609 213 624 c 1
268 659 m 1
 282 619 268 575 235 548 c 0
 215 531 183 520 146 526 c 0
 67 539 31 610 47 672 c 1
 32 707 l 1
 51 753 l 1
 97 772 l 1
 143 753 l 1
 160 712 l 1
 169 734 l 1
 215 753 l 1
 261 734 l 1
 280 688 l 1
 268 659 l 1
EndSplineSet
EndChar

StartChar: dotaccent.1
Encoding: 65646 -1 241
Width: 196
VWidth: 0
Flags: W
HStem: 535 130
VStem: 33 130
LayerCount: 2
Fore
SplineSet
163 600 m 1
 144 554 l 1
 98 535 l 1
 52 554 l 1
 33 600 l 1
 52 646 l 1
 98 665 l 1
 144 646 l 1
 163 600 l 1
EndSplineSet
EndChar

StartChar: ring.1
Encoding: 65647 -1 242
Width: 203
VWidth: 0
Flags: W
HStem: 437 218
VStem: 74 58<437.333 522.201> 108 61<560.301 604.53>
LayerCount: 2
Fore
SplineSet
108 605 m 1xa0
 97 605 l 1
 95 601 97 581 103 559 c 1
 110 585 110 602 108 605 c 1xa0
132 456 m 2xc0
 131 452 129 449 126 446 c 0
 120 440 111 434 99 437 c 0
 97 437 96 437 94 438 c 0
 87 440 80 445 76 451 c 0
 75 453 74 454 74 456 c 1
 74 457 l 0xc0
 71 469 66 482 61 498 c 0
 47 540 11 606 57 641 c 0
 68 649 82 655 103 655 c 0
 117 655 135 652 149 641 c 0
 165 629 169 612 169 595 c 0xa0
 169 555 144 499 132 457 c 0
 132 456 l 2xc0
EndSplineSet
EndChar

StartChar: tilde.1
Encoding: 65648 -1 243
Width: 424
VWidth: 0
Flags: W
HStem: 466 256
LayerCount: 2
Fore
SplineSet
392 657 m 1
 373 611 l 1
 337 596 l 1
 294 551 195 575 150 560 c 1
 162 531 l 1
 143 485 l 1
 97 466 l 1
 51 485 l 1
 32 531 l 1
 51 577 l 1
 86 592 l 1
 128 639 229 613 274 628 c 1
 262 657 l 1
 281 703 l 1
 327 722 l 1
 373 703 l 1
 392 657 l 1
EndSplineSet
EndChar

StartChar: hungarumlaut.1
Encoding: 65649 -1 244
Width: 454
VWidth: 0
Flags: W
HStem: 482 266
LayerCount: 2
Fore
SplineSet
422 680 m 1
 403 634 l 1
 357 615 l 1
 343 621 l 1
 245 507 l 2
 242 503 235 498 225 497 c 2
 88 482 l 2
 86 482 84 482 82 482 c 0
 71 483 53 490 54 508 c 2
 63 632 l 1
 51 637 l 1
 32 683 l 1
 51 729 l 1
 97 748 l 1
 143 729 l 1
 162 683 l 1
 143 637 l 1
 123 629 l 1
 116 536 l 1
 204 545 l 1
 301 658 l 1
 292 680 l 1
 311 726 l 1
 357 745 l 1
 403 726 l 1
 422 680 l 1
EndSplineSet
EndChar

StartChar: Gamma.1
Encoding: 65650 -1 245
Width: 276
VWidth: 0
Flags: W
VStem: 45 62<577.75 760> 65 60<127 369.25>
LayerCount: 2
Fore
SplineSet
245 735 m 1x80
 226 689 l 1
 180 670 l 1
 134 689 l 1
 115 735 l 1
 121 749 l 1
 107 760 l 1x80
 125 127 l 1
 142 120 l 1
 161 74 l 1
 142 28 l 1
 96 9 l 1
 50 28 l 1
 31 74 l 1
 50 120 l 1
 65 126 l 1x40
 45 821 l 2
 45 839 64 846 75 846 c 0
 88 846 96 840 97 839 c 2
 156 790 l 1
 180 800 l 1
 226 781 l 1
 245 735 l 1x80
EndSplineSet
EndChar

StartChar: Delta.1
Encoding: 65651 -1 246
Width: 479
VWidth: 0
Flags: W
LayerCount: 2
Fore
SplineSet
142 -54 m 1
 220 -17 360 58 389 81 c 1
 392 132 297 424 231 559 c 1
 134 -50 l 1
 142 -53 l 1
 142 -54 l 1
74 -43 m 1
 183 641 l 2
 186 659 206 664 217 663 c 0
 220 663 223 662 225 661 c 0
 303 634 478 115 443 58 c 0
 423 24 251 -64 159 -103 c 1
 142 -145 l 1
 96 -164 l 1
 50 -145 l 1
 31 -99 l 1
 50 -53 l 1
 74 -43 l 1
EndSplineSet
EndChar

StartChar: Theta.1
Encoding: 65652 -1 247
Width: 477
VWidth: 0
Flags: W
HStem: 72 50<186.905 297.974> 745 20G<210 302>
LayerCount: 2
Fore
SplineSet
292 273 m 1
 295 280 l 1
 341 299 l 1
 377 284 l 1
 383 318 386 356 383 395 c 0
 374 520 352 574 279 644 c 1
 256 634 l 1
 224 648 l 1
 112 571 79 493 96 349 c 1
 116 357 l 1
 162 338 l 1
 177 303 l 1
 292 273 l 1
280 223 m 1
 165 253 l 1
 162 246 l 1
 123 230 l 1
 147 168 186 127 235 123 c 0
 241 123 245 122 249 122 c 0
 281 124 309 143 332 173 c 1
 295 188 l 1
 280 223 l 1
194 692 m 1
 191 699 l 1
 210 745 l 1
 256 765 l 1
 302 745 l 1
 321 699 l 1
 315 684 l 1
 402 603 432 532 442 398 c 0
 453 255 403 79 252 72 c 1
 111 72 59 196 41 308 c 0
 12 488 51 596 194 692 c 1
EndSplineSet
EndChar

StartChar: Lambda.1
Encoding: 65653 -1 248
Width: 404
VWidth: 0
Flags: W
LayerCount: 2
Fore
SplineSet
373 -24 m 1
 354 -70 l 1
 308 -89 l 1
 262 -70 l 1
 243 -24 l 1
 262 22 l 1
 273 26 l 1
 229 449 l 1
 139 100 l 1
 142 99 l 1
 161 53 l 1
 142 7 l 1
 96 -12 l 1
 50 7 l 1
 31 53 l 1
 50 99 l 1
 81 112 l 1
 213 623 l 2
 218 640 237 644 248 642 c 0
 266 639 272 625 272 620 c 2
 333 31 l 1
 354 22 l 1
 373 -24 l 1
EndSplineSet
EndChar

StartChar: Xi.1
Encoding: 65654 -1 249
Width: 541
VWidth: 0
Flags: W
HStem: 442 20G<134 226 362 454>
LayerCount: 2
Fore
SplineSet
456 -51 m 1
 437 -97 l 1
 391 -116 l 1
 345 -97 l 1
 332 -65 l 1
 225 -43 l 1
 221 -54 l 1
 175 -73 l 1
 129 -54 l 1
 110 -8 l 1
 129 38 l 1
 175 57 l 1
 221 38 l 1
 234 6 l 1
 341 -15 l 1
 345 -5 l 1
 391 14 l 1
 437 -5 l 1
 456 -51 l 1
473 347 m 1
 454 301 l 1
 408 282 l 1
 362 301 l 1
 349 334 l 1
 230 360 l 1
 226 351 l 1
 180 332 l 1
 134 351 l 1
 115 397 l 1
 134 443 l 1
 180 462 l 1
 226 443 l 1
 240 410 l 1
 358 384 l 1
 362 393 l 1
 408 412 l 1
 454 393 l 1
 473 347 l 1
510 695 m 1
 491 649 l 1
 445 630 l 1
 399 649 l 1
 388 676 l 1
 148 704 l 1
 142 689 l 1
 96 670 l 1
 50 689 l 1
 31 735 l 1
 50 781 l 1
 96 800 l 1
 142 781 l 1
 153 754 l 1
 393 726 l 1
 399 741 l 1
 445 760 l 1
 491 741 l 1
 510 695 l 1
EndSplineSet
EndChar

StartChar: Pi.1
Encoding: 65655 -1 250
Width: 449
VWidth: 0
Flags: W
HStem: 663 50<177 332>
VStem: 324 60<49 545.778> 332 61<190.222 663>
LayerCount: 2
Fore
SplineSet
418 -4 m 1xc0
 399 -50 l 1
 353 -69 l 1
 307 -50 l 1
 288 -4 l 1
 307 42 l 1
 324 49 l 1xc0
 332 663 l 1
 177 661 l 1
 130 65 l 1
 142 60 l 1
 161 14 l 1
 142 -32 l 1
 96 -51 l 1
 50 -32 l 1
 31 14 l 1
 50 60 l 1
 70 68 l 1
 119 688 l 2
 120 704 137 711 149 711 c 2
 362 713 l 2
 383 713 393 697 393 688 c 2xa0
 384 48 l 1
 399 42 l 1
 418 -4 l 1xc0
EndSplineSet
EndChar

StartChar: Sigma.1
Encoding: 65656 -1 251
Width: 463
VWidth: 0
Flags: W
HStem: -10 51<96 312>
LayerCount: 2
Fore
SplineSet
432 22 m 1
 413 -24 l 1
 367 -43 l 1
 322 -24 l 1
 313 -4 l 1
 62 -10 l 1
 57 -10 l 1
 46 -9 28 1 31 19 c 2
 94 361 l 1
 78 463 58 567 34 670 c 0
 32 678 36 693 53 698 c 2
 250 761 l 1
 266 801 l 1
 312 820 l 1
 358 801 l 1
 377 755 l 1
 358 709 l 1
 312 690 l 1
 266 709 l 1
 264 713 l 1
 98 659 l 1
 120 560 138 461 154 364 c 1
 154 357 l 1
 96 41 l 1
 312 46 l 1
 322 68 l 1
 367 87 l 1
 413 68 l 1
 432 22 l 1
EndSplineSet
EndChar

StartChar: Upsilon.1
Encoding: 65657 -1 252
Width: 504
VWidth: 0
Flags: W
HStem: 501 21G<308 400>
VStem: 204 60<47 482.14>
LayerCount: 2
Fore
SplineSet
306 -6 m 1
 287 -52 l 1
 241 -71 l 1
 195 -52 l 1
 176 -6 l 1
 195 40 l 1
 210 46 l 1
 209 92 208 177 204 367 c 0
 204 368 l 0
 203 419 198 634 178 669 c 0
 160 701 144 698 131 693 c 0
 110 684 91 658 93 634 c 1
 109 640 l 1
 155 621 l 1
 174 575 l 1
 155 530 l 1
 109 510 l 1
 63 530 l 1
 44 575 l 1
 49 588 l 1
 47 591 46 593 44 596 c 0
 11 652 52 717 105 738 c 0
 151 757 204 740 232 691 c 0
 243 672 250 637 255 598 c 1
 273 645 294 684 318 701 c 0
 361 731 411 729 441 699 c 0
 477 663 488 586 435 550 c 0
 427 544 417 540 407 538 c 1
 400 520 l 1
 354 501 l 1
 308 520 l 1
 301 536 l 1
 280 469 263 395 264 368 c 2
 270 47 l 1
 287 40 l 1
 306 -6 l 1
405 599 m 1
 413 618 411 651 395 667 c 0
 388 674 383 680 357 662 c 0
 350 657 342 643 333 622 c 1
 354 631 l 1
 400 612 l 1
 405 599 l 1
EndSplineSet
EndChar

StartChar: Phi.1
Encoding: 65658 -1 253
Width: 520
VWidth: 0
Flags: W
VStem: 179 60<93 350 462 729>
LayerCount: 2
Fore
SplineSet
274 782 m 1
 255 736 l 1
 239 729 l 1
 239 462 l 1
 264 452 l 1
 267 445 l 1
 319 450 372 434 412 399 c 0
 523 303 507 141 402 56 c 0
 371 31 331 11 282 5 c 0
 274 4 267 3 259 3 c 1
 255 -6 l 1
 209 -25 l 1
 163 -6 l 1
 149 28 l 1
 87 61 44 123 33 197 c 1
 24 285 72 373 156 413 c 1
 172 452 l 1
 179 455 l 1
 179 729 l 1
 163 736 l 1
 144 782 l 1
 163 828 l 1
 209 847 l 1
 255 828 l 1
 274 782 l 1
171 361 m 1
 119 329 85 268 93 201 c 0
 94 195 94 191 95 188 c 0
 104 142 129 106 162 83 c 1
 163 86 l 1
 179 93 l 1
 179 357 l 1
 172 360 l 1
 171 361 l 1
279 395 m 1
 264 360 l 1
 239 350 l 1
 239 93 l 1
 255 86 l 1
 268 55 l 1
 300 57 333 69 360 92 c 0
 442 158 455 290 369 364 c 0
 342 387 310 397 279 395 c 1
EndSplineSet
EndChar

StartChar: Psi.1
Encoding: 65659 -1 254
Width: 546
VWidth: 0
Flags: W
HStem: 493 21G<50 103> 722 20G<229 321>
VStem: 117 60<156.68 493.637> 247 60<445.8 624> 267 60<113 291.2>
LayerCount: 2
Fore
SplineSet
515 562 m 1xe8
 496 516 l 1
 455 499 l 1
 442 377 527 94 329 63 c 1
 330 49 l 1
 348 42 l 1
 367 -4 l 1
 348 -50 l 1
 302 -69 l 1
 256 -50 l 1
 237 -4 l 1
 256 42 l 1
 270 48 l 1
 269 61 l 1
 129 72 117 192 117 294 c 0
 117 370 120 446 103 496 c 1
 96 493 l 1
 50 512 l 1
 31 558 l 1
 50 604 l 1
 96 623 l 1
 142 604 l 1
 161 558 l 1
 151 535 l 1
 188 468 177 372 177 294 c 0
 177 189 188 123 267 112 c 1xe8
 247 624 l 1
 229 631 l 1
 210 677 l 1
 229 723 l 1
 275 742 l 1
 321 723 l 1
 340 677 l 1
 321 631 l 1
 307 625 l 1xf0
 327 113 l 1
 489 142 317 385 396 536 c 1
 385 562 l 1
 404 608 l 1
 450 627 l 1
 496 608 l 1
 515 562 l 1xe8
EndSplineSet
EndChar

StartChar: Omega.1
Encoding: 65660 -1 255
Width: 417
VWidth: 0
Flags: W
HStem: 675 50<136.041 229.176>
VStem: 95 60<-32.3608 13.3> 287 60<256.169 601.787>
LayerCount: 2
Fore
SplineSet
386 56 m 1
 367 10 l 1
 321 -9 l 1
 295 2 l 1
 293 1 290 1 287 1 c 0
 276 1 257 8 257 26 c 0
 257 35 257 44 257 53 c 1
 256 56 l 1
 257 59 l 1
 260 200 284 339 287 478 c 0
 289 589 243 674 185 675 c 1
 178 675 l 1
 121 671 83 589 93 480 c 0
 103 364 132 247 146 127 c 1
 164 84 l 1
 153 57 l 1
 154 36 155 14 155 -8 c 0
 155 -13 150 -29 131 -33 c 0
 120 -35 100 -31 95 -14 c 2
 85 25 l 1
 53 38 l 1
 34 84 l 1
 53 130 l 1
 84 143 l 1
 69 254 43 364 33 476 c 0
 24 580 50 716 173 725 c 1
 186 725 l 1
 312 724 349 583 347 477 c 0
 344 355 327 237 320 121 c 1
 321 121 l 1
 367 102 l 1
 386 56 l 1
EndSplineSet
EndChar

StartChar: endash.1
Encoding: 65661 -1 256
Width: 458
VWidth: 0
Flags: W
HStem: 228 175
LayerCount: 2
Fore
SplineSet
424 293 m 1
 405 247 l 1
 359 228 l 1
 313 247 l 1
 300 277 l 1
 150 304 l 1
 145 292 l 1
 99 273 l 1
 53 292 l 1
 34 338 l 1
 53 384 l 1
 99 403 l 1
 145 384 l 1
 158 354 l 1
 308 327 l 1
 313 339 l 1
 359 358 l 1
 405 339 l 1
 424 293 l 1
EndSplineSet
EndChar

StartChar: emdash.1
Encoding: 65662 -1 257
Width: 649
VWidth: 0
Flags: W
HStem: 212 229
LayerCount: 2
Fore
SplineSet
616 277 m 1
 597 231 l 1
 551 212 l 1
 505 231 l 1
 491 264 l 1
 148 339 l 1
 144 330 l 1
 98 311 l 1
 52 330 l 1
 33 376 l 1
 52 422 l 1
 98 441 l 1
 144 422 l 1
 158 389 l 1
 501 313 l 1
 505 323 l 1
 551 342 l 1
 597 323 l 1
 616 277 l 1
EndSplineSet
EndChar

StartChar: quoteleft.1
Encoding: 65663 -1 258
Width: 243
VWidth: 0
Flags: W
HStem: 421 21G<101 193> 753 20G<81 173>
VStem: 35 177
LayerCount: 2
Fore
SplineSet
212 486 m 1
 193 440 l 1
 147 421 l 1
 101 440 l 1
 82 486 l 1
 94 514 l 1
 35 605 l 2
 32 610 29 620 36 630 c 2
 73 681 l 1
 62 708 l 1
 81 754 l 1
 127 773 l 1
 173 754 l 1
 192 708 l 1
 173 662 l 1
 127 643 l 1
 118 647 l 1
 96 616 l 1
 140 548 l 1
 147 551 l 1
 193 531 l 1
 212 486 l 1
EndSplineSet
EndChar

StartChar: quoteright.1
Encoding: 65664 -1 259
Width: 224
VWidth: 0
Flags: W
HStem: 418 21G<50 142>
VStem: 31 160
LayerCount: 2
Fore
SplineSet
161 483 m 1
 142 437 l 1
 96 418 l 1
 50 437 l 1
 31 483 l 1
 50 529 l 1
 96 548 l 1
 100 546 l 1
 130 598 l 1
 113 631 l 1
 67 650 l 1
 48 696 l 1
 67 742 l 1
 113 761 l 1
 159 742 l 1
 178 696 l 1
 164 661 l 1
 191 606 l 2
 195 598 193 591 190 586 c 2
 148 515 l 1
 161 483 l 1
EndSplineSet
EndChar

StartChar: quotedblleft.1
Encoding: 65665 -1 260
Width: 328
VWidth: 0
Flags: W
VStem: 30 267
LayerCount: 2
Fore
SplineSet
249 685 m 1
 230 639 l 1
 229 638 l 1
 297 409 l 2
 302 392 286 381 275 379 c 0
 257 375 245 385 241 391 c 2
 101 610 l 1
 95 607 l 1
 49 626 l 1
 30 672 l 1
 49 718 l 1
 95 737 l 1
 134 721 l 1
 138 731 l 1
 184 750 l 1
 230 731 l 1
 249 685 l 1
171 626 m 1
 154 632 l 1
 181 590 l 1
 171 626 l 1
EndSplineSet
EndChar

StartChar: quotedblright.1
Encoding: 65666 -1 261
Width: 318
VWidth: 0
Flags: W
VStem: 31 257
LayerCount: 2
Fore
SplineSet
288 647 m 1
 269 601 l 1
 223 582 l 1
 216 585 l 1
 86 392 l 2
 83 387 72 376 55 379 c 0
 44 381 27 390 31 408 c 2
 81 643 l 1
 75 645 l 1
 56 691 l 1
 75 737 l 1
 121 756 l 1
 167 737 l 1
 184 696 l 1
 223 712 l 1
 269 693 l 1
 288 647 l 1
170 619 m 1
 160 642 l 1
 140 634 l 1
 121 546 l 1
 170 619 l 1
EndSplineSet
EndChar

StartChar: exclam.2
Encoding: 65667 -1 262
Width: 216
VWidth: 0
Flags: W
VStem: 66 60<278 457.25> 82 60<509.75 689>
LayerCount: 2
Fore
SplineSet
159 225 m 1x80
 140 179 l 1
 94 160 l 1
 48 179 l 1
 29 225 l 1
 48 271 l 1
 66 278 l 1x80
 82 690 l 1
 68 696 l 1
 49 742 l 1
 68 788 l 1
 114 807 l 1
 160 788 l 1
 179 742 l 1
 160 696 l 1
 142 689 l 1x40
 126 277 l 1
 140 271 l 1
 159 225 l 1x80
187 30 m 1
 168 -16 l 1
 122 -35 l 1
 76 -16 l 1
 57 30 l 1
 76 76 l 1
 122 95 l 1
 168 76 l 1
 187 30 l 1
EndSplineSet
EndChar

StartChar: quotedbl.2
Encoding: 65668 -1 263
Width: 358
VWidth: 0
Flags: W
VStem: 30 298
LayerCount: 2
Fore
SplineSet
286 435 m 1
 267 389 l 1
 221 370 l 1
 175 389 l 1
 157 432 l 1
 141 393 l 1
 95 374 l 1
 49 393 l 1
 30 439 l 1
 49 485 l 1
 68 493 l 1
 84 726 l 1
 71 731 l 1
 52 777 l 1
 71 823 l 1
 117 842 l 1
 163 823 l 1
 182 777 l 1
 163 731 l 1
 144 723 l 1
 128 490 l 1
 141 485 l 1
 159 442 l 1
 175 481 l 1
 198 490 l 1
 226 706 l 1
 217 710 l 1
 198 756 l 1
 217 802 l 1
 263 821 l 1
 309 802 l 1
 328 756 l 1
 309 710 l 1
 286 700 l 1
 258 485 l 1
 267 481 l 1
 286 435 l 1
EndSplineSet
EndChar

StartChar: numbersign.2
Encoding: 65669 -1 264
Width: 552
VWidth: 0
Flags: W
HStem: 204 49<165 177 245 299 369 404> 481 20G<415 476>
LayerCount: 2
Fore
SplineSet
524 226 m 1
 505 180 l 1
 459 161 l 1
 413 180 l 1
 404 202 l 1
 360 202 l 1
 318 -22 l 2
 315 -36 300 -42 290 -43 c 2
 228 -46 l 1
 218 -69 l 1
 172 -88 l 1
 126 -69 l 1
 107 -23 l 1
 126 23 l 1
 150 33 l 1
 177 204 l 1
 164 204 l 1
 156 184 l 1
 110 165 l 1
 64 184 l 1
 45 230 l 1
 64 276 l 1
 110 295 l 1
 156 276 l 1
 165 254 l 1
 185 254 l 1
 212 431 l 1
 145 438 l 1
 139 422 l 1
 93 403 l 1
 47 422 l 1
 28 468 l 1
 47 514 l 1
 93 533 l 1
 139 514 l 1
 150 488 l 1
 220 481 l 1
 258 725 l 1
 258 726 l 1
 260 735 273 750 294 746 c 2
 371 733 l 1
 376 744 l 1
 422 763 l 1
 468 744 l 1
 487 698 l 1
 468 652 l 1
 442 641 l 1
 415 495 l 1
 430 501 l 1
 476 482 l 1
 495 436 l 1
 476 390 l 1
 430 371 l 1
 394 386 l 1
 369 252 l 1
 405 252 l 1
 413 272 l 1
 459 291 l 1
 505 272 l 1
 524 226 l 1
299 203 m 1
 238 204 l 1
 210 26 l 1
 218 23 l 1
 226 4 l 1
 263 6 l 1
 299 203 l 1
309 253 m 1
 340 419 l 1
 272 426 l 1
 245 253 l 1
 309 253 l 1
349 469 m 1
 382 649 l 1
 376 652 l 1
 363 683 l 1
 313 692 l 1
 280 476 l 1
 349 469 l 1
EndSplineSet
EndChar

StartChar: dollar.2
Encoding: 65670 -1 265
Width: 415
VWidth: 0
Flags: W
HStem: 420 21G<275 367>
VStem: 193 60<28 277 399 656>
LayerCount: 2
Fore
SplineSet
285 757 m 1
 266 711 l 1
 257 707 l 1
 343 686 390 602 370 523 c 1
 386 485 l 1
 367 439 l 1
 321 420 l 1
 275 439 l 1
 256 485 l 1
 275 531 l 1
 314 547 l 1
 314 550 315 552 315 555 c 0
 317 602 289 641 251 656 c 1
 253 351 l 1
 302 310 350 260 366 191 c 0
 389 92 341 -18 231 -35 c 0
 199 -40 168 -36 144 -26 c 0
 75 1 37 69 46 137 c 1
 28 182 l 1
 47 228 l 1
 93 247 l 1
 139 228 l 1
 158 182 l 1
 139 136 l 1
 105 122 l 1
 103 77 131 35 170 20 c 0
 178 17 186 14 195 13 c 1
 193 331 l 1
 186 336 l 2
 145 367 94 402 68 460 c 0
 24 556 65 672 167 704 c 0
 172 705 176 707 181 708 c 1
 174 711 l 1
 155 757 l 1
 174 803 l 1
 220 822 l 1
 266 803 l 1
 285 757 l 1
253 277 m 1
 255 28 l 1
 297 55 323 114 307 182 c 0
 304 197 298 212 289 228 c 0
 280 245 267 262 253 277 c 1
192 399 m 1
 191 659 l 2
 190 659 189 658 188 658 c 0
 129 639 89 556 124 478 c 0
 139 447 163 423 192 399 c 1
EndSplineSet
EndChar

StartChar: percent.2
Encoding: 65671 -1 266
Width: 526
VWidth: 0
Flags: W
HStem: -92 50<371.053 427.51> 429 20G<382 474> 770 20G<414.5 420.5>
VStem: 302 60<-35.0024 129.256>
LayerCount: 2
Fore
SplineSet
220 -47 m 1
 201 -93 l 1
 155 -112 l 1
 110 -93 l 1
 90 -47 l 1
 110 -1 l 1
 145 14 l 1
 366 693 l 1
 317 673 262 672 211 690 c 1
 228 650 244 609 259 567 c 0
 290 477 292 347 185 322 c 0
 182 321 177 321 170 320 c 0
 87 311 43 376 32 445 c 0
 25 487 29 536 45 587 c 0
 60 634 76 683 93 732 c 1
 75 775 l 1
 94 820 l 1
 140 840 l 1
 186 820 l 1
 205 775 l 1
 197 755 l 1
 201 752 205 749 209 747 c 0
 269 712 346 721 395 779 c 0
 402 787 410 790 419 790 c 0
 422 790 425 790 428 789 c 0
 439 787 445 781 448 774 c 0
 450 770 451 765 450 761 c 0
 450 760 449 759 449 758 c 2
 201 -1 l 1
 220 -47 l 1
399 170 m 1
 379 118 l 2
 365 83 361 50 362 23 c 0
 364 -29 385 -43 402 -42 c 0
 406 -42 408 -41 410 -41 c 0
 437 -34 448 42 410 139 c 0
 405 151 402 161 399 170 c 1
493 384 m 1
 474 339 l 1
 446 327 l 1
 443 305 442 282 444 258 c 0
 446 224 453 189 467 154 c 0
 500 70 529 -61 429 -88 c 0
 423 -90 414 -92 404 -92 c 0
 332 -95 305 -34 302 21 c 0
 300 55 306 93 322 133 c 0
 347 197 368 265 387 337 c 1
 382 339 l 1
 363 384 l 1
 382 430 l 1
 428 449 l 1
 474 430 l 1
 493 384 l 1
144 698 m 1
 129 656 115 615 103 575 c 0
 89 530 86 486 92 451 c 0
 102 387 132 366 162 369 c 0
 165 369 167 370 168 370 c 0
 210 380 233 460 201 553 c 0
 184 603 165 652 144 698 c 1
EndSplineSet
EndChar

StartChar: ampersand.2
Encoding: 65672 -1 267
Width: 478
VWidth: 0
Flags: W
HStem: 753 20G<313 405>
LayerCount: 2
Fore
SplineSet
398 -33 m 1
 379 -79 l 1
 333 -98 l 1
 287 -79 l 1
 268 -33 l 1
 287 13 l 1
 294 16 l 1
 268 181 l 1
 159 -7 l 2
 158 -9 151 -20 135 -21 c 0
 124 -22 104 -16 102 2 c 2
 66 334 l 2
 66 336 65 337 65 339 c 2
 29 672 l 2
 28 682 36 697 55 699 c 2
 302 727 l 1
 313 754 l 1
 359 773 l 1
 405 754 l 1
 424 708 l 1
 405 662 l 1
 359 643 l 1
 350 647 l 1
 126 333 l 1
 152 96 l 1
 254 273 l 1
 255 278 258 281 261 284 c 1
 333 410 l 1
 320 442 l 1
 339 488 l 1
 385 507 l 1
 431 488 l 1
 450 442 l 1
 431 396 l 1
 385 377 l 1
 382 378 l 1
 315 263 l 1
 354 23 l 1
 379 13 l 1
 398 -33 l 1
117 418 m 1
 301 676 l 1
 91 653 l 1
 117 418 l 1
EndSplineSet
EndChar

StartChar: quotesingle.2
Encoding: 65673 -1 268
Width: 201
VWidth: 0
Flags: W
VStem: 30 141
LayerCount: 2
Fore
SplineSet
171 407 m 1
 152 361 l 1
 106 342 l 1
 60 361 l 1
 41 407 l 1
 60 453 l 1
 92 466 l 1
 107 537 104 610 85 676 c 1
 49 691 l 1
 30 737 l 1
 49 783 l 1
 95 802 l 1
 141 783 l 1
 160 737 l 1
 142 693 l 1
 164 618 169 535 151 454 c 1
 152 453 l 1
 171 407 l 1
EndSplineSet
EndChar

StartChar: parenleft.2
Encoding: 65674 -1 269
Width: 303
VWidth: 0
Flags: W
HStem: 744 20G<163 255>
VStem: 30 60<204.281 481.012>
LayerCount: 2
Fore
SplineSet
255 5 m 1
 236 -41 l 1
 190 -60 l 1
 144 -41 l 1
 125 5 l 1
 135 28 l 1
 66 120 28 235 30 352 c 0
 32 471 74 585 152 678 c 1
 144 699 l 1
 163 745 l 1
 209 764 l 1
 255 745 l 1
 274 699 l 1
 255 653 l 1
 209 634 l 1
 194 640 l 1
 129 558 92 456 90 351 c 0
 88 247 121 147 179 65 c 1
 190 70 l 1
 236 51 l 1
 255 5 l 1
EndSplineSet
EndChar

StartChar: parenright.2
Encoding: 65675 -1 270
Width: 295
VWidth: 0
Flags: W
VStem: 205 60<218.011 499.485>
LayerCount: 2
Fore
SplineSet
159 15 m 1
 140 -31 l 1
 94 -50 l 1
 48 -31 l 1
 29 15 l 1
 48 61 l 1
 94 80 l 1
 109 74 l 1
 171 154 205 255 205 360 c 0
 205 458 173 554 115 634 c 1
 102 629 l 1
 56 648 l 1
 37 694 l 1
 56 740 l 1
 102 759 l 1
 148 740 l 1
 167 694 l 1
 158 671 l 1
 228 581 265 473 265 361 c 0
 265 242 223 127 150 36 c 1
 159 15 l 1
EndSplineSet
EndChar

StartChar: asterisk.2
Encoding: 65676 -1 271
Width: 398
VWidth: 0
Flags: W
HStem: 774 20G<148 240>
VStem: 87 59<205.887 250.717>
LayerCount: 2
Fore
SplineSet
209 556 m 1
 201 583 l 1
 195 542 l 1
 209 556 l 1
206 465 m 1
 254 385 l 1
 226 492 l 1
 220 484 213 475 206 465 c 1
145 613 m 1
 113 617 l 1
 139 574 l 1
 145 613 l 1
259 729 m 1
 240 683 l 1
 237 682 l 1
 245 650 l 1
 342 638 l 1
 359 638 385 606 352 591 c 0
 325 579 299 563 274 542 c 1
 364 202 l 2
 366 195 364 181 348 174 c 0
 338 170 318 169 308 185 c 2
 174 406 l 1
 146 227 l 2
 143 209 124 204 113 205 c 0
 94 207 88 222 87 228 c 0
 86 237 85 245 85 251 c 0
 83 310 94 366 115 417 c 1
 126 485 l 1
 33 638 l 2
 32 640 28 644 30 653 c 0
 32 662 44 677 65 674 c 2
 153 662 l 1
 156 680 l 1
 148 683 l 1
 129 729 l 1
 148 775 l 1
 194 794 l 1
 240 775 l 1
 259 729 l 1
EndSplineSet
EndChar

StartChar: plus.2
Encoding: 65677 -1 272
Width: 387
VWidth: 0
Flags: W
HStem: 310 50<151 183>
VStem: 183 60<82 286 358 563>
LayerCount: 2
Fore
SplineSet
275 616 m 1
 256 570 l 1
 241 564 l 1
 243 358 l 1
 247 369 l 1
 293 388 l 1
 339 369 l 1
 358 323 l 1
 339 277 l 1
 293 258 l 1
 247 277 l 1
 243 286 l 1
 245 82 l 1
 262 75 l 1
 281 29 l 1
 262 -17 l 1
 216 -36 l 1
 170 -17 l 1
 151 29 l 1
 170 75 l 1
 185 81 l 1
 183 307 l 1
 147 310 l 1
 140 294 l 1
 94 275 l 1
 48 294 l 1
 29 340 l 1
 48 385 l 1
 94 405 l 1
 140 385 l 1
 151 360 l 1
 183 357 l 1
 181 563 l 1
 164 570 l 1
 145 616 l 1
 164 662 l 1
 210 681 l 1
 256 662 l 1
 275 616 l 1
EndSplineSet
EndChar

StartChar: comma.2
Encoding: 65678 -1 273
Width: 291
VWidth: 0
Flags: W
LayerCount: 2
Fore
SplineSet
166 -237 m 1
 147 -283 l 1
 101 -302 l 1
 55 -283 l 1
 36 -237 l 1
 55 -191 l 1
 101 -172 l 1
 117 -179 l 1
 186 -103 l 1
 153 -72 l 1
 132 -81 l 1
 86 -62 l 1
 67 -16 l 1
 86 29 l 1
 132 49 l 1
 178 29 l 1
 197 -16 l 1
 190 -33 l 1
 247 -85 l 2
 259 -96 255 -111 249 -117 c 2
 158 -217 l 1
 166 -237 l 1
EndSplineSet
EndChar

StartChar: hyphen.2
Encoding: 65679 -1 274
Width: 313
VWidth: 0
Flags: W
HStem: 207 209
VStem: 34 245
LayerCount: 2
Fore
SplineSet
279 351 m 1
 260 305 l 1
 214 286 l 1
 185 298 l 1
 160 282 l 1
 164 272 l 1
 145 226 l 1
 99 207 l 1
 53 226 l 1
 34 272 l 1
 53 318 l 1
 99 337 l 1
 128 325 l 1
 153 341 l 1
 149 351 l 1
 168 397 l 1
 214 416 l 1
 260 397 l 1
 279 351 l 1
EndSplineSet
EndChar

StartChar: period.2
Encoding: 65680 -1 275
Width: 214
VWidth: 0
Flags: W
HStem: -204 130
VStem: 42 130
LayerCount: 2
Fore
SplineSet
172 -139 m 1
 153 -185 l 1
 107 -204 l 1
 61 -185 l 1
 42 -139 l 1
 61 -93 l 1
 107 -74 l 1
 153 -93 l 1
 172 -139 l 1
EndSplineSet
EndChar

StartChar: slash.2
Encoding: 65681 -1 276
Width: 334
VWidth: 0
Flags: W
VStem: 28 278
LayerCount: 2
Fore
SplineSet
306 734 m 1
 286 688 l 1
 260 677 l 1
 133 22 l 1
 139 20 l 1
 158 -26 l 1
 139 -72 l 1
 93 -91 l 1
 47 -72 l 1
 28 -26 l 1
 47 20 l 1
 73 31 l 1
 201 686 l 1
 195 688 l 1
 175 734 l 1
 195 780 l 1
 240 799 l 1
 286 780 l 1
 306 734 l 1
EndSplineSet
EndChar

StartChar: zero.2
Encoding: 65682 -1 277
Width: 374
VWidth: 0
Flags: W
HStem: 749 20G<167 259>
LayerCount: 2
Fore
SplineSet
193 528 m 1
 175 478 156 430 135 385 c 0
 92 291 81 197 94 129 c 0
 110 48 152 16 204 23 c 1
 301 39 303 191 240 357 c 0
 218 414 202 471 193 528 c 1
278 704 m 1
 259 659 l 1
 242 652 l 1
 243 548 262 464 297 372 c 0
 354 224 387 19 234 -22 c 0
 228 -23 222 -25 213 -26 c 0
 112 -40 52 33 35 121 c 0
 20 200 33 301 79 402 c 0
 117 484 148 565 171 657 c 1
 167 659 l 1
 148 704 l 1
 167 750 l 1
 213 769 l 1
 259 750 l 1
 278 704 l 1
EndSplineSet
EndChar

StartChar: one.2
Encoding: 65683 -1 278
Width: 276
VWidth: 0
Flags: W
HStem: 407 21G<47 133>
VStem: 151 60<41 188.111>
LayerCount: 2
Fore
SplineSet
248 -13 m 1
 229 -59 l 1
 183 -78 l 1
 138 -59 l 1
 118 -13 l 1
 138 33 l 1
 151 38 l 1
 133 424 l 1
 93 407 l 1
 47 426 l 1
 28 472 l 1
 47 518 l 1
 76 530 l 1
 120 723 l 2
 124 741 145 745 156 743 c 0
 175 740 180 724 180 719 c 2
 211 41 l 1
 229 33 l 1
 248 -13 l 1
EndSplineSet
EndChar

StartChar: two.2
Encoding: 65684 -1 279
Width: 351
VWidth: 0
Flags: W
HStem: 434 21G<82 174>
LayerCount: 2
Fore
SplineSet
321 5 m 1
 301 -41 l 1
 256 -60 l 1
 210 -41 l 1
 198 -13 l 1
 128 -3 l 2
 117 -2 102 8 103 24 c 0
 113 164 149 302 211 431 c 0
 272 559 274 677 202 697 c 0
 154 710 115 687 97 642 c 0
 86 613 87 580 104 554 c 1
 128 564 l 1
 174 545 l 1
 193 499 l 1
 174 453 l 1
 128 434 l 1
 82 453 l 1
 63 499 l 1
 67 510 l 1
 25 553 22 612 40 658 c 0
 64 719 133 769 221 745 c 0
 364 705 323 529 267 412 c 0
 211 295 177 169 165 43 c 1
 204 38 l 1
 210 51 l 1
 256 70 l 1
 301 51 l 1
 321 5 l 1
EndSplineSet
EndChar

StartChar: three.2
Encoding: 65685 -1 280
Width: 346
VWidth: 0
Flags: W
HStem: 418 21G<81 173>
LayerCount: 2
Fore
SplineSet
171 146 m 1
 151 100 l 1
 106 81 l 1
 99 84 l 1
 96 63 103 40 119 25 c 0
 130 15 143 9 161 10 c 0
 195 12 227 54 221 130 c 0
 220 147 217 165 210 185 c 0
 188 254 153 319 106 377 c 0
 97 388 97 411 124 416 c 0
 183 427 237 473 252 541 c 0
 268 613 229 674 182 678 c 0
 107 684 71 595 104 538 c 1
 127 548 l 1
 173 529 l 1
 192 483 l 1
 173 437 l 1
 127 418 l 1
 81 437 l 1
 62 483 l 1
 66 493 l 1
 36 525 27 566 31 602 c 0
 39 668 95 735 188 727 c 0
 292 718 329 614 311 532 c 0
 295 460 243 404 176 378 c 1
 217 321 247 261 268 198 c 0
 301 102 281 -34 165 -40 c 0
 126 -42 94 -27 74 -8 c 0
 38 26 27 80 50 124 c 1
 41 146 l 1
 60 192 l 1
 106 211 l 1
 151 192 l 1
 171 146 l 1
EndSplineSet
EndChar

StartChar: four.2
Encoding: 65686 -1 281
Width: 336
VWidth: 0
Flags: W
VStem: 29 279
LayerCount: 2
Fore
SplineSet
290 3 m 1
 271 -43 l 1
 225 -62 l 1
 179 -43 l 1
 160 3 l 1
 179 49 l 1
 191 54 l 1
 183 177 l 1
 73 127 l 2
 49 116 22 134 29 154 c 1
 151 652 l 2
 155 670 176 674 187 672 c 0
 205 669 211 655 211 649 c 2
 235 295 l 1
 243 298 l 1
 289 279 l 1
 308 233 l 1
 289 187 l 1
 244 168 l 1
 251 57 l 1
 271 49 l 1
 290 3 l 1
179 235 m 1
 164 455 l 1
 101 197 l 1
 179 232 l 1
 178 233 l 1
 179 235 l 1
EndSplineSet
EndChar

StartChar: five.2
Encoding: 65687 -1 282
Width: 360
VWidth: 0
Flags: W
HStem: 672 49<128 210> 748 20G<220 312>
VStem: 29 302
LayerCount: 2
Fore
SplineSet
159 137 m 1
 140 91 l 1
 118 82 l 1
 123 61 138 43 157 37 c 0
 160 36 163 36 168 35 c 0
 206 31 246 60 257 129 c 0
 262 163 259 205 242 247 c 0
 205 339 136 415 48 461 c 0
 41 464 32 474 34 486 c 2
 73 700 l 2
 75 709 84 720 101 721 c 2
 210 726 l 1
 220 749 l 1
 266 768 l 1
 312 749 l 1
 331 703 l 1
 312 657 l 1
 266 638 l 1
 220 657 l 1
 212 676 l 1
 128 672 l 1
 96 495 l 1
 191 440 260 358 298 262 c 0
 318 213 322 165 316 123 c 0
 303 40 235 -42 135 -9 c 0
 87 7 59 46 55 88 c 1
 48 91 l 1
 29 137 l 1
 48 183 l 1
 94 202 l 1
 140 183 l 1
 159 137 l 1
EndSplineSet
EndChar

